<svg aria-hidden="true" data-prefix="fas" data-icon="chart-area" role="img" xmlns="http://www.w3.org/2000/svg" viewBox="0 0 512 512" class="svg-inline--fa fa-chart-area fa-w-16">
  <style type="text/css">
  svg:not(:root).svg-inline--fa{overflow:visible;}
  .svg-inline--fa{display:inline-block;font-size:inherit;height:1em;overflow:visible;vertical-align:-.125em;}
  .svg-inline--fa.fa-w-16{width:1em;}
  
  svg:not(:root){overflow:hidden;}
  *,*::before,*::after{-webkit-box-sizing:inherit;box-sizing:inherit;}
  ::-webkit-input-placeholder{color:inherit;opacity:0.3;}
  ::-moz-placeholder{color:inherit;opacity:0.3;}
  :-moz-placeholder{color:inherit;opacity:0.3;}
  :-ms-input-placeholder{color:inherit;opacity:0.3;}
  
  .fa-chart-area:before{content:"\f1fe";}
  </style>
  
  <g>
    <path fill="currentColor" d="M500 384c6.6 0 12 5.4 12 12v40c0 6.6-5.4 12-12 12H12c-6.6 0-12-5.4-12-12V76c0-6.6 5.4-12 12-12h40c6.6 0 12 5.4 12 12v308h436zM372.7 159.5L288 216l-85.3-113.7c-5.1-6.8-15.5-6.3-19.9 1L96 248v104h384l-89.9-187.8c-3.2-6.5-11.4-8.7-17.4-4.7z" class=""></path>
  </g>
</svg>

