<?xml version="1.0" encoding="utf-8"?>
<!-- Generator: Adobe Illustrator 21.0.0, SVG Export Plug-In . SVG Version: 6.00 Build 0)  -->
<svg version="1.1" id="Calque_1" xmlns="http://www.w3.org/2000/svg" xmlns:xlink="http://www.w3.org/1999/xlink" x="0px" y="0px"
	 width="18px" height="18px" viewBox="0 0 18 18" style="enable-background:new 0 0 18 18;" xml:space="preserve">
<style type="text/css">
	.st0{fill:#FFFFFF;}
</style>
<g>
	<path class="st0" d="M9,17.7c4,0,7.2-3.2,7.2-7.2c0-3.2-2.2-6-5.2-6.9l0,1.7c2.2,0.8,3.6,2.9,3.6,5.3c0,3.1-2.5,5.6-5.6,5.6
		c-3.1,0-5.6-2.5-5.6-5.6c0-2.3,1.5-4.4,3.6-5.3l0-1.7C4,4.5,1.8,7.3,1.8,10.5C1.8,14.5,5,17.7,9,17.7z"/>
	<path class="st0" d="M9,9.1c0.4,0,0.8-0.4,0.8-0.8V1.1c0-0.4-0.4-0.8-0.8-0.8c-0.4,0-0.8,0.4-0.8,0.8v7.2C8.2,8.7,8.6,9.1,9,9.1z"
		/>
</g>
</svg>
