<?xml version="1.0" encoding="utf-8"?>
<!-- Generator: Adobe Illustrator 21.0.0, SVG Export Plug-In . SVG Version: 6.00 Build 0)  -->
<svg version="1.1" id="Calque_1" xmlns="http://www.w3.org/2000/svg" xmlns:xlink="http://www.w3.org/1999/xlink" x="0px" y="0px"
	 width="62.4px" height="62.4px" viewBox="0 0 62.4 62.4" style="enable-background:new 0 0 62.4 62.4;" xml:space="preserve">
<style type="text/css">
	.st0{fill:#FFFFFF;}
</style>
<g>
	<path class="st0" d="M12.1,23"/>
	<g>
		<g>
			<g>
				<path class="st0" d="M31.2,2.9c15.7,0,28.2,12.7,28.2,28.2c0,15.7-12.7,28.2-28.2,28.2c-15.7,0-28.2-12.7-28.2-28.2
					C2.9,15.7,15.7,2.9,31.2,2.9 M31.2,0.6C14.3,0.6,0.6,14.3,0.6,31.2s13.7,30.6,30.6,30.6S61.8,48,61.8,31.2
					C62,14.3,48.2,0.6,31.2,0.6L31.2,0.6z"/>
			</g>
		</g>
		<g>
			<g>
				<path class="st0" d="M47.6,41.7c-0.2-1.4-0.7-2.6-1.1-4c-0.4-1.4-0.7-2.6-1.1-4c-0.9-3.3-1.8-6.7-2.6-10.2
					c-0.2-0.7-0.4-1.6-0.5-2.3c-0.2-0.4-0.2-0.9-0.5-1.1C41.5,20,41.2,20,40.8,20c-0.5,0-0.9,0-1.4,0c-0.9,0-1.9,0-2.8,0
					c-0.7,0-1.2,0-1.9,0.2c-0.5,0.2-1.1,0.4-1.4,1.1c-0.2,0.2,0,0.5,0.2,0.7c0.2,0,0.4,0,0.5,0l0.5-0.4L39.8,41l0,0v0.2
					c0.2,0.4,0.4,0.9,0.7,1.1c0.2,0.2,0.5,0.2,0.9,0.2h0.5h0.9h2.6h1.4C47.3,42.4,47.8,42,47.6,41.7z"/>
			</g>
			<g>
				<path class="st0" d="M34.7,41.7c-0.2-1.4-0.7-2.6-1.1-4c-0.4-1.4-0.7-2.6-1.1-4c-0.9-3.3-1.8-6.7-2.6-10.2
					c-0.2-0.7-0.4-1.6-0.5-2.3c-0.2-0.4-0.2-0.9-0.5-1.1C28.6,20,28.2,20,27.9,20c-0.5,0-0.9,0-1.4,0c-0.9,0-1.9,0-2.8,0
					c-0.7,0-1.2,0-1.9,0.2c-0.5,0.2-1.1,0.5-1.4,1.1c-0.2,0.2,0,0.5,0.2,0.7c0.2,0,0.4,0,0.5,0l0.5-0.4L26.8,41l0,0v0.2
					c0.2,0.4,0.4,0.9,0.7,1.1c0.2,0.2,0.5,0.2,0.9,0.2h0.5h0.9h2.6h1.4C34.3,42.4,34.9,42,34.7,41.7z"/>
			</g>
			<path class="st0" d="M24.4,37.3l-3.5-14l0,0c0-0.2-0.4-0.4-0.5-0.4s-0.5,0.2-0.5,0.4l0,0L14.9,41l0,0v0.2c0,0.5,0.5,1.1,1.1,1.1
				h6.1c0.5,0,0.9-0.4,1.1-0.7l0,0L24.4,37.3z"/>
			<path class="st0" d="M37.7,37.1l-4-14.2l0,0c0-0.2-0.2-0.4-0.5-0.4c-0.2,0-0.4,0.2-0.5,0.4l0,0l-0.7,2.8l3.9,13.7l0,0l0,0
				c0,0.2,0.2,0.4,0.4,0.4s0.4-0.2,0.4-0.4l0,0L37.7,37.1z"/>
		</g>
	</g>
</g>
</svg>
