<?xml version="1.0" encoding="utf-8"?>
<!-- Generator: Adobe Illustrator 21.0.0, SVG Export Plug-In . SVG Version: 6.00 Build 0)  -->
<svg version="1.1" id="Calque_1" xmlns="http://www.w3.org/2000/svg" xmlns:xlink="http://www.w3.org/1999/xlink" x="0px" y="0px"
	 width="31px" height="28px" viewBox="0 0 31 28" style="enable-background:new 0 0 31 28;" xml:space="preserve">
<style type="text/css">
	.st0{fill:#A3A7AB;}
</style>
<g>
	<path class="st0" d="M15.7,17.2l-3.2-4.6c-0.2,0.4-0.3,0.9-0.3,1.4c0,0.9,0.3,1.7,0.9,2.3c0.7,0.6,1.5,0.9,2.4,0.9
		C15.6,17.2,15.6,17.2,15.7,17.2z"/>
	<path class="st0" d="M30.6,12.8c-4.9-5.6-10-8.5-15.1-8.5c-1.7,0-3.4,0.3-5.1,1L6.7,0.1L5.5,0.9l0.2,0.2l3.3,4.8L11,8.8l2,2.9
		l3.7,5.2l2,2.9l1.9,2.7l3.6,5.2l0.5-0.3l0.8-0.5L22.1,22c2.9-1.4,5.7-3.7,8.5-6.9C31.1,14.4,31.1,13.6,30.6,12.8z M20.3,18.7
		c-0.1,0.1-0.2,0.2-0.3,0.3l-2-2.9c0.5-0.6,0.8-1.3,0.8-2.1c0-0.9-0.3-1.7-0.9-2.4c-0.6-0.6-1.4-0.9-2.3-0.9c-0.4,0-0.8,0.1-1.2,0.2
		L12.3,8c1-0.5,2.1-0.8,3.3-0.8c1.9,0,3.4,0.7,4.8,2c1.3,1.3,2,2.9,2,4.9C22.2,15.9,21.6,17.4,20.3,18.7z"/>
	<path class="st0" d="M15.5,20.7c-1.9,0-3.5-0.7-4.8-2c-1.3-1.3-2-2.9-2-4.8c0-1.7,0.5-3.2,1.6-4.5L8.1,6.4C5.6,7.8,3,10,0.5,12.9
		c-0.6,0.9-0.6,1.7,0,2.3c1.5,1.9,3.4,3.7,5.7,5.3c3.2,2.1,6.3,3.2,9.4,3.2c1.4,0,2.8-0.2,4.2-0.7l-1.9-2.6
		C17.1,20.6,16.4,20.7,15.5,20.7z"/>
</g>
</svg>
