<?xml version="1.0" encoding="utf-8"?>
<!-- Generator: Adobe Illustrator 21.0.0, SVG Export Plug-In . SVG Version: 6.00 Build 0)  -->
<svg version="1.1" id="Calque_1" xmlns="http://www.w3.org/2000/svg" xmlns:xlink="http://www.w3.org/1999/xlink" x="0px" y="0px"
	 width="16px" height="16px" viewBox="0 0 16 16" style="enable-background:new 0 0 16 16;" xml:space="preserve">
<style type="text/css">
	.st0{fill:#1EB0DC;}
</style>
<g>
	<g>
		<polygon class="st0" points="12.5,7.5 8.5,7.5 7.5,7.5 2.9,7.5 1.1,7.5 1.1,8.5 1.8,8.5 1.8,8.5 14.9,8.5 14.9,7.5 		"/>
		<path class="st0" d="M1.8,8.8H0.9V7.2h14.2v1.5L1.8,8.8z M1.4,8.3l13.2,0V7.7H1.4V8.3z"/>
	</g>
</g>
<g>
	<g>
		<polygon class="st0" points="8.5,12.5 8.5,8.5 8.5,7.5 8.5,2.9 8.5,1.1 7.5,1.1 7.5,1.8 7.5,1.8 7.5,14.9 8.5,14.9 		"/>
		<path class="st0" d="M8.8,15.1H7.2l0-14.2h1.5V15.1z M7.7,14.6h0.5V1.4H7.7L7.7,14.6z"/>
	</g>
</g>
</svg>
