<?xml version="1.0" encoding="utf-8"?>
<!-- Generator: Adobe Illustrator 21.0.0, SVG Export Plug-In . SVG Version: 6.00 Build 0)  -->
<svg version="1.1" id="Calque_1" xmlns="http://www.w3.org/2000/svg" xmlns:xlink="http://www.w3.org/1999/xlink" x="0px" y="0px"
	 width="92.5px" height="74.6px" viewBox="0 0 92.5 74.6" style="enable-background:new 0 0 92.5 74.6;" xml:space="preserve">
<style type="text/css">
	.st0{fill:#FFFFFF;}
</style>
<g>
	<g>
		<g>
			<path class="st0" d="M46.3,2.4C59.4,2.4,70,13,70,26.2S59.4,49.9,46.3,49.9S22.5,39.3,22.5,26.2S33.2,2.4,46.3,2.4 M46.3,0
				C31.8,0,20.1,11.7,20.1,26.2s11.7,26.2,26.2,26.2s26.2-11.7,26.2-26.2S60.7,0,46.3,0L46.3,0z"/>
		</g>
		<g>
			<g>
				<path class="st0" d="M62,36.1c-0.2-1.3-0.7-2.5-1-3.8c-0.3-1.3-0.7-2.5-1-3.8c-0.8-3.2-1.7-6.4-2.5-9.7
					c-0.2-0.7-0.4-1.5-0.6-2.2c-0.1-0.4-0.2-0.8-0.6-0.9c-0.3-0.2-0.7-0.1-1-0.1c-0.4,0-0.9,0-1.3,0c-0.9,0-1.8,0-2.7,0
					c-0.6,0-1.2,0-1.8,0.1c-0.5,0.1-1.1,0.4-1.3,0.9c-0.1,0.2,0,0.5,0.2,0.6c0.2,0.1,0.3,0,0.5-0.1c0.1,0,0.5-0.4,0.5-0.3l5,18.6
					l0,0c0,0.1,0,0.1,0,0.2c0.1,0.4,0.3,0.8,0.6,1c0.2,0.1,0.5,0.2,0.8,0.2h0.5h0.8h2.6h1.4C61.6,36.8,62,36.6,62,36.1z"/>
			</g>
			<g>
				<path class="st0" d="M49.6,36.1c-0.2-1.3-0.7-2.5-1-3.8c-0.3-1.3-0.7-2.5-1-3.8c-0.8-3.2-1.7-6.4-2.5-9.7
					c-0.2-0.7-0.4-1.5-0.6-2.2c-0.1-0.4-0.2-0.8-0.6-0.9c-0.3-0.2-0.7-0.1-1-0.1c-0.4,0-0.9,0-1.3,0c-0.9,0-1.8,0-2.7,0
					c-0.6,0-1.2,0-1.8,0.1c-0.5,0.1-1.1,0.4-1.3,0.9c-0.1,0.2,0,0.5,0.2,0.6c0.2,0.1,0.3,0,0.5-0.1c0.1,0,0.5-0.4,0.5-0.3l5,18.6
					l0,0c0,0.1,0,0.1,0,0.2c0.1,0.4,0.3,0.8,0.6,1c0.2,0.1,0.5,0.2,0.8,0.2H44h0.8h2.6h1.4C49.2,36.8,49.6,36.6,49.6,36.1z"/>
			</g>
			<path class="st0" d="M39.6,32l-3.4-13.4h0c0-0.2-0.3-0.4-0.5-0.4c-0.2,0-0.4,0.2-0.5,0.4l0,0l-4.6,17l0,0c0,0.1,0,0.2,0,0.3
				c0,0.6,0.5,1,1,1h5.8c0.5,0,0.8-0.3,1-0.7l0,0L39.6,32z"/>
			<path class="st0" d="M52.3,31.7l-3.8-13.5h0c0-0.2-0.2-0.3-0.4-0.3c-0.2,0-0.4,0.1-0.4,0.3h0L47,20.9l3.7,13.1l0,0l0,0
				c0.1,0.2,0.2,0.3,0.4,0.3c0.2,0,0.4-0.1,0.4-0.3l0,0L52.3,31.7z"/>
		</g>
		<g>
			<g>
				<path class="st0" d="M40.6,67.3l0,7.1c0,0.1,0.1,0.3,0.3,0.3l0,0l0,0h2.7c0.1,0,0.3-0.1,0.3-0.3l0,0l0-8.4
					c0-2.1-1.8-3.8-3.9-3.8c-1.5,0-2.8,0.8-3.5,2v-1.8c0,0,0,0,0,0c0-0.1-0.1-0.3-0.3-0.3h-2.7c-0.1,0-0.3,0.1-0.3,0.3v11.9
					c0,0.1,0.1,0.3,0.3,0.3h2.7c0.1,0,0.3-0.1,0.3-0.3l0-7.1l0,0c0-1.1,1-2,2.1-2C39.7,65.2,40.6,66.1,40.6,67.3"/>
			</g>
			<path class="st0" d="M24.4,62.1c-3.5,0-6.4,2.8-6.4,6.2c0,3.4,2.9,6.2,6.4,6.2c3.5,0,6.4-2.8,6.4-6.2
				C30.8,64.9,27.9,62.1,24.4,62.1z M24.4,71.6c-1.8,0-3.3-1.5-3.3-3.3c0-1.8,1.5-3.3,3.3-3.3c1.8,0,3.3,1.5,3.3,3.3
				C27.7,70.2,26.2,71.6,24.4,71.6z"/>
			<path class="st0" d="M0,58.6v15.7c0,0.1,0.1,0.3,0.3,0.3H3c0.1,0,0.3-0.1,0.3-0.3v-9.5l3.4,5.5l0,0c0,0.1,0.1,0.1,0.2,0.1l0,0
				l1.8,0l0,0c0.1,0,0.1,0,0.2-0.1l0,0l3.5-5.5l0,9.5l0,0c0,0.1,0.1,0.3,0.3,0.3v0h2.7l0,0c0.1,0,0.3-0.1,0.3-0.3l0,0V58.6l0,0l0,0
				c0-0.1-0.1-0.3-0.3-0.3h-2.7c-0.1,0-0.2,0.1-0.2,0.1l0,0l-4.6,8l-4.6-8l0,0c0-0.1-0.1-0.1-0.2-0.1H0.3C0.1,58.3,0,58.5,0,58.6"/>
			<path class="st0" d="M59.3,74.2l-4.8-11.9c0-0.1-0.1-0.2-0.2-0.2h-2.7c-0.1,0-0.2,0.1-0.2,0.1l0,0c0,0,0,0,0,0l-4.9,11.9l0,0
				c0,0,0,0.1,0,0.1c0,0.1,0.1,0.3,0.3,0.3h2.7c0.1,0,0.2-0.1,0.2-0.2h0l0.6-1.7c0.8,0.3,1.7,0.5,2.7,0.5c1,0,1.9-0.2,2.6-0.5
				l0.7,1.7c0,0.1,0.1,0.2,0.2,0.2h2.7c0.1,0,0.3-0.1,0.3-0.3C59.3,74.3,59.3,74.2,59.3,74.2z M52.8,70.4c-0.6,0-1.2-0.1-1.7-0.3
				l1.4-3.7l0,0c0-0.1,0.1-0.2,0.3-0.2c0.1,0,0.2,0.1,0.3,0.2l0,0l1.5,3.8C53.9,70.3,53.4,70.4,52.8,70.4z"/>
			<path class="st0" d="M64.8,62.1H62c-0.1,0-0.3,0.1-0.3,0.3v11.9c0,0.1,0.1,0.3,0.3,0.3h2.7c0.1,0,0.3-0.1,0.3-0.3V62.4
				C65,62.2,64.9,62.1,64.8,62.1z"/>
			<path class="st0" d="M64.8,58.3H62c-0.1,0-0.3,0.1-0.3,0.3v1.8c0,0.1,0.1,0.3,0.3,0.3h2.7c0.1,0,0.3-0.1,0.3-0.3v-1.8
				C65,58.5,64.9,58.3,64.8,58.3z"/>
			<path class="st0" d="M77.8,65L77.8,65L77.8,65c0,0.1,0,0.1-0.1,0.2l0,0l-6.1,6.4l5.9,0c0.1,0,0.3,0.1,0.3,0.3l0,0l0,2.6l0,0
				c0,0,0,0,0,0c0,0.1-0.1,0.3-0.3,0.3h-9.8c-0.1,0-0.3-0.1-0.3-0.3l0-2.6c0-0.1,0-0.1,0.1-0.2l0,0l5.9-6.3l-5.7,0l0,0
				c-0.1,0-0.3-0.1-0.3-0.3l0-2.6c0-0.1,0.1-0.3,0.3-0.3h9.8c0.1,0,0.3,0.1,0.3,0.3L77.8,65L77.8,65z"/>
			<path class="st0" d="M91.3,64.7L91.3,64.7c-1.1-1.6-2.9-2.6-4.9-2.6c-2,0-3.8,1.1-4.9,2.7h0c-0.8,1-1.2,2.3-1.2,3.6
				c0,3.4,3,6.2,6.6,6.2c1.9,0,3.6-0.8,4.8-2l0,0c0,0,0,0,0,0l0,0c0,0,0.1-0.1,0.1-0.2c0-0.1,0-0.1-0.1-0.2v0l-1.5-1.5
				c-0.1-0.1-0.1-0.1-0.2-0.1c-0.1,0-0.1,0-0.2,0.1c0,0,0,0,0,0c-0.6,0.6-1.6,1.1-2.7,1.1c-1.8,0-3.3-1-3.3-2.3h8.5
				c0.2,0,0.3-0.1,0.3-0.3v-0.9C92.5,67,92.1,65.7,91.3,64.7z M83.7,67.4c0-1.4,1.2-2.5,2.7-2.5c1.5,0,2.7,1.1,2.7,2.5H83.7z"/>
		</g>
	</g>
</g>
</svg>
