<?xml version="1.0" encoding="utf-8"?>
<!-- Generator: Adobe Illustrator 21.0.0, SVG Export Plug-In . SVG Version: 6.00 Build 0)  -->
<svg version="1.1" id="Calque_1" xmlns="http://www.w3.org/2000/svg" xmlns:xlink="http://www.w3.org/1999/xlink" x="0px" y="0px"
	 width="30px" height="30px" viewBox="0 0 30 30" style="enable-background:new 0 0 30 30;" xml:space="preserve">
<style type="text/css">
	.st0{opacity:0.3;fill:#7D3A8B;}
	.st1{fill:none;}
	.st2{fill:#7D3A8B;}
</style>
<g>
	<path class="st0" d="M15,29.7C6.9,29.7,0.3,23.1,0.3,15C0.3,6.9,6.9,0.3,15,0.3S29.7,6.9,29.7,15C29.7,23.1,23.1,29.7,15,29.7z
		 M15,1.3C7.5,1.3,1.3,7.5,1.3,15c0,7.5,6.1,13.7,13.7,13.7S28.7,22.5,28.7,15C28.7,7.5,22.5,1.3,15,1.3z"/>
	<g>
		<path class="st1" d="M19.8,11.9H9.8l1.3,4.2c0.1,0.3,0.2,0.4,0.2,0.4s0,0,0,0h7.1c0.4-1.2,0.9-2.8,1.2-3.9
			C19.6,12.4,19.7,12.2,19.8,11.9z"/>
		<path class="st2" d="M11.1,21c0,0.9,1.3,0.9,1.3,0C12.5,20.1,11.1,20.1,11.1,21z"/>
		<path class="st2" d="M16.7,21c0,0.9,1.3,0.9,1.3,0C18,20.1,16.7,20.1,16.7,21z"/>
		<path class="st2" d="M20.9,8.4l-0.1,0.3c0,0-0.4,1.2-0.8,2.5H8.9l1.6,5.1c0.2,0.6,0.4,0.9,0.9,0.9h6.8c-0.1,0.2-0.1,0.3-0.1,0.5
			l-0.2,0.6c-0.1,0.4-0.3,0.6-0.9,0.6h-6.3v0.9h6.3c0.9,0,1.5-0.4,1.7-1.2l0.2-0.6c0.4-1.2,1.2-3.6,1.6-5.1c0.4-1.4,0.9-3,1.1-3.6
			h1.4V8.4H20.9z M11.3,16.5C11.3,16.5,11.3,16.5,11.3,16.5c0,0-0.1-0.1-0.2-0.4l-1.3-4.2h9.9c-0.1,0.2-0.1,0.5-0.2,0.7
			c-0.3,1.1-0.8,2.7-1.2,3.9H11.3z"/>
	</g>
</g>
</svg>
