<?xml version="1.0" encoding="utf-8"?>
<!-- Generator: Adobe Illustrator 21.0.0, SVG Export Plug-In . SVG Version: 6.00 Build 0)  -->
<svg version="1.1" id="Calque_2" xmlns="http://www.w3.org/2000/svg" xmlns:xlink="http://www.w3.org/1999/xlink" x="0px" y="0px"
	 width="34px" height="34px" viewBox="0 0 34 34" style="enable-background:new 0 0 34 34;" xml:space="preserve">
<style type="text/css">
	.st0{fill:#7C398A;***REMOVED***
</style>
<g>
	<path class="st0" d="M17,1.4C8.4,1.4,1.4,8.4,1.4,17s7,15.6,15.6,15.6s15.6-7,15.6-15.6S25.6,1.4,17,1.4z M20.8,17.7l-6.2,6.2
		c-0.2,0.2-0.4,0.3-0.7,0.3c-0.3,0-0.5-0.1-0.7-0.3C13,23.7,13,23.5,13,23.2c0-0.3,0.1-0.5,0.3-0.7l5.5-5.5l-5.5-5.5
		c-0.4-0.4-0.4-1,0-1.3c0.4-0.4,1-0.4,1.3,0l6.2,6.2c0.2,0.2,0.3,0.4,0.3,0.7S20.9,17.5,20.8,17.7z"/>
</g>
</svg>
