<?xml version="1.0" encoding="utf-8"?>
<!-- Generator: Adobe Illustrator 21.0.0, SVG Export Plug-In . SVG Version: 6.00 Build 0)  -->
<svg version="1.1" id="Calque_1" xmlns="http://www.w3.org/2000/svg" xmlns:xlink="http://www.w3.org/1999/xlink" x="0px" y="0px"
	 width="24px" height="24px" viewBox="0 0 24 24" style="enable-background:new 0 0 24 24;" xml:space="preserve">
<style type="text/css">
	.st0{fill:#BEBEBE;}
	.st1{fill:#FFFFFF;}
</style>
<g>
	<path class="st0" d="M12,1C5.9,1,1,5.9,1,12c0,6.1,4.9,11,11,11c6.1,0,11-4.9,11-11C23,5.9,18.1,1,12,1z M16.4,17.1h-9l0.9-3.5
		L7,14.1l0.4-1.6L8.7,12l1.6-5.9h3.4l-1.2,4.5l1.7-0.6l0,0l-0.4,1.6l-1.7,0.6l-0.7,2.7H17L16.4,17.1z"/>
	<polygon class="st1" points="12.1,12.2 13.8,11.6 14.2,10.1 14.2,10 12.5,10.6 13.7,6.1 10.3,6.1 8.7,12 7.4,12.5 7,14.1 8.3,13.6 
		7.4,17.1 16.4,17.1 17,14.9 11.4,14.9 	"/>
</g>
</svg>
