<?xml version="1.0" encoding="utf-8"?>
<!-- Generator: Adobe Illustrator 21.0.0, SVG Export Plug-In . SVG Version: 6.00 Build 0)  -->
<svg version="1.1" id="Calque_1" xmlns="http://www.w3.org/2000/svg" xmlns:xlink="http://www.w3.org/1999/xlink" x="0px" y="0px"
	 width="30.9px" height="20.2px" viewBox="0 0 30.9 20.2" style="enable-background:new 0 0 30.9 20.2;" xml:space="preserve">
<style type="text/css">
	.st0{opacity:0.5;fill:#FFFFFF;}
	.st1{opacity:0.4;fill:#FFFFFF;}
</style>
<g>
	<path class="st0" d="M14.3,4.8c0.9,0,1.6,0.7,1.6,1.6c0,0.4-0.2,0.8-0.5,1.1C15.1,7.8,14.7,8,14.3,8c-8.8,0-0.6,0-9.4,0
		c0.8,0.8,1.7,1.6,2.5,2.4c0.2,0.2,0.4,0.5,0.4,0.9c0,0,0,0,0,0c0,1.1-1.3,1.6-2,0.8c-1.8-1.9-3.7-3.8-5.5-5.7c0,0,0-0.1,0-0.1
		c1.8-1.9,3.7-3.8,5.5-5.7c0.7-0.8,2-0.2,2,0.8v0c0,0.3-0.1,0.6-0.4,0.9C6.5,3.2,5.7,4,4.8,4.8L14.3,4.8L14.3,4.8z"/>
	<path class="st1" d="M16.6,15.3c-0.9,0-1.6-0.7-1.6-1.6c0-0.4,0.2-0.8,0.5-1.1c0.3-0.3,0.7-0.5,1.1-0.5c8.8,0,0.6,0,9.4,0
		c-0.8-0.8-1.7-1.6-2.5-2.4c-0.2-0.2-0.4-0.5-0.4-0.9c0,0,0,0,0,0c0-1.1,1.3-1.6,2-0.8c1.8,1.9,3.7,3.8,5.5,5.7c0,0,0,0.1,0,0.1
		c-1.8,1.9-3.7,3.8-5.5,5.7c-0.7,0.8-2,0.2-2-0.8v0c0-0.3,0.1-0.6,0.4-0.9c0.9-0.8,1.7-1.7,2.6-2.5L16.6,15.3L16.6,15.3z"/>
</g>
</svg>
