<?xml version="1.0" encoding="utf-8"?>
<!-- Generator: Adobe Illustrator 21.0.0, SVG Export Plug-In . SVG Version: 6.00 Build 0)  -->
<svg version="1.1" id="Calque_1" xmlns="http://www.w3.org/2000/svg" xmlns:xlink="http://www.w3.org/1999/xlink" x="0px" y="0px"
	 width="78px" height="12px" viewBox="0 0 78 12" style="enable-background:new 0 0 78 12;" xml:space="preserve">
<style type="text/css">
	.st0{fill:#EAEBF5;***REMOVED***
	.st1{fill-rule:evenodd;clip-rule:evenodd;fill:#1E1738;***REMOVED***
</style>
<g>
	<g>
		<circle class="st0" cx="3.2" cy="6" r="2.4"/>
		<circle class="st0" cx="12.2" cy="6" r="2.4"/>
		<circle class="st0" cx="21.5" cy="6" r="2.4"/>
		<circle class="st0" cx="56.4" cy="6" r="2.4"/>
		<circle class="st0" cx="65.3" cy="6" r="2.4"/>
		<circle class="st0" cx="74.6" cy="6" r="2.4"/>
		<path class="st1" d="M43.8,6.5c0.3-0.3,0.3-0.7,0-1l-4.5-4.4c-0.5-0.5-1.3,0.3-0.8,0.8l3.4,3.4c0.1,0.1,0.1,0.2-0.1,0.2h-7.4
			c-0.3,0-0.6,0.3-0.6,0.6c0,0.3,0.3,0.6,0.6,0.6h7.4c0.2,0,0.2,0.1,0.1,0.2l-3.4,3.4c-0.5,0.5,0.3,1.3,0.8,0.8L43.8,6.5z"/>
	</g>
</g>
</svg>
