<?xml version="1.0" encoding="utf-8"?>
<!-- Generator: Adobe Illustrator 21.0.0, SVG Export Plug-In . SVG Version: 6.00 Build 0)  -->
<svg version="1.1" id="Calque_1" xmlns="http://www.w3.org/2000/svg" xmlns:xlink="http://www.w3.org/1999/xlink" x="0px" y="0px"
	 width="31px" height="28px" viewBox="0 0 31 28" style="enable-background:new 0 0 31 28;" xml:space="preserve">
<style type="text/css">
	.st0{fill:#A3A7AB;}
</style>
<path class="st0" d="M17.8,11.7c-0.6-0.6-1.4-0.9-2.3-0.9c-0.9,0-1.7,0.3-2.4,0.9c-0.6,0.7-0.9,1.5-0.9,2.4s0.3,1.7,0.9,2.3
	c0.7,0.6,1.5,0.9,2.4,0.9s1.7-0.3,2.3-0.9c0.6-0.6,0.9-1.4,0.9-2.3C18.7,13.2,18.4,12.4,17.8,11.7z M15.5,7.2c1.9,0,3.4,0.7,4.8,2
	c1.3,1.3,2,2.9,2,4.9c0,1.9-0.7,3.4-2,4.8c-1.3,1.3-2.9,2-4.8,2s-3.5-0.7-4.8-2c-1.3-1.3-2-2.9-2-4.8s0.7-3.5,2-4.9
	C12,7.9,13.6,7.2,15.5,7.2 M30.6,15.2c0.6-0.8,0.6-1.5,0-2.4c-4.9-5.6-10-8.5-15.1-8.5c-5,0-10,2.9-15.1,8.6c-0.6,0.9-0.6,1.7,0,2.3
	c1.5,1.9,3.4,3.7,5.7,5.3c3.2,2.1,6.3,3.2,9.4,3.2C20.6,23.7,25.6,20.8,30.6,15.2"/>
</svg>
