<?xml version="1.0" encoding="utf-8"?>
<!-- Generator: Adobe Illustrator 21.0.0, SVG Export Plug-In . SVG Version: 6.00 Build 0)  -->
<svg version="1.1" id="Calque_1" xmlns="http://www.w3.org/2000/svg" xmlns:xlink="http://www.w3.org/1999/xlink" x="0px" y="0px"
	 width="24px" height="24px" viewBox="0 0 24 24" style="enable-background:new 0 0 24 24;" xml:space="preserve">
<style type="text/css">
	.st0{fill:#5A8283;}
	.st1{fill:#FBBB33;}
	.st2{fill:#336565;}
	.st3{fill:#F8AA0C;}
</style>
<g id="Layer_x0020_1">
	<g id="_898344032">
		<path class="st0" d="M4.1,19.4l0.6,0.6c2.5,1,4.9,2.1,7.4,3.1v-4.5l-4.6-1.9L5.5,12l1.9-4.6L4.1,4.6L1,12L4.1,19.4z"/>
		<path class="st1" d="M12,1C9.5,2,7.1,3.1,4.6,4.1L4.1,4.6l3.3,2.7L12,5.5V1z"/>
		<polygon class="st0" points="12,7.4 8.7,8.7 7.4,12 8.7,15.3 12,16.6 		"/>
		<path class="st2" d="M12,23c2.5-1,4.9-2.1,7.4-3.1l0.6-0.6L23,12l-3.1-7.4l-3.3,2.7l1.9,4.6l-1.9,4.6L12,18.5V23z"/>
		<path class="st3" d="M19.9,4.6l-0.6-0.6C16.9,3.1,14.5,2,12,1v4.5l4.6,1.9L19.9,4.6z"/>
		<polygon class="st2" points="12,16.6 15.3,15.3 16.6,12 15.3,8.7 12,7.4 		"/>
	</g>
</g>
</svg>
