<?xml version="1.0" encoding="utf-8"?>
<!-- Generator: Adobe Illustrator 21.0.0, SVG Export Plug-In . SVG Version: 6.00 Build 0)  -->
<svg version="1.1" id="Calque_1" xmlns="http://www.w3.org/2000/svg" xmlns:xlink="http://www.w3.org/1999/xlink" x="0px" y="0px"
	 width="28.3px" height="28.3px" viewBox="0 0 28.3 28.3" style="enable-background:new 0 0 28.3 28.3;" xml:space="preserve">
<style type="text/css">
	.st0{fill:#BD9DC4;stroke:#BD9DC4;stroke-width:0.4781;stroke-miterlimit:10;}
	.st1{fill:#7D3A8B;}
</style>
<g>
	<path class="st0" d="M26.4,5.2c-0.3,0-0.5,0-0.8,0c0-0.8,0-1.6,0-2.4c-0.8,0-1.6,0-2.4,0c0-0.3,0-0.6,0-0.9c1.1,0,2.2,0,3.3,0
		C26.4,3,26.4,4.1,26.4,5.2z"/>
	<path class="st0" d="M1.9,23.2c0.3,0,0.5,0,0.8,0c0,0.8,0,1.6,0,2.4c0.8,0,1.6,0,2.4,0c0,0.3,0,0.6,0,0.9c-1.1,0-2.2,0-3.3,0
		C1.9,25.4,1.9,24.3,1.9,23.2z"/>
	<path class="st0" d="M5.2,1.9c0,0.3,0,0.5,0,0.8c-0.8,0-1.6,0-2.4,0c0,0.8,0,1.6,0,2.4c-0.3,0-0.6,0-0.9,0c0-1.1,0-2.2,0-3.3
		C3,1.9,4.1,1.9,5.2,1.9z"/>
	<path class="st0" d="M23.2,26.5c0-0.3,0-0.5,0-0.8c0.8,0,1.6,0,2.4,0c0-0.8,0-1.6,0-2.4c0.3,0,0.6,0,0.9,0c0,1.1,0,2.2,0,3.3
		C25.4,26.5,24.3,26.5,23.2,26.5z"/>
	<path class="st1" d="M22.7,18c0,0.3,0,0.7,0,1l0,0c-0.2,0-0.5,0-0.7,0c-0.4,0-0.7,0-1.1,0c0,0.3,0,0.6,0,0.9c-0.3,0-0.6,0-0.9,0
		c0,0.3,0,0.6,0,0.9c0.3,0,0.6,0,0.9,0c0,0.3,0,0.6,0,0.9c0.3,0,0.6,0,1,0c0-0.3,0-0.6,0-0.9c0.3,0,0.6,0,0.9,0c0,0.3,0,0.6,0,0.9
		c0.3,0,0.6,0,0.9,0c0,0.6,0,1.3,0,1.9c-0.6,0-1.2,0-1.9,0c0-0.3,0-0.6,0-0.9c-0.3,0-0.6,0-1,0c0,0.3,0,0.6,0,0.9c-1,0-1.9,0-2.8,0
		c0-0.3,0-0.6,0-0.9c-0.3,0-0.6,0-0.9,0c0,0.3,0,0.6,0,0.9c-0.3,0-0.6,0-0.9,0c0-0.6,0-1.2,0-1.9c0.6,0,1.2,0,1.9,0
		c0-0.3,0-0.6,0-0.9c0.3,0,0.6,0,0.9,0c0-0.6,0-1.3,0-1.9c-0.3,0-0.6,0-0.9,0c0-0.3,0-0.6,0-0.9c-0.3,0-0.6,0-0.9,0
		c0-0.3,0-0.6,0-0.9c0.3,0,0.6,0,0.9,0c0-0.3,0-0.6,0-0.9c-0.6,0-1.2,0-1.9,0c0-0.3,0-0.6,0-1c-0.3,0-0.6,0-1,0c0-0.3,0-0.6,0-0.9
		c0.3,0,0.6,0,0.9,0c0-0.3,0-0.6,0-1c0.3,0,0.6,0,0.9,0c0-0.3,0-0.6,0-0.9c0.3,0,0.6,0,0.9,0c0,0.9,0,1.9,0,2.8c0.3,0,0.6,0,0.9,0
		c0,0.3,0,0.6,0,0.9c0.3,0,0.6,0,1,0c0-0.3,0-0.6,0-0.9c0.3,0,0.6,0,0.9,0c0-0.3,0-0.6,0-0.9c-0.6,0-1.2,0-1.9,0c0-0.3,0-0.6,0-0.9
		c0.3,0,0.6,0,0.9,0c0-0.3,0-0.6,0-0.9c0.3,0,0.6,0,0.9,0c0,0.3,0,0.6,0,0.9c0.3,0,0.6,0,1,0c0-0.3,0-0.6,0-0.9c0.3,0,0.6,0,1,0
		c0,0.3,0,0.6,0,0.9c0.3,0,0.6,0,0.9,0c0,0.3,0,0.6,0,0.9c-0.6,0-1.2,0-1.9,0c0,0.6,0,1.3,0,1.9c0.3,0,0.6,0,0.9,0c0,0.3,0,0.6,0,1
		l0,0c-0.3,0-0.6,0-0.9,0c0,0.3,0,0.6,0,0.9C22.1,18,22.4,18,22.7,18L22.7,18z M20.8,18c0-0.3,0-0.6,0-0.9c-0.6,0-1.2,0-1.9,0
		c0,0.3,0,0.6,0,0.9C19.5,18,20.2,18,20.8,18z M19.8,22.7c0-0.3,0-0.6,0-0.9c-0.3,0-0.6,0-0.9,0c0,0.3,0,0.6,0,0.9
		C19.2,22.7,19.5,22.7,19.8,22.7z"/>
	<path class="st1" d="M11.3,4.7c0,2.2,0,4.4,0,6.5c-2.2,0-4.4,0-6.5,0c0-2.2,0-4.4,0-6.5C6.9,4.7,9.1,4.7,11.3,4.7z M10.4,5.6
		c-1.6,0-3.2,0-4.8,0c0,1.6,0,3.2,0,4.8c1.6,0,3.2,0,4.8,0C10.4,8.8,10.4,7.2,10.4,5.6z"/>
	<path class="st1" d="M23.6,11.3c-2.2,0-4.4,0-6.5,0c0-2.2,0-4.4,0-6.6c2.2,0,4.4,0,6.5,0C23.6,6.9,23.6,9.1,23.6,11.3z M22.8,10.4
		c0-1.6,0-3.2,0-4.8c-1.6,0-3.2,0-4.8,0c0,1.6,0,3.2,0,4.8C19.6,10.4,21.2,10.4,22.8,10.4z"/>
	<path class="st1" d="M11.2,23.7c-2.2,0-4.4,0-6.5,0c0-2.2,0-4.4,0-6.6c2.2,0,4.4,0,6.5,0C11.2,19.3,11.2,21.5,11.2,23.7z M5.6,18
		c0,1.6,0,3.2,0,4.8c1.6,0,3.2,0,4.8,0c0-1.6,0-3.2,0-4.8C8.8,18,7.2,18,5.6,18z"/>
	<path class="st1" d="M10.4,15.1c0-0.3,0-0.6,0-0.9c-0.7,0-1.3,0-1.9,0c0,0.6,0,1.2,0,1.9c-0.3,0-0.6,0-0.9,0c0-0.9,0-1.9,0-2.8
		c-0.6,0-1.3,0-1.9,0c0-0.3,0-0.6,0-0.9c0.9,0,1.9,0,2.8,0c0,0.3,0,0.6,0,0.9c1,0,1.9,0,2.8,0c0-0.3,0-0.6,0-0.9c0.3,0,0.6,0,0.9,0
		c0-0.3,0-0.6,0-0.9c0.3,0,0.6,0,1,0c0,0.6,0,1.3,0,1.9l0,0c-0.3,0-0.6,0-1,0c0,0.6,0,1.2,0,1.9C11.6,15.1,11,15.1,10.4,15.1
		L10.4,15.1z"/>
	<path class="st1" d="M14.2,9.4c-0.3,0-0.6,0-0.9,0c0-0.3,0-0.6,0-0.9c-0.3,0-0.6,0-0.9,0c0-1.3,0-2.5,0-3.8c0.3,0,0.6,0,0.9,0
		c0,0.3,0,0.6,0,0.9c0.6,0,1.2,0,1.9,0c0,0,0,0,0,0c0,0,0,0.1,0,0.1c0,0.9,0,1.9,0,2.8l0,0c-0.3,0-0.6,0-0.9,0
		C14.2,8.8,14.2,9.1,14.2,9.4L14.2,9.4z M13.2,7.5c0.3,0,0.6,0,0.9,0c0-0.3,0-0.6,0-0.9c-0.3,0-0.6,0-0.9,0
		C13.2,6.9,13.2,7.2,13.2,7.5z"/>
	<path class="st1" d="M15.1,17.9c0,0.3,0,0.6,0,1c-0.6,0-1.3,0-1.9,0c0,0.3,0,0.6,0,0.9l0,0c-0.3,0-0.6,0-1,0c0-0.9,0-1.9,0-2.8
		c0.3,0,0.6,0,0.9,0c0-0.3,0-0.6,0-0.9c0.3,0,0.6,0,0.9,0c0,0.6,0,1.2,0,1.8C14.5,18,14.8,18,15.1,17.9L15.1,17.9z"/>
	<path class="st1" d="M13.2,19.9c0.6,0,1.2,0,1.9,0c0,0.3,0,0.6,0,0.9c0.3,0,0.6,0,0.9,0c0,0.3,0,0.6,0,0.9c-0.3,0-0.6,0-0.9,0
		c0,0.6,0,1.3,0,1.9c-0.3,0-0.6,0-0.9,0c0-0.3,0-0.6,0-0.9c-0.3,0-0.6,0-0.9,0c0-0.3,0-0.6,0-1c0.3,0,0.6,0,0.9,0c0-0.3,0-0.6,0-1
		c-0.3,0-0.6,0-0.9,0c0,0,0,0,0,0C13.2,20.5,13.2,20.2,13.2,19.9C13.3,19.9,13.2,19.9,13.2,19.9z"/>
	<path class="st1" d="M13.2,13.3c0.3,0,0.5,0,0.8,0c0-0.3,0-0.6,0-1c0.3,0,0.6,0,0.9,0c0,0.3,0,0.6,0,0.9c-0.3,0-0.5,0-0.8,0
		c0,0.6,0,1.3,0,1.9c-0.3,0-0.6,0-0.9,0C13.2,14.5,13.2,13.9,13.2,13.3C13.2,13.3,13.2,13.3,13.2,13.3z"/>
	<path class="st1" d="M5.6,16.1c0-0.3,0-0.6,0-0.9c-0.3,0-0.6,0-0.9,0c0-0.3,0-0.6,0-0.9c0.6,0,1.2,0,1.9,0c0,0.2,0,0.3,0,0.5
		c0,0.4,0,0.8,0,1.2c0,0.1,0,0.2-0.1,0.2C6.2,16.1,5.9,16.1,5.6,16.1z"/>
	<path class="st1" d="M13.2,20.8c0,0.3,0,0.6,0,0.9c-0.3,0-0.6,0-1,0c0-0.3,0-0.6,0-0.9C12.6,20.8,12.9,20.8,13.2,20.8
		C13.2,20.8,13.2,20.8,13.2,20.8z"/>
	<path class="st1" d="M10.4,15.1c0,0.3,0,0.6,0,1c-0.3,0-0.6,0-0.9,0c0-0.3,0-0.6,0-1C9.8,15.1,10.1,15.1,10.4,15.1
		C10.4,15.1,10.4,15.1,10.4,15.1z"/>
	<path class="st1" d="M13.2,9.5c0,0.3,0,0.6,0,0.9c-0.3,0-0.6,0-0.9,0c0-0.3,0-0.6,0-0.9C12.6,9.5,12.9,9.5,13.2,9.5z"/>
	<path class="st1" d="M15.1,5.6c0-0.3,0-0.6,0-0.9c0.3,0,0.6,0,0.9,0c0,0.3,0,0.6,0,0.9C15.7,5.6,15.4,5.6,15.1,5.6
		C15.1,5.6,15.1,5.6,15.1,5.6z"/>
	<path class="st1" d="M15.1,8.5c0.3,0,0.6,0,1,0c0,0.3,0,0.6,0,0.9c-0.3,0-0.6,0-1,0l0,0C15.1,9.1,15.1,8.8,15.1,8.5L15.1,8.5z"/>
	<path class="st1" d="M15.1,18c0-0.3,0-0.6,0-0.9c0.3,0,0.6,0,1,0c0,0.3,0,0.6,0,0.9C15.7,17.9,15.4,17.9,15.1,18
		C15.1,17.9,15.1,18,15.1,18z"/>
	<path class="st1" d="M15.1,10.4c-0.3,0-0.6,0-0.9,0c0-0.4,0-0.7,0-1c0,0,0,0,0,0c0.3,0,0.6,0,0.9,0c0,0,0,0,0,0
		C15.1,9.8,15.1,10.1,15.1,10.4C15.1,10.4,15.1,10.4,15.1,10.4z"/>
	<path class="st1" d="M15.1,10.4c0.3,0,0.6,0,1,0c0,0.3,0,0.6,0,0.9c-0.3,0-0.6,0-0.9,0C15.1,11,15.1,10.7,15.1,10.4
		C15.1,10.4,15.1,10.4,15.1,10.4z"/>
	<path class="st1" d="M17,19.9c0-0.3,0-0.6,0-0.9c0.3,0,0.6,0,0.9,0c0,0.3,0,0.6,0,0.9C17.6,19.9,17.3,19.9,17,19.9z"/>
	<path class="st1" d="M22.7,19c0.3,0,0.6,0,0.9-0.1c0,0.3,0,0.6,0,1c-0.3,0-0.6,0-0.9,0C22.7,19.6,22.7,19.3,22.7,19
		C22.7,19,22.7,19,22.7,19z"/>
	<path class="st1" d="M22.7,17c0.3,0,0.6,0,0.9,0c0,0.3,0,0.6,0,0.9c-0.3,0-0.6,0-0.9,0c0,0,0,0,0,0C22.7,17.7,22.7,17.3,22.7,17
		L22.7,17z"/>
	<path class="st1" d="M7,8.9c0-0.6,0-1.2,0-1.9c0.6,0,1.3,0,1.9,0c0,0.6,0,1.2,0,1.9C8.3,8.9,7.7,8.9,7,8.9z"/>
	<path class="st1" d="M21.3,7.1c0,0.6,0,1.2,0,1.9c-0.6,0-1.2,0-1.9,0c0-0.6,0-1.2,0-1.9C20,7.1,20.7,7.1,21.3,7.1z"/>
	<path class="st1" d="M8.9,19.4c0,0.6,0,1.3,0,1.9c-0.6,0-1.2,0-1.9,0c0-0.6,0-1.2,0-1.9C7.7,19.4,8.3,19.4,8.9,19.4z"/>
</g>
</svg>
