<?xml version="1.0" encoding="utf-8"?>
<!-- Generator: Adobe Illustrator 21.0.0, SVG Export Plug-In . SVG Version: 6.00 Build 0)  -->
<svg version="1.1" id="Calque_1" xmlns="http://www.w3.org/2000/svg" xmlns:xlink="http://www.w3.org/1999/xlink" x="0px" y="0px"
	 width="184px" height="154px" viewBox="0 0 184 154" style="enable-background:new 0 0 184 154;" xml:space="preserve">
<style type="text/css">
	.st0{opacity:0.25;}
	.st1{fill:none;}
	.st2{fill:#DFE2EC;}
	.st3{fill:#FFFFFF;}
	.st4{fill:none;stroke:#DFE2EC;stroke-width:2.7111;stroke-linecap:round;stroke-linejoin:round;stroke-miterlimit:10;}
	.st5{fill:none;stroke:#DFE2EC;stroke-width:2;stroke-linecap:round;stroke-linejoin:round;stroke-miterlimit:10;}
	.st6{fill:#7C328A;}
	.st7{fill:#7C328A;stroke:#7C348B;stroke-width:0.25;stroke-linejoin:round;stroke-miterlimit:10;}
</style>
<g>
	<g class="st0">
		<polygon class="st1" points="69.1,149.5 69.1,149.5 69.4,149.2 		"/>
		<polygon class="st1" points="38,134.4 38.1,134.4 56.7,120.5 		"/>
		<path class="st1" d="M133.2,124.7c0.2,0,0.5-0.1,0.7-0.3L133.2,124.7z"/>
		<polygon class="st1" points="119.7,145 126,148 126.1,147.9 		"/>
		<path class="st2" d="M85,101.4c0-0.4-0.2-0.7-0.6-0.9l-30-15.5c-0.4-0.2-0.8-0.1-1.1,0.1l-33.2,24.8l-8.1-1.2
			c-0.3-0.1-0.7,0.1-0.9,0.3c-0.2,0.2-0.3,0.6-0.3,0.9l1.1,6.1l-4.4,3.3c-0.3,0.2-0.5,0.6-0.4,0.9c0,0.4,0.2,0.7,0.6,0.9l30,15.5
			c0.2,0.1,0.3,0.1,0.5,0.1c0.2,0,0.4-0.1,0.6-0.2l45.8-34.2C84.9,102.1,85,101.8,85,101.4z M38.1,134.4L38.1,134.4l18.6-13.9
			L38.1,134.4z"/>
		<path class="st2" d="M148.8,130.5l-6.6-3.1l-0.8-6.7c0-0.3-0.2-0.6-0.5-0.8c-0.3-0.2-0.6-0.2-0.9-0.1l-7.6,3l-41.2-19.6
			c-0.4-0.2-0.8-0.1-1.1,0.1l-23.1,17.4c-0.3,0.2-0.5,0.6-0.4,1c0,0.4,0.3,0.7,0.6,0.8l58.4,27.8c0.1,0.1,0.3,0.1,0.5,0.1
			c0.2,0,0.5-0.1,0.7-0.2l22.2-17.8c0.3-0.2,0.4-0.6,0.4-0.9C149.3,130.9,149.1,130.6,148.8,130.5z M133.8,124.4
			c-0.2,0.1-0.5,0.2-0.7,0.3L133.8,124.4z M119.7,145l6.4,2.9L126,148L119.7,145z"/>
		<path class="st2" d="M87.5,136.4l-24.3-11.6c-0.4-0.2-0.8-0.1-1.1,0.1l-17.7,13.2c-0.3,0.2-0.5,0.6-0.4,0.9c0,0.4,0.3,0.7,0.6,0.9
			l24.2,11.7c0.1,0.1,0.3,0.1,0.5,0.1c0.2,0,0.4-0.1,0.6-0.2l5.4-4.1l5.3,0.5c0,0,0.1,0,0.1,0c0.3,0,0.5-0.1,0.7-0.3
			c0.2-0.2,0.3-0.5,0.3-0.8l-0.3-4l6.2-4.6c0.3-0.2,0.5-0.6,0.4-1C88,136.9,87.8,136.6,87.5,136.4z M69.1,149.5L69.1,149.5l0.3-0.2
			L69.1,149.5z"/>
	</g>
	<g>
		<polygon class="st3" points="2.9,46 2,50.2 41.5,69.8 99.6,26 97.4,22.1 60.5,2.2 17.1,34.3 6.5,32.7 8.5,40.4 		"/>
		<polygon class="st3" points="49,70.2 49.6,74.2 80.1,89.1 91.2,80.8 103.4,71.8 102.9,68.1 71.7,53.3 		"/>
		<polygon class="st3" points="78.2,52.2 153.4,88.3 182.2,64.1 180.8,60.1 171.8,56.2 170.2,47.2 157.2,50.1 108.3,26.3 79.6,47.7 
					"/>
		<g>
			<polyline class="st4" points="17.5,34.3 60.5,2.2 99,22.1 40.3,65.9 1.8,46 8.1,41.3 			"/>
			<polyline class="st4" points="172.4,56.2 181.5,60.5 153.1,83.3 78.2,47.7 107.8,25.4 161.1,50.8 			"/>
			<polyline class="st4" points="87.1,80 80.1,85.2 49,70.2 71.7,53.3 102.9,68.1 94.4,74.5 			"/>
			<polyline class="st5" points="40.3,65.9 40.5,70.2 99,26.5 99,22.1 			"/>
			<polyline class="st5" points="40.5,70.2 2,50.2 1.8,46 			"/>
			<polyline class="st4" points="8.1,41.3 6.5,32.7 17.5,34.3 			"/>
			<polyline class="st4" points="161.1,50.8 171.4,46.8 172.4,56.2 			"/>
			<polyline class="st5" points="78.2,47.7 78.2,51.8 153.4,88.1 153.1,83.3 			"/>
			<polyline class="st5" points="153.4,88.3 181.6,65.6 181.5,60.5 			"/>
			<polyline class="st5" points="49,70.2 49,73.9 80.1,89.1 80.1,85.2 			"/>
			<polyline class="st5" points="95.3,77.7 102.9,72 102.9,68.1 			"/>
			<line class="st5" x1="80.1" y1="89.1" x2="91.2" y2="80.8"/>
			<polyline class="st4" points="87.5,79.7 94.8,80.4 94.4,74.5 			"/>
		</g>
	</g>
	<g>
		<path class="st6" d="M157.1,60.4l-1.3,1.3l-3.3-1.9l1.3-1.3c0.6-0.5,0.5-1.3-0.3-1.7c-0.6-0.4-1.7-0.3-2.2,0.2l-1.3,1.3l-1.9-1
			c-0.6-0.4-1.7-0.3-2.2,0.2c-0.6,0.5-0.5,1.3,0.3,1.7l1.7,1l-2.7,2.6l-1.7-1c-0.6-0.4-1.7-0.3-2.2,0.2c-0.5,0.6-0.2,1.3,0.4,1.8
			l1.7,1l-1.3,1.3c-0.5,0.6-0.3,1.2,0.3,1.5c0.5,0.3,1.3,0.4,1.9,0.1c0.2,0,0.3-0.1,0.4-0.2l1.3-1.3l3.2,1.8l-1.3,1.3
			c-0.6,0.5-0.5,1.3,0.3,1.7c0.5,0.3,1.3,0.4,1.9,0.1c0.2,0,0.3-0.1,0.4-0.2l1.3-1.3l1.5,0.7c0.5,0.3,1.3,0.4,1.9,0.1
			c0.2,0,0.3-0.1,0.4-0.2c0.6-0.5,0.5-1.3-0.3-1.7l-1.7-1l2.7-2.6l1.7,1c0.5,0.3,1.3,0.4,1.9,0.1c0.2,0,0.3-0.1,0.4-0.2
			c0.6-0.5,0.5-1.3-0.3-1.7l-1.7-1l1.3-1.3c0.5-0.6,0.3-1.2-0.3-1.7C158.7,59.8,157.6,59.9,157.1,60.4z M151.1,66.3l-3.3-1.9
			l2.7-2.6l3.3,1.9L151.1,66.3z"/>
	</g>
	<g>
		<polygon class="st3" points="71.7,18.3 58.7,38.9 49.3,32 46.5,37.4 46.5,30 42.5,26.8 		"/>
		<g>
			<path class="st6" d="M46.5,38.9c-0.1,0-0.1,0-0.2,0c-0.5-0.1-0.8-0.5-0.8-1v-8.2c0-0.4,0.2-0.7,0.6-0.9l26.4-12.2
				c0.5-0.2,1.1,0,1.3,0.4c0.2,0.5,0.1,1-0.4,1.3L50.1,32.6l-2.6,5.7C47.3,38.7,46.9,38.9,46.5,38.9z M47.5,30.4v3l0.8-1.8
				c0.1-0.2,0.2-0.3,0.4-0.4l8.7-5.3L47.5,30.4z"/>
			<path class="st6" d="M46.5,30.7c-0.2,0-0.4-0.1-0.6-0.2l-4-2.9c-0.3-0.2-0.5-0.6-0.4-1c0.1-0.4,0.3-0.7,0.7-0.8l30.4-9.3
				c0.5-0.2,1.1,0.1,1.2,0.7c0.2,0.5-0.1,1.1-0.7,1.2l-28.5,8.7l2.4,1.7c0.4,0.3,0.5,0.9,0.2,1.4C47.1,30.6,46.8,30.7,46.5,30.7z"/>
			<path class="st6" d="M58.7,39.9c-0.2,0-0.4-0.1-0.6-0.2l-9.5-7c-0.4-0.3-0.5-1-0.2-1.4c0.3-0.4,1-0.5,1.4-0.2l8.6,6.4L72.1,17
				c0.3-0.5,0.9-0.6,1.4-0.3c0.5,0.3,0.6,0.9,0.3,1.4L59.6,39.5c-0.2,0.2-0.4,0.4-0.7,0.4C58.9,39.9,58.8,39.9,58.7,39.9z"/>
			<polygon class="st6" points="47.2,38.5 51.7,33.8 48.9,32.5 			"/>
		</g>
	</g>
	<g>
		<path class="st7" d="M83,72.4c-1.7,1.8-4,2.3-5.7,1.4c-0.9-0.5-1.4-1.2-0.9-1.9l0.1-0.2c-1.2,0.4-2.4,0.2-3.2-0.3
			c-1.7-0.9-2.4-3-0.8-4.7c1.4-1.6,3.9-2.2,5.8-1.1c1.2,0.7,1.4,1.8,1.4,1.9l0.6-0.6l1.9,1L78.3,72c-0.4,0.4-0.3,0.7,0,0.9
			c0.7,0.4,2-0.1,3.1-1.3c2.1-2.3,1.9-5.2-1.4-6.9c-3-1.6-7-1-9.2,1.3c-2.1,2.3-1.4,5.2,1.5,6.8c0.9,0.5,2.3,0.9,3.6,0.9l-0.2,1.4
			c-1.4,0-3.3-0.5-4.5-1.1c-3.8-2.1-4.7-5.8-2-8.7c2.7-3,7.9-3.6,11.7-1.5C84.9,65.7,85.7,69.4,83,72.4z M74.5,67.8
			c-0.8,0.8-0.8,1.9,0.1,2.4c1,0.5,2.2,0.2,3-0.7c0.7-0.8,0.7-1.8-0.3-2.3C76.4,66.6,75.2,67,74.5,67.8z"/>
	</g>
</g>
</svg>
