<?xml version="1.0" encoding="utf-8"?>
<!-- Generator: Adobe Illustrator 21.0.0, SVG Export Plug-In . SVG Version: 6.00 Build 0)  -->
<svg version="1.1" id="Calque_1" xmlns="http://www.w3.org/2000/svg" xmlns:xlink="http://www.w3.org/1999/xlink" x="0px" y="0px"
	 width="8.1px" height="15.4px" viewBox="0 0 8.1 15.4" style="enable-background:new 0 0 8.1 15.4;" xml:space="preserve">
<style type="text/css">
	.st0{fill:#999999;}
</style>
<path class="st0" d="M4,0C3.8,0,3.6,0.2,3.6,0.4v2H2.9C1.3,2.4,0,3.6,0,5.2c0,1.6,1.3,2.9,2.9,2.9h2.3c1.1,0,2.1,0.9,2.1,2.1
	s-0.9,2.1-2.1,2.1h-4c-0.2,0-0.4,0.2-0.4,0.4c0,0.2,0.2,0.4,0.4,0.4h2.5v2c0,0.2,0.2,0.4,0.4,0.4s0.4-0.2,0.4-0.4v-2h0.8
	C6.7,13,8,11.7,8,10.2c0-1.6-1.3-2.9-2.9-2.9H2.9c-1.1,0-2.1-0.9-2.1-2.1s0.9-2.1,2.1-2.1h4c0.2,0,0.4-0.2,0.4-0.4
	c0-0.2-0.2-0.4-0.4-0.4H4.4v-2C4.4,0.2,4.2,0,4,0z"/>
</svg>
