<?xml version="1.0" encoding="utf-8"?>
<!-- Generator: Adobe Illustrator 21.0.0, SVG Export Plug-In . SVG Version: 6.00 Build 0)  -->
<svg version="1.1" id="Calque_1" xmlns="http://www.w3.org/2000/svg" xmlns:xlink="http://www.w3.org/1999/xlink" x="0px" y="0px"
	 width="22px" height="22px" viewBox="0 0 22 22" style="enable-background:new 0 0 22 22;" xml:space="preserve">
<style type="text/css">
	.st0{fill:none;}
	.st1{fill:#FFFFFF;}
</style>
<g>
	<path class="st0" d="M11,1.8c-5.1,0-9.2,4.1-9.2,9.2s4.1,9.2,9.2,9.2s9.2-4.1,9.2-9.2S16.1,1.8,11,1.8z M11.5,15.1
		c0,0.3-0.2,0.5-0.5,0.5s-0.5-0.2-0.5-0.5V9.5c0-0.3,0.2-0.5,0.5-0.5s0.5,0.2,0.5,0.5V15.1z M11,7.9c-0.4,0-0.7-0.3-0.7-0.7
		c0-0.4,0.3-0.7,0.7-0.7c0.4,0,0.7,0.3,0.7,0.7C11.7,7.5,11.4,7.9,11,7.9z"/>
	<path class="st1" d="M11,0.8C5.4,0.8,0.8,5.4,0.8,11c0,5.6,4.5,10.2,10.2,10.2c5.6,0,10.2-4.5,10.2-10.2C21.2,5.4,16.6,0.8,11,0.8z
		 M11,20.2c-5.1,0-9.2-4.1-9.2-9.2S5.9,1.8,11,1.8s9.2,4.1,9.2,9.2S16.1,20.2,11,20.2z"/>
	<path class="st1" d="M11,9.1c-0.3,0-0.5,0.2-0.5,0.5v5.6c0,0.3,0.2,0.5,0.5,0.5s0.5-0.2,0.5-0.5V9.5C11.5,9.3,11.3,9.1,11,9.1z"/>
	<path class="st1" d="M11,6.4c-0.4,0-0.7,0.3-0.7,0.7c0,0.4,0.3,0.7,0.7,0.7c0.4,0,0.7-0.3,0.7-0.7C11.7,6.7,11.4,6.4,11,6.4z"/>
</g>
</svg>
