<?xml version="1.0" encoding="utf-8"?>
<!-- Generator: Adobe Illustrator 21.0.0, SVG Export Plug-In . SVG Version: 6.00 Build 0)  -->
<svg version="1.1" id="Calque_1" xmlns="http://www.w3.org/2000/svg" xmlns:xlink="http://www.w3.org/1999/xlink" x="0px" y="0px"
	 width="17px" height="17px" viewBox="0 0 17 17" style="enable-background:new 0 0 17 17;" xml:space="preserve">
<style type="text/css">
	.st0{fill:#7D3A8B;stroke:#7D3A8B;stroke-miterlimit:10;}
	path:hover {
		opacity:0.5
	}
</style>
<path class="st0" d="M13.4,3.8c-0.1-0.1-0.3-0.1-0.4,0L8.6,8.1L4.2,3.7c-0.1-0.1-0.3-0.1-0.4,0C3.6,3.8,3.6,4,3.7,4.1l4.4,4.4
	L3.7,13c-0.1,0.1-0.1,0.3,0,0.4c0.1,0.1,0.1,0.1,0.2,0.1c0.1,0,0.2,0,0.2-0.1L8.6,9l4.3,4.3c0.1,0.1,0.1,0.1,0.2,0.1
	c0.1,0,0.2,0,0.2-0.1c0.1-0.1,0.1-0.3,0-0.4L9.1,8.5l4.3-4.3C13.5,4.1,13.5,3.9,13.4,3.8z"/>
</svg>
