<?xml version="1.0" encoding="utf-8"?>
<!-- Generator: Adobe Illustrator 21.0.0, SVG Export Plug-In . SVG Version: 6.00 Build 0)  -->
<svg version="1.1" id="Calque_1" xmlns="http://www.w3.org/2000/svg" xmlns:xlink="http://www.w3.org/1999/xlink" x="0px" y="0px"
	 width="18px" height="18px" viewBox="0 0 18 18" style="enable-background:new 0 0 18 18;" xml:space="preserve">
<style type="text/css">
	.st0{fill:rgb(188,228,244);}
</style>
<g>
	<path class="st0" d="M12.1,0.3c-2.8,0-5.2,2-5.7,4.7c3.5,0.3,6.3,3.3,6.3,6.9c0,0,0,0.1,0,0.1c3-0.3,5.3-2.8,5.3-5.8
		C18,3,15.3,0.3,12.1,0.3z"/>
	<path class="st0" d="M6.2,6.2c-0.2,0-0.3,0-0.5,0C2.6,6.2,0,8.8,0,11.9c0,3.2,2.6,5.7,5.7,5.7c3.1,0,5.7-2.5,5.7-5.7
		c0,0,0-0.1,0-0.1C11.5,8.9,9.2,6.5,6.2,6.2z"/>
</g>
</svg>
