<?xml version="1.0" encoding="utf-8"?>
<!-- Generator: Adobe Illustrator 21.0.0, SVG Export Plug-In . SVG Version: 6.00 Build 0)  -->
<svg version="1.1" id="Calque_1" xmlns="http://www.w3.org/2000/svg" xmlns:xlink="http://www.w3.org/1999/xlink" x="0px" y="0px"
	 width="10px" height="6px" viewBox="0 0 10 6" style="enable-background:new 0 0 10 6;" xml:space="preserve">
<style type="text/css">
	.st0{fill:#1EB0DC;}
</style>
<path class="st0" d="M9.3,0.5C9.2,0.3,9,0.3,8.8,0.3c-0.2,0-0.4,0.1-0.6,0.2L5,3.4L1.8,0.5C1.6,0.3,1.4,0.3,1.2,0.3
	c-0.2,0-0.3,0.1-0.5,0.2C0.3,0.7,0.3,1.3,0.7,1.7l3.8,3.8c0,0,0,0,0,0c0,0,0.1,0.1,0.1,0.1c0,0,0,0,0,0c0,0,0,0,0,0
	C4.8,5.7,4.9,5.7,5,5.7c0.1,0,0.3-0.1,0.4-0.1c0,0,0,0,0,0c0,0,0,0,0.1,0c0,0,0.1,0,0.1-0.1c0,0,0,0,0,0l3.8-3.8
	C9.7,1.4,9.7,0.8,9.3,0.5z"/>
</svg>
