<?xml version="1.0" encoding="utf-8"?>
<!-- Generator: Adobe Illustrator 21.0.0, SVG Export Plug-In . SVG Version: 6.00 Build 0)  -->
<svg version="1.1" id="Calque_1" xmlns="http://www.w3.org/2000/svg" xmlns:xlink="http://www.w3.org/1999/xlink" x="0px" y="0px"
	 width="62.4px" height="62.4px" viewBox="0 0 62.4 62.4" style="enable-background:new 0 0 62.4 62.4;" xml:space="preserve">
<style type="text/css">
	.st0{fill:none;}
	.st1{fill:#FFFFFF;}
</style>
<g>
	<path class="st0" d="M43.2,19.1l-11.9-4.9l-11.9,4.9L14.3,31l5.2,12.2L31.2,48v-0.2l11.9-5.2l4.9-11.9L43.2,19.1L43.2,19.1z
		 M39.8,39.6L31.2,43l-8.6-3.4L19.3,31l3.4-8.6l8.6-3.4l8.6,3.4l3.4,8.6L39.8,39.6z"/>
	<path class="st1" d="M51.7,11.8l-1.6-1.6c-6.2-2.3-12.5-5.2-19-7.8C24.7,5,18.5,7.9,12,10.5l-1.3,1.3L2.6,31l8,19.2l1.6,1.6
		c6.5,2.6,12.7,5.5,19.2,8v-0.4c6.4-2.6,12.5-5.4,19-7.9L52,50l7.8-19L51.7,11.8z M43.2,42.7l-11.9,5.2V48l-11.7-4.8L14.3,31
		l4.9-11.9l11.9-4.9l11.9,4.9l0.1-0.1l4.9,11.8L43.2,42.7z"/>
	<polygon class="st1" points="31.2,19.1 22.6,22.4 19.3,31 22.6,39.6 31.2,43 39.8,39.6 43.2,31 39.8,22.4 	"/>
</g>
</svg>
