<?xml version="1.0" encoding="utf-8"?>
<!-- Generator: Adobe Illustrator 21.0.0, SVG Export Plug-In . SVG Version: 6.00 Build 0)  -->
<svg version="1.1" id="Calque_1" xmlns="http://www.w3.org/2000/svg" xmlns:xlink="http://www.w3.org/1999/xlink" x="0px" y="0px"
	 width="18px" height="18px" viewBox="0 0 18 18" style="enable-background:new 0 0 18 18;" xml:space="preserve">
<style type="text/css">
	.st0{fill-rule:evenodd;clip-rule:evenodd;fill:#FFFFFF;***REMOVED***
</style>
<path class="st0" d="M8.2,13.7c0-0.4,0.3-0.7,0.7-0.7c0.4,0,0.7,0.3,0.7,0.7c0,0.4-0.3,0.7-0.7,0.7C8.5,14.4,8.2,14.1,8.2,13.7z
	 M14.3,13.7c0-0.4,0.3-0.7,0.7-0.7c0.4,0,0.7,0.3,0.7,0.7c0,0.4-0.3,0.7-0.7,0.7C14.7,14.4,14.3,14.1,14.3,13.7z M16.8,12.9
	c0.1,0.2,0.1,0.5,0.1,0.7c0,1-0.9,1.9-1.9,1.9c-1,0-1.9-0.8-1.9-1.9c0-0.3,0.1-0.5,0.1-0.7h-2.6c0.1,0.2,0.1,0.5,0.1,0.7
	c0,1-0.9,1.9-1.9,1.9c-1,0-1.9-0.8-1.9-1.9c0-0.3,0.1-0.5,0.1-0.7H6.4c-0.3,0-0.5-0.2-0.6-0.4L3.8,5.4L0.7,4.9
	C0.3,4.8,0.1,4.5,0.2,4.2c0.1-0.3,0.4-0.5,0.7-0.5l3.5,0.6c0.2,0,0.4,0.2,0.5,0.4l2.1,7c0,0,10.3,0,10.4,0c0.3,0,0.6,0.3,0.6,0.6
	c0,0.3-0.3,0.6-0.6,0.6H16.8z M14.4,5.1h-5C9,5.1,8.8,5.3,8.8,5.6C8.8,6,9,6.2,9.4,6.2h5l-1.6,1.6c-0.2,0.2-0.2,0.6,0,0.8
	c0.2,0.2,0.6,0.2,0.8,0L16.2,6c0.2-0.2,0.2-0.6,0-0.8l-2.6-2.6c-0.2-0.2-0.6-0.2-0.8,0c-0.2,0.2-0.2,0.6,0,0.8L14.4,5.1z"/>
</svg>
