<?xml version="1.0" encoding="utf-8"?>
<!-- Generator: Adobe Illustrator 21.0.0, SVG Export Plug-In . SVG Version: 6.00 Build 0)  -->
<svg version="1.1" id="Calque_1" xmlns="http://www.w3.org/2000/svg" xmlns:xlink="http://www.w3.org/1999/xlink" x="0px" y="0px"
	 width="24px" height="24px" viewBox="0 0 24 24" style="enable-background:new 0 0 24 24;" xml:space="preserve">
<style type="text/css">
	.st0{fill:#F7A541;}
</style>
<g id="gupBZV_1_">
	<g>
		<path class="st0" d="M12.8,23c-0.6,0-1.2,0-1.8,0c0-0.1-0.1-0.1-0.2-0.1c-1-0.1-2-0.3-3-0.7c-3.6-1.6-5.9-4.3-6.7-8.1
			C1.1,13.7,1.1,13.3,1,13c0-0.6,0-1.3,0-1.9C1,11.1,1,11,1,11c0.1-0.6,0.1-1.2,0.3-1.8c1.3-4.3,4.2-7,8.6-8
			c0.4-0.1,0.7-0.1,1.1-0.2c0.6,0,1.2,0,1.8,0c0.2,0.1,0.3,0.1,0.5,0.1c2.3,0.3,4.4,1.2,6.1,2.8c3.4,3.1,4.5,7.9,2.8,12.1
			c-1.5,3.7-4.2,5.9-8.1,6.8C13.7,22.9,13.2,22.9,12.8,23z M15.3,12.2c1.6-0.4,2.1-2.7,0.8-3.7c-0.5-0.4-1-0.6-1.5-0.8
			c-0.2-0.1-0.2-0.1-0.2-0.3c0.1-0.5,0.3-1,0.4-1.5c0-0.2,0-0.3-0.2-0.3c-0.3,0-0.5-0.1-0.8-0.2c-0.2-0.1-0.2,0-0.2,0.2
			c-0.1,0.5-0.3,1-0.4,1.5c0,0.1-0.1,0.2-0.3,0.2c-0.2-0.1-0.4-0.1-0.6-0.1c-0.2,0-0.2-0.1-0.2-0.3c0.1-0.5,0.3-1,0.4-1.5
			c0-0.2,0-0.2-0.2-0.3C12.3,5,12,4.9,11.7,4.9c-0.1,0-0.2,0-0.2,0.1c-0.1,0.5-0.3,1.1-0.4,1.6c0,0.2-0.1,0.2-0.3,0.2
			c-0.7-0.2-1.4-0.3-2-0.5c-0.2,0-0.2,0-0.2,0.1C8.5,6.7,8.4,7,8.3,7.3c0,0.2,0,0.2,0.2,0.2C8.8,7.6,9,7.7,9.3,7.8
			c0.3,0.1,0.5,0.4,0.4,0.7c-0.4,1.8-0.9,3.5-1.3,5.3c-0.1,0.3-0.2,0.4-0.6,0.4c-0.2,0-0.5-0.1-0.7-0.2c-0.1,0-0.2,0-0.2,0.1
			c-0.1,0.3-0.3,0.7-0.5,1c-0.1,0.2,0,0.2,0.1,0.2c0.6,0.2,1.3,0.3,1.9,0.5c0.2,0,0.3,0.1,0.2,0.4c-0.2,0.5-0.3,1-0.4,1.6
			c0,0.2,0,0.2,0.1,0.2C8.7,18,9,18.1,9.3,18.2c0.2,0.1,0.2,0,0.3-0.2c0.1-0.3,0.2-0.7,0.3-1c0.1-0.2,0-0.6,0.2-0.7
			c0.2-0.1,0.5,0.1,0.7,0.1c0.2,0,0.2,0.1,0.2,0.3c-0.1,0.5-0.3,1.1-0.4,1.6c0,0.2,0,0.2,0.2,0.2c0.3,0.1,0.5,0.1,0.8,0.2
			c0.2,0.1,0.2,0,0.3-0.2c0.1-0.5,0.3-1,0.4-1.5c0-0.2,0.1-0.2,0.3-0.2c0.5,0.1,0.9,0.1,1.4,0.1c1.4,0,2.3-0.6,2.7-2
			c0.2-0.8,0.2-1.5-0.4-2.2C15.8,12.5,15.6,12.4,15.3,12.2z"/>
		<path class="st0" d="M12.7,15.2c-0.8,0-1.5-0.2-2.1-0.4c-0.1,0-0.1-0.1-0.1-0.2c0.2-0.8,0.4-1.6,0.6-2.3c0-0.1,0-0.2,0.2-0.1
			c0.7,0.2,1.4,0.3,2,0.7c0.4,0.2,0.8,0.5,0.9,0.9c0.1,0.6-0.1,1.1-0.7,1.3c-0.1,0-0.2,0.1-0.3,0.1C13,15.2,12.8,15.2,12.7,15.2z"/>
		<path class="st0" d="M13.1,11.2c-0.6,0-1.1-0.1-1.6-0.3c-0.1,0-0.1-0.1-0.1-0.2c0.2-0.7,0.4-1.4,0.5-2.1c0-0.1,0-0.2,0.2-0.1
			c0.6,0.1,1.2,0.3,1.7,0.6c0.5,0.3,0.8,0.7,0.7,1.2c-0.1,0.6-0.5,0.9-1.1,1C13.3,11.2,13.2,11.2,13.1,11.2z"/>
	</g>
</g>
</svg>
