<?xml version="1.0" encoding="utf-8"?>
<!-- Generator: Adobe Illustrator 21.0.0, SVG Export Plug-In . SVG Version: 6.00 Build 0)  -->
<svg version="1.1" id="Calque_1" xmlns="http://www.w3.org/2000/svg" xmlns:xlink="http://www.w3.org/1999/xlink" x="0px" y="0px"
	 width="18px" height="18px" viewBox="0 0 18 18" style="enable-background:new 0 0 18 18;" xml:space="preserve">
<style type="text/css">
	.st0{
		fill:#FFFFFF;
	}
</style>
<g>
	<path class="st0" d="M12.7,9.7c0-2.4-1.9-4.4-4.2-4.6c-0.1,0-0.3,0-0.4,0c-2.5,0-4.6,2.1-4.6,4.6c0,2.5,2.1,4.6,4.6,4.6
		C10.7,14.3,12.7,12.3,12.7,9.7C12.7,9.7,12.7,9.7,12.7,9.7z"/>
	<path class="st0" d="M17.8,12.5l-1.4-2.1c0,0,0,0,0,0c0,0,0,0,0,0c0,0,0,0-0.1-0.1c0,0,0,0,0,0c0,0-0.1,0-0.1,0c0,0,0,0,0,0
		c0,0,0,0,0,0c0,0,0,0,0,0c0,0-0.1,0-0.1,0c0,0,0,0-0.1,0c0,0,0,0-0.1,0l-2.1,1.6c-0.2,0.1-0.2,0.4-0.1,0.6c0.1,0.2,0.4,0.2,0.6,0.1
		l1.3-1c-0.4,1.8-1.5,3.3-3,4.4c-0.2,0.1-0.2,0.4-0.1,0.6c0.1,0.1,0.2,0.2,0.3,0.2c0.1,0,0.2,0,0.2-0.1c1.7-1.2,2.9-3,3.3-4.9
		l0.9,1.3c0.1,0.1,0.2,0.2,0.3,0.2c0.1,0,0.2,0,0.2-0.1C17.9,12.9,18,12.6,17.8,12.5z"/>
	<path class="st0" d="M3.8,5.2C3.8,5,3.6,4.9,3.3,4.9L1.9,5.3c1.2-1.7,3.1-2.9,5.3-3.2c0.2,0,0.4-0.2,0.3-0.4c0-0.2-0.2-0.4-0.4-0.3
		C4.7,1.6,2.6,3,1.2,4.9L0.9,3.4c0-0.2-0.3-0.4-0.5-0.3c-0.2,0-0.4,0.3-0.3,0.5l0.6,2.5c0,0.1,0.1,0.2,0.2,0.3
		c0.1,0,0.1,0.1,0.2,0.1c0,0,0.1,0,0.1,0l2.4-0.7C3.8,5.6,3.9,5.4,3.8,5.2z"/>
</g>
</svg>
