<?xml version="1.0" encoding="utf-8"?>
<!-- Generator: Adobe Illustrator 21.0.0, SVG Export Plug-In . SVG Version: 6.00 Build 0)  -->
<svg version="1.1" id="Calque_1" xmlns="http://www.w3.org/2000/svg" xmlns:xlink="http://www.w3.org/1999/xlink" x="0px" y="0px"
	 width="15.2px" height="15.2px" viewBox="0 0 15.2 15.2" style="enable-background:new 0 0 15.2 15.2;" xml:space="preserve">
<style type="text/css">
	.st0{fill:#687079;***REMOVED***
</style>
<path class="st0" d="M2.4,2.4h2.3v2.3H2.4V2.4z M10.5,10.5v2.3h2.3v-1.2h-1.2v-1.2L10.5,10.5L10.5,10.5z M14,14h-2.3v1.2h3.5v-2.3
	H14C14,12.9,14,14,14,14z M1.2,1.2h4.7v4.7H1.2V1.2z M0,7h7V0H0C0,0,0,7,0,7z M14,5.9H9.3V1.2H14V5.9z M15.2,0h-7v7h7V0z M10.5,2.4
	h2.3v2.3h-2.3V2.4z M11.7,8.2h3.5v1.2h-3.5V8.2z M14,10.5h1.2v1.2H14C14,11.7,14,10.5,14,10.5z M8.2,14h2.3v1.2H8.2V14z M1.2,14V9.3
	h4.7V14H1.2z M0,15.2h7v-7H0C0,8.2,0,15.2,0,15.2z M8.2,8.2h1.2v4.7H8.2V8.2z M2.4,10.5h2.3v2.3H2.4V10.5z M1.2,14h4.7H1.2z"/>
</svg>
