<?xml version="1.0" encoding="utf-8"?>
<!-- Generator: Adobe Illustrator 21.0.0, SVG Export Plug-In . SVG Version: 6.00 Build 0)  -->
<svg version="1.1" id="Calque_1" xmlns="http://www.w3.org/2000/svg" xmlns:xlink="http://www.w3.org/1999/xlink" x="0px" y="0px"
	 width="62.4px" height="62.4px" viewBox="0 0 62.4 62.4" style="enable-background:new 0 0 62.4 62.4;" xml:space="preserve">
<style type="text/css">
	.st0{fill:#FFFFFF;}
</style>
<g id="gupBZV_3_">
	<g>
		<path class="st0" d="M33.3,59.8c-1.6,0-3.1,0-4.7,0c-0.1-0.2-0.3-0.1-0.4-0.1c-2.7-0.3-5.3-0.9-7.7-1.9C11,53.7,5.2,46.6,3,36.6
			c-0.2-0.9-0.2-1.9-0.5-2.9c0-1.6,0-3.3,0-4.9c0.1-0.1,0.1-0.2,0.1-0.3c0.2-1.6,0.4-3.1,0.8-4.6C6.9,12.5,14.4,5.6,25.9,3
			c0.9-0.2,1.9-0.2,2.9-0.5c1.6,0,3.1,0,4.7,0c0.4,0.2,0.9,0.2,1.3,0.2c6,0.8,11.3,3.2,15.8,7.3c8.8,8.2,11.7,20.5,7.2,31.6
			c-3.9,9.6-11.1,15.4-21.2,17.6C35.5,59.5,34.4,59.7,33.3,59.8z M39.9,31.7c4.2-1,5.4-6.9,2.1-9.5c-1.2-0.9-2.5-1.6-3.9-2.1
			c-0.4-0.1-0.6-0.3-0.4-0.8c0.4-1.3,0.7-2.7,1-4c0.1-0.4,0.1-0.7-0.4-0.8c-0.7-0.1-1.4-0.3-2.1-0.5c-0.4-0.1-0.6,0-0.6,0.4
			c-0.3,1.3-0.7,2.7-1,4c-0.1,0.4-0.2,0.5-0.7,0.4c-0.5-0.2-1-0.3-1.5-0.4c-0.5-0.1-0.5-0.3-0.4-0.7c0.4-1.3,0.7-2.6,1-3.9
			c0.1-0.4,0.1-0.6-0.4-0.7c-0.7-0.1-1.4-0.3-2.1-0.5c-0.4-0.1-0.5,0-0.6,0.4c-0.3,1.4-0.7,2.7-1,4.1c-0.1,0.4-0.2,0.5-0.7,0.4
			c-1.8-0.5-3.6-0.9-5.3-1.3c-0.4-0.1-0.5,0-0.6,0.4c-0.2,0.8-0.4,1.6-0.6,2.4c-0.1,0.4,0,0.6,0.4,0.6c0.7,0.1,1.4,0.3,2.1,0.5
			c0.9,0.3,1.3,1,1.1,1.9c-1.1,4.6-2.3,9.1-3.4,13.7c-0.2,0.8-0.6,1.1-1.5,0.9c-0.6-0.1-1.3-0.3-1.9-0.4c-0.3-0.1-0.5,0-0.6,0.3
			c-0.4,0.9-0.8,1.8-1.2,2.7c-0.2,0.4-0.1,0.5,0.3,0.6c1.7,0.4,3.4,0.8,5.1,1.2c0.5,0.1,0.8,0.3,0.6,0.9c-0.4,1.3-0.7,2.7-1,4.1
			c-0.1,0.4,0,0.5,0.4,0.6c0.7,0.2,1.4,0.3,2.1,0.5c0.5,0.1,0.6,0,0.7-0.4c0.2-0.9,0.4-1.8,0.7-2.7c0.2-0.6,0.1-1.6,0.6-1.8
			c0.5-0.2,1.2,0.3,1.9,0.4c0.4,0.1,0.5,0.2,0.4,0.7c-0.4,1.4-0.7,2.8-1.1,4.1c-0.1,0.4,0,0.6,0.4,0.6c0.7,0.1,1.4,0.3,2.1,0.5
			c0.5,0.1,0.6,0,0.7-0.5c0.3-1.3,0.7-2.7,1-4c0.1-0.5,0.2-0.6,0.8-0.5c1.2,0.2,2.4,0.4,3.6,0.4c3.8,0,6-1.7,7.1-5.3
			c0.6-2.1,0.5-4-1.1-5.7C41.2,32.6,40.6,32.2,39.9,31.7z"/>
		<path class="st0" d="M32.9,39.5c-2.1-0.1-3.8-0.5-5.6-1C27,38.5,27,38.3,27,38.1c0.5-2,1-4.1,1.5-6.1c0.1-0.2,0.1-0.4,0.4-0.4
			c1.8,0.4,3.7,0.8,5.3,1.7c1,0.5,2,1.2,2.3,2.4c0.4,1.4-0.3,2.8-1.7,3.4c-0.2,0.1-0.5,0.2-0.7,0.2C33.7,39.4,33.2,39.5,32.9,39.5z"
			/>
		<path class="st0" d="M34,29.2c-1.5,0-2.8-0.4-4.2-0.7c-0.3-0.1-0.3-0.2-0.2-0.5c0.5-1.8,0.9-3.6,1.4-5.4c0.1-0.3,0.1-0.4,0.5-0.4
			c1.5,0.4,3,0.7,4.4,1.4c1.4,0.8,2,1.9,1.9,3.1c-0.2,1.5-1.2,2.3-2.8,2.5C34.6,29.2,34.3,29.2,34,29.2z"/>
	</g>
</g>
</svg>
