<?xml version="1.0" encoding="utf-8"?>
<!-- Generator: Adobe Illustrator 21.0.0, SVG Export Plug-In . SVG Version: 6.00 Build 0)  -->
<svg version="1.1" id="Calque_1" xmlns="http://www.w3.org/2000/svg" xmlns:xlink="http://www.w3.org/1999/xlink" x="0px" y="0px"
	 width="22px" height="22px" viewBox="0 0 22 22" style="enable-background:new 0 0 22 22;" xml:space="preserve">
<style type="text/css">
	.st0{fill:#1EB0DC;}
</style>
<g>
	<path class="st0" d="M11,2.3c-0.2,0-0.4,0.2-0.5,0.4l-9,15.5c-0.2,0.3-0.2,0.7-0.1,0.9c0.1,0.2,0.3,0.5,0.6,0.5H20
		c0.3,0,0.5-0.3,0.6-0.5c0.1-0.2,0-0.5-0.1-0.8L11.5,2.8C11.4,2.6,11.2,2.3,11,2.3z M20,20.5H2c-0.6,0-1.2-0.5-1.4-0.9
		c-0.3-0.4-0.2-1.1,0.1-1.7l9-15.6C10,1.8,10.5,1.5,11,1.5s1,0.3,1.3,0.9l9,15.5c0.3,0.6,0.4,1.4,0.1,1.8
		C21.1,20.1,20.6,20.5,20,20.5z"/>
	<path class="st0" d="M11.7,16.3c0,1-1.5,1-1.5,0C10.3,15.3,11.7,15.3,11.7,16.3"/>
	<path class="st0" d="M11.7,8.8c0-0.4-0.3-0.7-0.7-0.7c-0.4,0-0.7,0.3-0.7,0.7v4.6c0,0.4,0.3,0.7,0.7,0.7c0.4,0,0.7-0.3,0.7-0.7V8.8
		z"/>
</g>
</svg>
