<?xml version="1.0" encoding="utf-8"?>
<!-- Generator: Adobe Illustrator 21.0.0, SVG Export Plug-In . SVG Version: 6.00 Build 0)  -->
<svg version="1.1" id="Calque_1" xmlns="http://www.w3.org/2000/svg" xmlns:xlink="http://www.w3.org/1999/xlink" x="0px" y="0px"
	 width="222px" height="50px" viewBox="0 0 222 50" style="enable-background:new 0 0 222 50;" xml:space="preserve">
<style type="text/css">
	.st0{fill:#7F368A;}
	.st1{fill:#232F3B;}
	.st2{fill:url(#SVGID_1_);}
	.st3{fill:url(#SVGID_2_);}
	.st4{fill:url(#SVGID_3_);}
	.st5{fill:url(#SVGID_4_);}
	.st6{fill:#020203;stroke:#020203;stroke-width:0.2576;stroke-miterlimit:10;}
</style>
<g>
	<g>
		<g>
			<path class="st0" d="M30.3,3.1c12.1,0,21.9,9.8,21.9,21.9s-9.8,21.9-21.9,21.9S8.5,37.1,8.5,25S18.3,3.1,30.3,3.1 M30.3,1.3
				C17.2,1.3,6.6,11.9,6.6,25c0,13.1,10.6,23.7,23.7,23.7C43.4,48.7,54,38.1,54,25C54,11.9,43.4,1.3,30.3,1.3L30.3,1.3z"/>
		</g>
		<path class="st1" d="M21.2,17.9"/>
		<g>
			<g>
				<linearGradient id="SVGID_1_" gradientUnits="userSpaceOnUse" x1="32.1016" y1="25" x2="44.5594" y2="25">
					<stop  offset="0" style="stop-color:#B92484"/>
					<stop  offset="2.267800e-02" style="stop-color:#B92484"/>
					<stop  offset="1" style="stop-color:#7D358B"/>
				</linearGradient>
				<path class="st2" d="M44.5,34c-0.2-1.2-0.6-2.3-0.9-3.4c-0.3-1.2-0.6-2.3-0.9-3.5c-0.8-2.9-1.5-5.8-2.3-8.8
					c-0.2-0.7-0.3-1.3-0.5-2c-0.1-0.3-0.2-0.7-0.5-0.9c-0.3-0.1-0.6-0.1-0.9-0.1c-0.4,0-0.8,0-1.2,0c-0.8,0-1.6,0-2.4,0
					c-0.5,0-1.1,0-1.6,0.1c-0.5,0.1-1,0.4-1.1,0.8c-0.1,0.2,0,0.5,0.2,0.6c0.1,0.1,0.3,0,0.4-0.1c0.1,0,0.4-0.3,0.5-0.3l4.5,16.9
					l0,0c0,0,0,0.1,0,0.1c0.1,0.4,0.3,0.7,0.6,0.9c0.2,0.1,0.4,0.2,0.7,0.2h0.5h0.8h2.3h1.3C44.3,34.6,44.6,34.4,44.5,34z"/>
			</g>
			<g>
				<linearGradient id="SVGID_2_" gradientUnits="userSpaceOnUse" x1="20.8658" y1="25" x2="33.3236" y2="25">
					<stop  offset="0" style="stop-color:#B92484"/>
					<stop  offset="2.267800e-02" style="stop-color:#B92484"/>
					<stop  offset="1" style="stop-color:#7D358B"/>
				</linearGradient>
				<path class="st3" d="M33.3,34c-0.2-1.2-0.6-2.3-0.9-3.4c-0.3-1.2-0.6-2.3-0.9-3.5c-0.8-2.9-1.5-5.8-2.3-8.8
					c-0.2-0.7-0.3-1.3-0.5-2c-0.1-0.3-0.2-0.7-0.5-0.9c-0.3-0.1-0.6-0.1-0.9-0.1c-0.4,0-0.8,0-1.2,0c-0.8,0-1.6,0-2.4,0
					c-0.5,0-1.1,0-1.6,0.1c-0.5,0.1-1,0.4-1.1,0.8c-0.1,0.2,0,0.5,0.2,0.6c0.1,0.1,0.3,0,0.4-0.1c0.1,0,0.4-0.3,0.5-0.3l4.5,16.9
					l0,0c0,0,0,0.1,0,0.1c0.1,0.4,0.3,0.7,0.6,0.9c0.2,0.1,0.4,0.2,0.7,0.2h0.5H29h2.3h1.3C33,34.6,33.4,34.4,33.3,34z"/>
			</g>
			<linearGradient id="SVGID_3_" gradientUnits="userSpaceOnUse" x1="16.1033" y1="26.2172" x2="24.2914" y2="26.2172">
				<stop  offset="0" style="stop-color:#B92484"/>
				<stop  offset="2.267800e-02" style="stop-color:#B92484"/>
				<stop  offset="1" style="stop-color:#7D358B"/>
			</linearGradient>
			<path class="st4" d="M24.3,30.3l-3.1-12.1h0c0-0.2-0.2-0.4-0.5-0.4c-0.2,0-0.4,0.1-0.5,0.3l0,0l-4.2,15.4l0,0c0,0.1,0,0.1,0,0.2
				c0,0.5,0.4,0.9,0.9,0.9h5.2c0.4,0,0.8-0.3,0.9-0.6l0,0L24.3,30.3z"/>
			<linearGradient id="SVGID_4_" gradientUnits="userSpaceOnUse" x1="30.9748" y1="24.9903" x2="35.7939" y2="24.9903">
				<stop  offset="0" style="stop-color:#B92484"/>
				<stop  offset="2.267800e-02" style="stop-color:#B92484"/>
				<stop  offset="1" style="stop-color:#7D358B"/>
			</linearGradient>
			<path class="st5" d="M35.8,30l-3.4-12.2h0c0-0.2-0.2-0.3-0.4-0.3c-0.2,0-0.3,0.1-0.4,0.3h0L31,20.3l3.4,11.9l0,0l0,0
				c0.1,0.2,0.2,0.3,0.4,0.3c0.2,0,0.3-0.1,0.4-0.3l0,0L35.8,30z"/>
		</g>
		<g>
			<path class="st1" d="M101,25.7l0,6.5c0,0.1,0.1,0.2,0.2,0.2c0,0,0,0,0,0l0,0h2.5c0.1,0,0.2-0.1,0.2-0.2l0,0l0-7.7
				c0-1.9-1.6-3.5-3.6-3.5c-1.4,0-2.6,0.8-3.2,1.9v-1.6c0,0,0,0,0,0c0-0.1-0.1-0.2-0.2-0.2h-2.5c-0.1,0-0.2,0.1-0.2,0.2v11
				c0,0.1,0.1,0.2,0.2,0.2h2.5c0.1,0,0.2-0.1,0.2-0.2l0-6.6l0,0c0-1,0.9-1.8,1.9-1.8C100.1,23.8,101,24.6,101,25.7"/>
		</g>
		<path class="st1" d="M86,21c-3.3,0-5.9,2.6-5.9,5.7s2.6,5.7,5.9,5.7c3.2,0,5.9-2.6,5.9-5.7S89.3,21,86,21z M86,29.7
			c-1.7,0-3.1-1.3-3.1-3c0-1.7,1.4-3,3.1-3c1.7,0,3.1,1.3,3.1,3C89.1,28.4,87.7,29.7,86,29.7z"/>
		<path class="st1" d="M63.6,17.7v14.5c0,0.1,0.1,0.2,0.2,0.2h2.5c0.1,0,0.2-0.1,0.2-0.2v-8.8l3.1,5l0,0c0,0.1,0.1,0.1,0.2,0.1l0,0
			l1.6,0l0,0c0.1,0,0.1,0,0.2-0.1l0,0l3.2-5l0,8.8l0,0c0,0.1,0.1,0.2,0.2,0.2l0,0h2.5l0,0c0.1,0,0.2-0.1,0.2-0.2l0,0V17.7l0,0l0,0
			c0-0.1-0.1-0.2-0.2-0.2h-2.5c-0.1,0-0.2,0.1-0.2,0.1l0,0L70.7,25l-4.2-7.4l0,0c0-0.1-0.1-0.1-0.2-0.1h-2.5
			C63.7,17.5,63.6,17.6,63.6,17.7"/>
		<path class="st1" d="M118.2,32.1l-4.5-11c0-0.1-0.1-0.2-0.2-0.2H111c-0.1,0-0.2,0.1-0.2,0.1l0,0c0,0,0,0,0,0l-4.5,11l0,0
			c0,0,0,0.1,0,0.1c0,0.1,0.1,0.2,0.2,0.2h2.5c0.1,0,0.2-0.1,0.2-0.1l0,0l0.6-1.6c0.7,0.3,1.6,0.5,2.5,0.5c0.9,0,1.7-0.2,2.4-0.5
			l0.6,1.6c0,0.1,0.1,0.1,0.2,0.1h2.5c0.1,0,0.2-0.1,0.2-0.2C118.2,32.2,118.2,32.1,118.2,32.1z M112.2,28.6c-0.6,0-1.1-0.1-1.6-0.3
			l1.3-3.5l0,0c0-0.1,0.1-0.2,0.2-0.2c0.1,0,0.2,0.1,0.2,0.2l0,0l1.4,3.5C113.3,28.5,112.8,28.6,112.2,28.6z"/>
		<path class="st1" d="M123.2,21h-2.5c-0.1,0-0.2,0.1-0.2,0.2v11c0,0.1,0.1,0.2,0.2,0.2h2.5c0.1,0,0.2-0.1,0.2-0.2v-11
			C123.5,21.1,123.4,21,123.2,21z"/>
		<path class="st1" d="M123.2,17.5h-2.5c-0.1,0-0.2,0.1-0.2,0.2v1.7c0,0.1,0.1,0.2,0.2,0.2h2.5c0.1,0,0.2-0.1,0.2-0.2v-1.7
			C123.5,17.6,123.4,17.5,123.2,17.5z"/>
		<path class="st1" d="M135.2,23.6L135.2,23.6L135.2,23.6c0,0.1,0,0.1-0.1,0.2l0,0l-5.6,5.9l5.5,0c0.1,0,0.2,0.1,0.2,0.2l0,0l0,2.4
			l0,0c0,0,0,0,0,0c0,0.1-0.1,0.2-0.2,0.2h-9c-0.1,0-0.2-0.1-0.2-0.2l0-2.4c0-0.1,0-0.1,0.1-0.2l0,0l5.4-5.8l-5.2,0c0,0,0,0,0,0
			c-0.1,0-0.2-0.1-0.2-0.2l0-2.4c0-0.1,0.1-0.2,0.2-0.2h9c0.1,0,0.2,0.1,0.2,0.2L135.2,23.6L135.2,23.6z"/>
		<path class="st1" d="M147.7,23.4L147.7,23.4c-1-1.5-2.6-2.4-4.5-2.4c-1.9,0-3.5,1-4.6,2.4h0c-0.7,0.9-1.1,2.1-1.1,3.3
			c0,3.2,2.7,5.7,6.1,5.7c1.7,0,3.3-0.7,4.4-1.8l0,0c0,0,0,0,0,0l0,0c0,0,0.1-0.1,0.1-0.1c0-0.1,0-0.1-0.1-0.2v0l-1.4-1.4
			c0-0.1-0.1-0.1-0.2-0.1c-0.1,0-0.1,0-0.2,0.1c0,0,0,0,0,0c-0.5,0.6-1.5,1-2.5,1c-1.7,0-3-1-3-2.1h7.9c0.1,0,0.3-0.1,0.3-0.2v-0.8
			C148.8,25.5,148.4,24.3,147.7,23.4z M140.7,25.8c0-1.3,1.1-2.3,2.5-2.3c1.4,0,2.5,1,2.5,2.3H140.7z"/>
	</g>
	<g>
		<path class="st6" d="M168.6,32.1l-3.8-11.9l-3.9,11.9h-1.7l-4.7-14.2h1.7l3.9,12.3l3.8-12.3l1.6,0l3.9,12.3l3.8-12.3h1.7
			l-4.8,14.2H168.6z"/>
		<path class="st6" d="M182.5,30.3c-0.8,1.1-2.2,1.7-3.8,1.7c-2.2,0-3.5-1.4-3.5-3.2c0-1.8,1.4-3,3.9-3h3.4v-0.6
			c0-1.5-0.9-2.4-2.8-2.4c-1.1,0-2.2,0.4-3.3,1.2l-0.7-1.1c1.3-0.9,2.5-1.4,4.2-1.4c2.6,0,4,1.4,4,3.6l0,6.9h-1.5V30.3z M182.4,28.3
			v-1.2h-3.2c-1.7,0-2.6,0.5-2.6,1.7c0,1.1,0.9,1.9,2.4,1.9C180.7,30.7,182,29.8,182.4,28.3z"/>
		<path class="st6" d="M187.5,31.9V17.9h1.5v14.1H187.5z"/>
		<path class="st6" d="M193,31.9V17.9h1.5v14.1H193z"/>
		<path class="st6" d="M207.3,27.3h-8.5c0.3,2,1.8,3.3,3.8,3.3c1.3,0,2.4-0.5,3.2-1.3l0.8,0.9c-1,1.1-2.4,1.7-4.2,1.7
			c-3.1,0-5.2-2.2-5.2-5.3s2.1-5.3,5.2-5.3C205.8,21.5,207.5,23.8,207.3,27.3z M206,26.1c-0.1-2-1.4-3.3-3.5-3.3
			c-2,0-3.4,1.3-3.6,3.3H206z"/>
		<path class="st6" d="M215.4,31.2c-0.7,0.5-1.5,0.8-2.4,0.8c-1.5,0-2.6-0.9-2.6-3v-5.9h-1.5v-1.2h1.5v-2.7h1.5v2.7l3.3,0v1.3h-3.3
			v5.7c0,1.3,0.5,1.7,1.4,1.7c0.5,0,1.1-0.2,1.7-0.5L215.4,31.2z"/>
	</g>
</g>
</svg>
