<?xml version="1.0" encoding="utf-8"?>
<!-- Generator: Adobe Illustrator 21.0.0, SVG Export Plug-In . SVG Version: 6.00 Build 0)  -->
<svg version="1.1" id="Calque_1" xmlns="http://www.w3.org/2000/svg" xmlns:xlink="http://www.w3.org/1999/xlink" x="0px" y="0px"
	 width="14.7px" height="14.1px" viewBox="0 0 14.7 14.1" style="enable-background:new 0 0 14.7 14.1;" xml:space="preserve">
<style type="text/css">
	.st0{fill:#1EB0DC;}
	.st1{fill:none;}
</style>
<g>
	<path class="st0" d="M13.2,13.2H0.4c-0.2,0-0.4,0.2-0.4,0.4s0.2,0.4,0.4,0.4h12.8c0.2,0,0.4-0.2,0.4-0.4S13.5,13.2,13.2,13.2z"/>
	<g>
		<polygon class="st1" points="2,11.4 3.1,11.2 2.1,10.3 		"/>
		<polygon class="st1" points="4.9,5.1 8.9,1.1 7.9,0.4 3.2,5 		"/>
		<polygon class="st1" points="8.3,10.1 14.1,4.3 13,3.6 8.3,8.4 		"/>
		<polygon class="st1" points="5.5,7.8 7.7,7.9 12.4,3.2 9.6,1.5 5.5,5.6 		"/>
		<path class="st1" d="M5.1,8.5C5,8.5,4.8,8.4,4.8,8.2L4.7,5.8l-2-0.1L2.2,9.3L4,11.1l3.6-0.5l-0.1-2L5.1,8.5z"/>
		<path class="st0" d="M8.3,10.1l0-1.7L13,3.6l-0.6-0.4L7.7,7.9L5.5,7.8L5.5,5.6l4.1-4.1L8.9,1.1l-4,4L3.2,5l4.6-4.6L7.2,0L2.1,5.1
			C2,5.2,2,5.3,2,5.3L1.3,11l-0.2,0.9l0.3,0.3l0.9-0.1L8,11.3c0.1,0,0.2-0.1,0.2-0.1l6.5-6.5l-0.6-0.4L8.3,10.1z M2,11.4l0.1-1.1
			l0.9,0.9L2,11.4z M4,11.1L2.2,9.3l0.5-3.6l2,0.1l0.1,2.4c0,0.2,0.2,0.4,0.4,0.4l2.4,0.1l0.1,2L4,11.1z"/>
	</g>
</g>
</svg>
