<?xml version="1.0" encoding="utf-8"?>
<!-- Generator: Adobe Illustrator 21.0.0, SVG Export Plug-In . SVG Version: 6.00 Build 0)  -->
<svg version="1.1" id="Calque_1" xmlns="http://www.w3.org/2000/svg" xmlns:xlink="http://www.w3.org/1999/xlink" x="0px" y="0px"
	 width="152px" height="52px" viewBox="0 0 152 52" style="enable-background:new 0 0 152 52;" xml:space="preserve">
<style type="text/css">
	.st0{fill:#7F368A;}
	.st1{fill:#232F3B;}
	.st2{fill:url(#SVGID_1_);}
	.st3{fill:url(#SVGID_2_);}
	.st4{fill:url(#SVGID_3_);}
	.st5{fill:url(#SVGID_4_);}
</style>
<g>
	<g>
		<path class="st0" d="M26,2.9c12.7,0,23.1,10.4,23.1,23.1S38.7,49.1,26,49.1S2.9,38.7,2.9,26S13.3,2.9,26,2.9 M26,1
			C12.2,1,1,12.2,1,26c0,13.8,11.2,25,25,25c13.8,0,25-11.2,25-25C51,12.2,39.8,1,26,1L26,1z"/>
	</g>
	<path class="st1" d="M16.4,18.5"/>
	<g>
		<g>
			<linearGradient id="SVGID_1_" gradientUnits="userSpaceOnUse" x1="27.8685" y1="26" x2="41.0103" y2="26">
				<stop  offset="0" style="stop-color:#B92484"/>
				<stop  offset="2.267800e-02" style="stop-color:#B92484"/>
				<stop  offset="1" style="stop-color:#7D358B"/>
			</linearGradient>
			<path class="st2" d="M41,35.5c-0.2-1.2-0.6-2.4-0.9-3.6c-0.3-1.2-0.6-2.4-1-3.7c-0.8-3.1-1.6-6.2-2.4-9.2
				c-0.2-0.7-0.4-1.4-0.5-2.1c-0.1-0.3-0.2-0.7-0.5-0.9c-0.3-0.1-0.6-0.1-0.9-0.1c-0.4,0-0.8,0-1.2,0c-0.9,0-1.7,0-2.6,0
				c-0.6,0-1.2,0-1.7,0.1c-0.5,0.1-1,0.4-1.2,0.9c-0.1,0.2,0,0.5,0.2,0.6c0.2,0.1,0.3,0,0.4-0.1c0.1,0,0.4-0.3,0.5-0.3l4.8,17.8l0,0
				c0,0,0,0.1,0,0.1c0.1,0.4,0.3,0.8,0.6,1c0.2,0.1,0.5,0.2,0.8,0.2h0.5h0.8H39h1.3C40.7,36.2,41.1,36,41,35.5z"/>
		</g>
		<g>
			<linearGradient id="SVGID_2_" gradientUnits="userSpaceOnUse" x1="16.0159" y1="26" x2="29.1576" y2="26">
				<stop  offset="0" style="stop-color:#B92484"/>
				<stop  offset="2.267800e-02" style="stop-color:#B92484"/>
				<stop  offset="1" style="stop-color:#7D358B"/>
			</linearGradient>
			<path class="st3" d="M29.1,35.5c-0.2-1.2-0.6-2.4-0.9-3.6c-0.3-1.2-0.6-2.4-1-3.7c-0.8-3.1-1.6-6.2-2.4-9.2
				c-0.2-0.7-0.4-1.4-0.5-2.1c-0.1-0.3-0.2-0.7-0.5-0.9c-0.3-0.1-0.6-0.1-0.9-0.1c-0.4,0-0.8,0-1.2,0c-0.9,0-1.7,0-2.6,0
				c-0.6,0-1.2,0-1.7,0.1c-0.5,0.1-1,0.4-1.2,0.9c-0.1,0.2,0,0.5,0.2,0.6c0.2,0.1,0.3,0,0.4-0.1c0.1,0,0.4-0.3,0.5-0.3L22,34.8l0,0
				c0,0,0,0.1,0,0.1c0.1,0.4,0.3,0.8,0.6,1c0.2,0.1,0.5,0.2,0.8,0.2h0.5h0.8h2.5h1.3C28.8,36.2,29.2,36,29.1,35.5z"/>
		</g>
		<linearGradient id="SVGID_3_" gradientUnits="userSpaceOnUse" x1="10.9919" y1="27.284" x2="19.6295" y2="27.284">
			<stop  offset="0" style="stop-color:#B92484"/>
			<stop  offset="2.267800e-02" style="stop-color:#B92484"/>
			<stop  offset="1" style="stop-color:#7D358B"/>
		</linearGradient>
		<path class="st4" d="M19.6,31.6l-3.3-12.8h0c0-0.2-0.2-0.4-0.5-0.4c-0.2,0-0.4,0.2-0.5,0.4l0,0L11,35l0,0c0,0.1,0,0.2,0,0.2
			c0,0.5,0.4,1,1,1h5.5c0.4,0,0.8-0.3,0.9-0.7l0,0L19.6,31.6z"/>
		<linearGradient id="SVGID_4_" gradientUnits="userSpaceOnUse" x1="26.6799" y1="25.9898" x2="31.7636" y2="25.9898">
			<stop  offset="0" style="stop-color:#B92484"/>
			<stop  offset="2.267800e-02" style="stop-color:#B92484"/>
			<stop  offset="1" style="stop-color:#7D358B"/>
		</linearGradient>
		<path class="st5" d="M31.8,31.3l-3.6-12.9h0c0-0.2-0.2-0.3-0.4-0.3c-0.2,0-0.4,0.1-0.4,0.3h0L26.7,21l3.6,12.5l0,0l0,0
			c0.1,0.2,0.2,0.3,0.4,0.3c0.2,0,0.3-0.1,0.4-0.3l0,0L31.8,31.3z"/>
	</g>
	<g>
		<path class="st1" d="M100.6,26.7l0,6.9c0,0.1,0.1,0.3,0.3,0.3c0,0,0,0,0,0l0,0h2.6c0.1,0,0.3-0.1,0.3-0.3l0,0l0-8.2
			c0-2-1.7-3.7-3.8-3.7c-1.5,0-2.7,0.8-3.4,2V22c0,0,0,0,0,0c0-0.1-0.1-0.3-0.3-0.3h-2.6c-0.1,0-0.3,0.1-0.3,0.3v11.6
			c0,0.1,0.1,0.3,0.3,0.3h2.6c0.1,0,0.3-0.1,0.3-0.3l0-6.9l0,0c0-1.1,0.9-1.9,2-1.9C99.6,24.7,100.5,25.6,100.6,26.7"/>
	</g>
	<path class="st1" d="M84.8,21.7c-3.4,0-6.2,2.7-6.2,6.1s2.8,6.1,6.2,6.1c3.4,0,6.2-2.7,6.2-6.1S88.2,21.7,84.8,21.7z M84.8,31
		c-1.8,0-3.2-1.4-3.2-3.2c0-1.8,1.5-3.2,3.2-3.2c1.8,0,3.2,1.4,3.2,3.2C88,29.5,86.6,31,84.8,31z"/>
	<path class="st1" d="M61.1,18.3v15.3c0,0.1,0.1,0.3,0.3,0.3H64c0.1,0,0.3-0.1,0.3-0.3v-9.3l3.3,5.3l0,0c0,0.1,0.1,0.1,0.2,0.1l0,0
		l1.7,0l0,0c0.1,0,0.1,0,0.2-0.1l0,0l3.4-5.3l0,9.3l0,0c0,0.1,0.1,0.3,0.3,0.3l0,0h2.6l0,0c0.1,0,0.3-0.1,0.3-0.3l0,0V18.3l0,0l0,0
		c0-0.1-0.1-0.3-0.3-0.3h-2.6c-0.1,0-0.2,0.1-0.2,0.1l0,0L68.6,26l-4.4-7.8l0,0c0-0.1-0.1-0.1-0.2-0.1h-2.6
		C61.2,18.1,61.1,18.2,61.1,18.3"/>
	<path class="st1" d="M118.7,33.5L114,21.9c0-0.1-0.1-0.2-0.2-0.2h-2.6c-0.1,0-0.2,0.1-0.2,0.1l0,0c0,0,0,0,0,0l-4.8,11.6l0,0
		c0,0,0,0.1,0,0.1c0,0.1,0.1,0.3,0.3,0.3h2.6c0.1,0,0.2-0.1,0.2-0.2l0,0l0.6-1.7c0.8,0.3,1.6,0.5,2.6,0.5c0.9,0,1.8-0.2,2.5-0.5
		l0.7,1.7c0,0.1,0.1,0.2,0.2,0.2h2.6c0.1,0,0.3-0.1,0.3-0.3C118.7,33.6,118.7,33.5,118.7,33.5z M112.4,29.8c-0.6,0-1.2-0.1-1.7-0.3
		l1.3-3.6l0,0c0-0.1,0.1-0.2,0.2-0.2c0.1,0,0.2,0.1,0.2,0.2l0,0l1.4,3.7C113.5,29.7,113,29.8,112.4,29.8z"/>
	<path class="st1" d="M124,21.7h-2.6c-0.1,0-0.3,0.1-0.3,0.3v11.6c0,0.1,0.1,0.3,0.3,0.3h2.6c0.1,0,0.3-0.1,0.3-0.3V22
		C124.3,21.8,124.1,21.7,124,21.7z"/>
	<path class="st1" d="M124,18.1h-2.6c-0.1,0-0.3,0.1-0.3,0.3v1.8c0,0.1,0.1,0.3,0.3,0.3h2.6c0.1,0,0.3-0.1,0.3-0.3v-1.8
		C124.3,18.2,124.1,18.1,124,18.1z"/>
	<path class="st1" d="M136.7,24.5L136.7,24.5L136.7,24.5c0,0.1,0,0.1-0.1,0.2l0,0l-5.9,6.2l5.8,0c0.1,0,0.3,0.1,0.3,0.3l0,0l0,2.5
		l0,0c0,0,0,0,0,0c0,0.1-0.1,0.3-0.3,0.3h-9.5c-0.1,0-0.3-0.1-0.3-0.3l0-2.5c0-0.1,0-0.1,0.1-0.2l0,0l5.7-6.1l-5.5,0c0,0,0,0,0,0
		c-0.1,0-0.3-0.1-0.3-0.3l0-2.6c0-0.1,0.1-0.3,0.3-0.3h9.5c0.1,0,0.3,0.1,0.3,0.3L136.7,24.5L136.7,24.5z"/>
	<path class="st1" d="M149.8,24.3L149.8,24.3c-1.1-1.5-2.8-2.5-4.8-2.5c-2,0-3.7,1-4.8,2.6h0c-0.7,1-1.2,2.2-1.2,3.5
		c0,3.3,2.9,6.1,6.4,6.1c1.8,0,3.5-0.8,4.6-1.9l0,0c0,0,0,0,0,0l0,0c0,0,0.1-0.1,0.1-0.2c0-0.1,0-0.1-0.1-0.2v0l-1.4-1.5
		c0-0.1-0.1-0.1-0.2-0.1c-0.1,0-0.1,0-0.2,0.1c0,0,0,0,0,0c-0.6,0.6-1.5,1-2.6,1c-1.8,0-3.2-1-3.2-2.2h8.3c0.2,0,0.3-0.1,0.3-0.3
		v-0.8C151,26.5,150.5,25.3,149.8,24.3z M142.4,26.9c0-1.4,1.2-2.5,2.6-2.5c1.4,0,2.6,1.1,2.6,2.5H142.4z"/>
</g>
</svg>
