<?xml version="1.0" encoding="utf-8"?>
<!-- Generator: Adobe Illustrator 21.0.0, SVG Export Plug-In . SVG Version: 6.00 Build 0)  -->
<svg version="1.1" id="Calque_1" xmlns="http://www.w3.org/2000/svg" xmlns:xlink="http://www.w3.org/1999/xlink" x="0px" y="0px"
	 width="271.8px" height="117.8px" viewBox="0 0 271.8 117.8" style="enable-background:new 0 0 271.8 117.8;" xml:space="preserve"
	>
<style type="text/css">
	.st0{fill:none;}
	.st1{fill:#F9F8FA;}
	.st2{fill:#DFE2EC;}
	.st3{fill:#FFFFFF;}
	.st4{fill:#1EB0DC;}
</style>
<g>
	<path class="st0" d="M19.3,43.2C12.1,43.2,6,41,2.7,37.7c0.4,4.4,7.8,8.1,16.6,8.1c2.5,0,4.9-0.3,7-0.8l-0.5-2.4
		C23.8,42.9,21.6,43.2,19.3,43.2z"/>
	<path class="st0" d="M19.3,23.8c-9,0-16.6,3.9-16.6,8.5s7.6,8.5,16.6,8.5s16.6-3.9,16.6-8.5S28.3,23.8,19.3,23.8z M6.1,33.6
		c0,0-0.1,0-0.1,0c-0.2,0-0.3-0.1-0.4-0.3c-0.1-0.3-0.2-0.7-0.2-1.1c0-0.3,0.1-0.7,0.2-1C5.7,31.1,5.9,31,6.1,31
		c0.2,0.1,0.3,0.3,0.2,0.5c-0.1,0.3-0.1,0.5-0.1,0.8c0,0.3,0,0.6,0.1,0.8C6.4,33.4,6.3,33.6,6.1,33.6z M6.7,29.5
		c0.4-0.5,0.9-0.9,1.5-1.3c0.2-0.1,0.4-0.1,0.5,0.1c0.1,0.2,0.1,0.4-0.1,0.5c-0.6,0.4-1,0.7-1.4,1.2c-0.1,0.1-0.2,0.1-0.3,0.1
		c-0.1,0-0.2,0-0.3-0.1C6.5,29.9,6.5,29.7,6.7,29.5z M8.8,36.3c-0.1,0.1-0.2,0.2-0.3,0.2c-0.1,0-0.1,0-0.2-0.1
		c-0.6-0.4-1.1-0.8-1.5-1.3c-0.1-0.2-0.1-0.4,0-0.5c0.2-0.1,0.4-0.1,0.5,0c0.4,0.4,0.8,0.8,1.4,1.1C8.8,35.9,8.9,36.1,8.8,36.3z
		 M10,27.3c0.6-0.2,1.2-0.5,1.8-0.7c0.2-0.1,0.4,0.1,0.5,0.3c0.1,0.2-0.1,0.4-0.3,0.5c-0.6,0.2-1.2,0.4-1.8,0.6c0,0-0.1,0-0.1,0
		C10,28,9.8,28,9.8,27.8C9.7,27.6,9.8,27.4,10,27.3z M12.3,37.8c0,0.2-0.2,0.3-0.4,0.3c0,0-0.1,0-0.1,0c-0.6-0.2-1.3-0.4-1.8-0.7
		c-0.2-0.1-0.3-0.3-0.2-0.5c0.1-0.2,0.3-0.3,0.5-0.2c0.5,0.2,1.1,0.5,1.8,0.6C12.2,37.4,12.4,37.6,12.3,37.8z M13.7,26.2
		c0.6-0.1,1.3-0.2,1.9-0.3c0.2,0,0.4,0.1,0.4,0.3c0,0.2-0.1,0.4-0.3,0.4c-0.6,0.1-1.3,0.2-1.9,0.3c0,0,0,0-0.1,0
		c-0.2,0-0.3-0.1-0.4-0.3C13.4,26.4,13.5,26.2,13.7,26.2z M15.7,38.8C15.7,38.8,15.7,38.8,15.7,38.8c-0.7-0.1-1.3-0.2-2-0.3
		c-0.2,0-0.3-0.2-0.3-0.4s0.2-0.3,0.4-0.3c0.6,0.1,1.2,0.2,1.9,0.3c0.2,0,0.4,0.2,0.3,0.4C16,38.6,15.9,38.8,15.7,38.8z M18.6,39
		c-0.3,0-0.7,0-1,0c-0.2,0-0.4-0.2-0.4-0.4c0-0.2,0.2-0.4,0.4-0.4c0.3,0,0.7,0,1,0c0.2,0,0.4,0.2,0.4,0.4S18.8,39,18.6,39z
		 M18.6,26.5c-0.3,0-0.7,0-1,0c0,0,0,0,0,0c-0.2,0-0.4-0.2-0.4-0.4c0-0.2,0.2-0.4,0.4-0.4c0.3,0,0.7,0,1,0c0.2,0,0.4,0.2,0.4,0.4
		S18.8,26.5,18.6,26.5z"/>
	<path class="st0" d="M227.2,93.3c-0.5-0.6-0.9-1.3-1.2-1.9c-9.7,0.5-17.7,5-17.7,10.2c0,5.6,8.8,10.3,19.3,10.3
		c8.2,0,15.5-2.9,18.2-6.9c-2.1-0.5-4.3-1.3-6.4-2.2C234.2,100.4,229.9,97,227.2,93.3z"/>
	<path class="st0" d="M211.4,110c3.5,2.9,9.5,4.8,16.2,4.8s12.8-2,16.2-4.8c-3.9,2.6-9.7,4.2-16.2,4.2S215.3,112.6,211.4,110z"/>
	<path class="st0" d="M145,56.9c-4.8-0.4-8.9-1.4-12.1-2.8c4.4,2.7,10.2,3.9,15.8,4.2c0.2,0,0.3,0,0.5,0c3,0.1,6-0.1,8.6-0.5
		c11.5-1.7,21.5-6.2,26.9-11.7C175.6,53.5,159.4,58.1,145,56.9z"/>
	<path class="st0" d="M262.8,96.9c-0.1-0.2,0-0.4,0.2-0.5c0.2-0.1,0.4-0.2,0.6-0.3c0.8-2.3,0-5.2-2.1-8.2c-2.5-3.4-6.5-6.5-11.3-8.7
		c-4.2-1.9-8.5-2.9-12.3-2.9c-0.6,0-1.1,0-1.6,0.1c-4,0.3-6.8,1.8-7.9,4.2c-0.3,0.6-0.5,1.3-0.5,2c-0.3,5,5.4,11.5,13.7,15.4
		c4.8,2.2,9.7,3.2,14,2.9c0.8-0.1,1.6-0.2,2.4-0.4c2.5-0.6,4.3-1.7,5.2-3.3C263,97.1,262.9,97,262.8,96.9z M233.1,86.7
		c-0.1,0-0.1,0.1-0.2,0.1c-0.1,0-0.2-0.1-0.3-0.2c-0.4-0.6-0.7-1.2-1-1.8c-0.1-0.2,0-0.4,0.2-0.5s0.4,0,0.5,0.2
		c0.2,0.6,0.5,1.1,0.9,1.7C233.3,86.4,233.2,86.6,233.1,86.7z M235.7,89.7c-0.1,0.1-0.2,0.1-0.3,0.1c-0.1,0-0.2,0-0.3-0.1
		c-0.5-0.5-1-1-1.4-1.5c-0.1-0.2-0.1-0.4,0-0.5c0.2-0.1,0.4-0.1,0.5,0c0.4,0.5,0.9,1,1.3,1.4C235.8,89.3,235.8,89.6,235.7,89.7z
		 M238.8,92.2c-0.1,0.1-0.2,0.2-0.3,0.2c-0.1,0-0.1,0-0.2-0.1c-0.6-0.4-1.1-0.8-1.6-1.2c-0.2-0.1-0.2-0.4-0.1-0.5
		c0.1-0.2,0.4-0.2,0.5-0.1c0.5,0.4,1,0.8,1.6,1.2C238.9,91.8,239,92,238.8,92.2z M242.3,94.2c-0.1,0.1-0.2,0.2-0.3,0.2
		c-0.1,0-0.1,0-0.2,0c-0.6-0.3-1.2-0.6-1.8-1c-0.2-0.1-0.2-0.3-0.1-0.5c0.1-0.2,0.3-0.2,0.5-0.1c0.6,0.3,1.1,0.7,1.7,1
		C242.3,93.8,242.4,94,242.3,94.2z M246,95.8c-0.1,0.1-0.2,0.2-0.3,0.2c0,0-0.1,0-0.1,0c-0.6-0.2-1.3-0.5-1.9-0.8
		c-0.2-0.1-0.3-0.3-0.2-0.5c0.1-0.2,0.3-0.3,0.5-0.2c0.6,0.3,1.2,0.5,1.8,0.8C245.9,95.4,246,95.6,246,95.8z M249.8,97
		c0,0.2-0.2,0.3-0.4,0.3c0,0-0.1,0-0.1,0c-0.6-0.2-1.3-0.4-1.9-0.6c-0.2-0.1-0.3-0.3-0.2-0.5c0.1-0.2,0.3-0.3,0.5-0.2
		c0.6,0.2,1.3,0.4,1.9,0.6C249.7,96.6,249.8,96.8,249.8,97z M253.3,98C253.3,98,253.3,98,253.3,98c-0.7-0.1-1.4-0.2-2-0.3
		c-0.2,0-0.3-0.2-0.3-0.4c0-0.2,0.2-0.3,0.4-0.3c0.7,0.1,1.3,0.2,1.9,0.3c0.2,0,0.3,0.2,0.3,0.4C253.7,97.9,253.5,98,253.3,98z
		 M257.3,98.3l-0.5,0c0,0-0.1,0-0.1,0c-0.5,0-0.9,0-1.4,0c-0.2,0-0.4-0.2-0.4-0.4c0-0.2,0.2-0.4,0.4-0.4c0.3,0,0.6,0,0.9,0
		c0.2,0,0.4,0,0.6,0l0.5,0c0.3,0,0.4,0.2,0.4,0.4S257.5,98.3,257.3,98.3z M261.4,97.7c-0.6,0.2-1.3,0.3-2,0.4c0,0,0,0,0,0
		c-0.2,0-0.3-0.1-0.4-0.3c0-0.2,0.1-0.4,0.3-0.4c0.7-0.1,1.3-0.2,1.9-0.4c0.2-0.1,0.4,0.1,0.5,0.3C261.7,97.5,261.6,97.7,261.4,97.7
		z"/>
	<path class="st0" d="M100.1,3.6c-2.4-0.2-5.8,0.9-7.2,2.3L34.1,65.6c-0.3,0.3-0.4,0.5-0.4,0.6c0.1,0.1,0.6,0.3,1.5,0.4l28.7,2.5
		l62.3-63.2L100.1,3.6z M87.3,16.3c1.1-1.1,3.4-1.8,5.1-1.7c1.8,0.2,2.3,1.2,1.3,2.2c-1.1,1.1-3.4,1.8-5.1,1.7
		C86.8,18.4,86.3,17.4,87.3,16.3z M60.6,58.3c-0.5,0.5-1.6,0.9-2.4,0.8l-10.5-0.9c-0.8-0.1-1.1-0.5-0.6-1v0c0.5-0.5,1.6-0.9,2.4-0.8
		l10.5,0.9C60.9,57.3,61.1,57.8,60.6,58.3z M82.6,46.5c-0.5,0.5-1.6,0.9-2.4,0.8l-20-1.7c-0.8-0.1-1.1-0.5-0.6-1
		c0.5-0.5,1.6-0.9,2.4-0.8l20,1.7C82.8,45.5,83.1,46,82.6,46.5z M89.7,39.2c-0.5,0.5-1.6,0.9-2.4,0.8l-20-1.7
		c-0.8-0.1-1.1-0.5-0.6-1s1.6-0.9,2.4-0.8l20,1.7C89.9,38.3,90.2,38.7,89.7,39.2z M96.8,32c-0.5,0.5-1.6,0.9-2.4,0.8l-20-1.7
		c-0.8-0.1-1.1-0.5-0.6-1c0.5-0.5,1.6-0.9,2.4-0.8l20,1.7C97.1,31,97.3,31.5,96.8,32z M108,19.1l-10.5-0.9c-0.8-0.1-1.1-0.5-0.6-1
		c0.5-0.5,1.6-0.9,2.4-0.8l10.5,0.9c0.8,0.1,1.1,0.5,0.6,1C109.9,18.8,108.8,19.1,108,19.1z"/>
	<path class="st1" d="M268,26.3l-5.8-0.5l-54.2,55c-1.9,1.9-5.6,3.3-8.8,3.3c-0.3,0-0.6,0-0.9,0L41.4,70.3l-4.1,4.2
		c-1.8,1.8-0.8,3.4,2.1,3.7l163.4,14.3c2.9,0.3,6.7-1,8.5-2.8L270.1,30C271.8,28.2,270.9,26.6,268,26.3z"/>
	<path class="st2" d="M199.2,84c3.2,0,6.9-1.4,8.8-3.3l54.2-55l4.7-4.7c1.7-1.7,1.4-3.2,1.2-3.9c-0.3-0.8-1.3-2.3-4.2-2.5L251,13.6
		c-0.9-0.1-1.7,0.6-1.7,1.5c-0.1,0.9,0.6,1.7,1.5,1.7l12.7,1.1c0.9,0.1,1.3,0.3,1.5,0.4c0,0.1-0.1,0.3-0.4,0.6l-58.8,59.7
		c-1.4,1.4-4.8,2.5-7.2,2.3L68,69.4l62.3-63.2l75.7,6.6c0.9,0.1,1.7-0.6,1.7-1.5c0.1-0.9-0.6-1.7-1.5-1.7L100.4,0.4
		c-3.4-0.3-7.7,1.1-9.8,3.3L31.8,63.3c-1.7,1.7-1.4,3.2-1.2,3.9c0.3,0.8,1.3,2.3,4.2,2.5l6.5,0.6L198.3,84
		C198.6,84,198.9,84,199.2,84z M35.2,66.6c-0.9-0.1-1.3-0.3-1.5-0.4c0-0.1,0.1-0.3,0.4-0.6L92.9,5.9c1.4-1.4,4.8-2.5,7.2-2.3l26,2.3
		L63.8,69.1L35.2,66.6z"/>
	<path class="st2" d="M96.2,31l-20-1.7c-0.8-0.1-1.9,0.3-2.4,0.8c-0.5,0.5-0.2,1,0.6,1l20,1.7c0.8,0.1,1.9-0.3,2.4-0.8
		C97.3,31.5,97.1,31,96.2,31z"/>
	<path class="st2" d="M89.1,38.2l-20-1.7c-0.8-0.1-1.9,0.3-2.4,0.8s-0.2,1,0.6,1l20,1.7c0.8,0.1,1.9-0.3,2.4-0.8
		C90.2,38.7,89.9,38.3,89.1,38.2z"/>
	<path class="st2" d="M82,45.4l-20-1.7c-0.8-0.1-1.9,0.3-2.4,0.8c-0.5,0.5-0.2,1,0.6,1l20,1.7c0.8,0.1,1.9-0.3,2.4-0.8
		C83.1,46,82.8,45.5,82,45.4z"/>
	<path class="st2" d="M60.1,57.2l-10.5-0.9c-0.8-0.1-1.9,0.3-2.4,0.8v0c-0.5,0.5-0.2,1,0.6,1l10.5,0.9c0.8,0.1,1.9-0.3,2.4-0.8
		C61.1,57.8,60.9,57.3,60.1,57.2z"/>
	<path class="st2" d="M109.8,17.2l-10.5-0.9c-0.8-0.1-1.9,0.3-2.4,0.8c-0.5,0.5-0.2,1,0.6,1l10.5,0.9c0.8,0.1,1.9-0.3,2.4-0.8
		C110.9,17.8,110.6,17.3,109.8,17.2z"/>
	<path class="st2" d="M88.6,18.6c1.8,0.2,4.1-0.6,5.1-1.7c1.1-1.1,0.5-2.1-1.3-2.2c-1.8-0.2-4.1,0.6-5.1,1.7
		C86.3,17.4,86.8,18.4,88.6,18.6z"/>
	<path class="st3" d="M170,22.2c-3.8-0.3-7.8-0.2-11.7,0.3c-0.1,0.1-0.3,0.1-0.5,0.1c-0.1,0-0.1,0-0.2,0c-12.1,1.7-23.5,7-28.4,13.9
		c-6.6,9.2,0.9,17.7,16.8,19c15.9,1.3,34.2-5.1,40.8-14.3C193.4,32.1,185.9,23.5,170,22.2z M143.7,45c-0.4,0.3-1,0.4-1.5,0.4
		l-6.9-0.6c-0.7-0.1-1-0.4-0.7-0.8c0-0.1,0.1-0.1,0.2-0.2l13.9-11.2c0.2-0.1,0.5-0.2,0.8-0.2c0.3,0,0.5,0.2,0.4,0.3l0,0l-2.6,9.6
		L143.7,45z M157.7,43.3c-0.2,0.9-0.3,1.8-0.7,2.7c-0.1,0.3-0.7,0.5-1.2,0.4l-1.7-0.1l-3.1-0.3l-1-0.1l-0.6,0
		c-0.4,0-0.6-0.1-0.8-0.2c-0.3-0.2-0.3-0.5-0.2-0.8c0,0,0-0.1,0-0.1h0l3.3-13.3c-0.1,0-0.7,0.2-0.8,0.2c-0.2,0-0.4,0.1-0.6,0
		c-0.3-0.1-0.2-0.3,0-0.5c0.5-0.4,1.3-0.5,2-0.5c0.8,0,1.5,0.1,2.2,0.1c1.1,0.1,2.1,0.2,3.2,0.3c0.5,0,1,0.1,1.6,0.1
		c0.4,0,0.8,0.1,1.1,0.2c0.3,0.2,0.3,0.5,0.2,0.7c-0.1,0.5-0.3,1.1-0.4,1.6c-0.6,2.3-1.2,4.6-1.8,6.9
		C158.2,41.5,158,42.4,157.7,43.3z M160.4,44.9L160.4,44.9c-0.2,0.1-0.4,0.2-0.7,0.2c-0.2,0-0.4-0.1-0.3-0.2l0,0l2.1-9.4l2.2-1.8
		l0,0c0.1-0.1,0.4-0.2,0.7-0.2c0.3,0,0.4,0.1,0.3,0.3l0,0l-2.2,9.7L160.4,44.9z M175.4,33.3c-0.1,0.5-0.3,1.1-0.4,1.6
		c-0.6,2.3-1.2,4.6-1.8,6.9c-0.2,0.9-0.5,1.8-0.7,2.7c-0.2,0.9-0.3,1.8-0.7,2.7c-0.1,0.3-0.7,0.5-1.2,0.4l-1.7-0.1l-3.1-0.3l-1-0.1
		l-0.6,0c-0.4,0-0.6-0.1-0.8-0.2c-0.3-0.2-0.3-0.5-0.2-0.8c0,0,0-0.1,0-0.1l0,0l3.3-13.3c-0.1,0-0.7,0.2-0.8,0.2
		c-0.2,0-0.4,0.1-0.6,0c-0.3-0.1-0.2-0.3,0-0.5c0.5-0.4,1.3-0.5,2-0.5c0.8,0,1.5,0.1,2.2,0.1c1.1,0.1,2.1,0.2,3.2,0.3
		c0.5,0,1,0.1,1.6,0.1c0.4,0,0.8,0.1,1.1,0.2C175.5,32.8,175.5,33.1,175.4,33.3z"/>
	<path class="st4" d="M175.2,32.6c-0.3-0.1-0.7-0.2-1.1-0.2c-0.5,0-1-0.1-1.6-0.1c-1.1-0.1-2.1-0.2-3.2-0.3
		c-0.7-0.1-1.4-0.1-2.2-0.1c-0.7,0-1.5,0.2-2,0.5c-0.2,0.2-0.3,0.4,0,0.5c0.2,0.1,0.4,0,0.6,0c0.1,0,0.7-0.2,0.8-0.2l-3.3,13.3l0,0
		c0,0,0,0.1,0,0.1c-0.1,0.3-0.1,0.6,0.2,0.8c0.2,0.1,0.4,0.2,0.8,0.2l0.6,0l1,0.1l3.1,0.3l1.7,0.1c0.5,0,1.1-0.1,1.2-0.4
		c0.4-0.9,0.5-1.8,0.7-2.7c0.2-0.9,0.5-1.8,0.7-2.7c0.6-2.3,1.2-4.6,1.8-6.9c0.1-0.5,0.3-1.1,0.4-1.6
		C175.5,33.1,175.5,32.8,175.2,32.6z"/>
	<path class="st4" d="M160.6,32.1c0.1-0.3,0.1-0.5-0.2-0.7c-0.3-0.1-0.7-0.2-1.1-0.2c-0.5,0-1-0.1-1.6-0.1c-1.1-0.1-2.1-0.2-3.2-0.3
		c-0.7-0.1-1.4-0.1-2.2-0.1c-0.7,0-1.5,0.2-2,0.5c-0.2,0.2-0.3,0.4,0,0.5c0.2,0.1,0.4,0,0.6,0c0.1,0,0.7-0.2,0.8-0.2l-3.3,13.3h0
		c0,0,0,0.1,0,0.1c-0.1,0.3-0.1,0.6,0.2,0.8c0.2,0.1,0.4,0.2,0.8,0.2l0.6,0l1,0.1l3.1,0.3l1.7,0.1c0.5,0,1.1-0.1,1.2-0.4
		c0.4-0.9,0.5-1.8,0.7-2.7c0.2-0.9,0.5-1.8,0.7-2.7c0.6-2.3,1.2-4.6,1.8-6.9C160.3,33.2,160.5,32.6,160.6,32.1z"/>
	<path class="st4" d="M149.8,32.7c0.1-0.2-0.1-0.3-0.4-0.3c-0.3,0-0.6,0.1-0.8,0.2l-13.9,11.2c-0.1,0.1-0.1,0.1-0.2,0.2
		c-0.3,0.4,0,0.8,0.7,0.8l6.9,0.6c0.5,0,1.1-0.1,1.5-0.4l3.5-2.7L149.8,32.7L149.8,32.7z"/>
	<path class="st4" d="M164.7,33.6c0-0.1-0.1-0.3-0.3-0.3c-0.2,0-0.5,0.1-0.7,0.2l0,0l-2.2,1.8l-2.1,9.4l0,0c0,0.1,0.1,0.2,0.3,0.2
		c0.2,0,0.5-0.1,0.6-0.2l0,0l2.1-1.6L164.7,33.6L164.7,33.6z"/>
	<path class="st3" d="M254,103.2c-4.2,0-8.8-1.1-13.3-3.2c-6-2.8-10.6-6.7-13.1-10.8c0.4,0.9,0.9,1.7,1.5,2.6
		c2.5,3.4,6.5,6.5,11.3,8.7c4.8,2.2,9.7,3.2,14,2.9c1.1-0.1,2.2-0.3,3.1-0.6c-0.5,0.1-1.1,0.2-1.7,0.2
		C255.2,103.2,254.6,103.2,254,103.2z"/>
	<path class="st2" d="M266,94.5c-0.2-0.1-0.2-0.3-0.1-0.5c0.1-0.2,0.2-0.4,0.3-0.7c0,0,0-0.1,0-0.1c-0.2-2.1-1.2-4.4-2.8-6.7
		c-2.7-3.7-7.1-7.1-12.2-9.5c-5.1-2.4-10.5-3.5-15.1-3.1c-4.9,0.4-8.3,2.4-9.8,5.6l-1.2,2.7c-0.9,2-0.9,4.4-0.1,6.8
		c-10.8,0.8-19,6-19,12.5v3c0,7.1,9.5,12.7,21.6,12.7c11.5,0,20.7-5,21.6-11.6c1.2,0.2,2.4,0.3,3.6,0.3c0.6,0,1.2,0,1.8-0.1
		c4.9-0.4,8.3-2.4,9.8-5.6l1.2-2.7c0.4-1,0.7-2,0.7-3c0,0-0.1,0-0.1,0C266.1,94.5,266,94.5,266,94.5z M227.6,114.9
		c-6.7,0-12.8-2-16.2-4.8c3.9,2.6,9.7,4.2,16.2,4.2s12.3-1.6,16.2-4.2C240.4,112.9,234.3,114.9,227.6,114.9z M227.6,111.9
		c-10.5,0-19.3-4.7-19.3-10.3c0-5.3,7.9-9.8,17.7-10.2c0.4,0.6,0.7,1.3,1.2,1.9c2.7,3.7,7.1,7.1,12.2,9.5c2.1,1,4.3,1.7,6.4,2.2
		C243.1,109,235.8,111.9,227.6,111.9z M254.3,103.5c-4.2,0.3-9.2-0.7-14-2.9c-4.8-2.2-8.8-5.3-11.3-8.7c-0.6-0.9-1.1-1.8-1.5-2.6
		c2.5,4.1,7.1,8,13.1,10.8c4.5,2.1,9.2,3.2,13.3,3.2c0.6,0,1.2,0,1.8-0.1c0.6,0,1.1-0.1,1.7-0.2
		C256.5,103.2,255.5,103.4,254.3,103.5z M265.1,96c-0.5,0.4-1.1,0.8-1.8,1.1c-0.1,0-0.1,0-0.2,0c0,0,0,0,0,0c-1,1.6-2.8,2.7-5.2,3.3
		c-0.7,0.2-1.5,0.3-2.4,0.4c-4.2,0.3-9.2-0.7-14-2.9c-8.3-3.8-14-10.4-13.7-15.4c0-0.7,0.2-1.4,0.5-2c1.1-2.4,3.9-3.9,7.9-4.2
		c0.5,0,1.1-0.1,1.6-0.1c3.8,0,8.2,1,12.3,2.9c4.8,2.2,8.8,5.3,11.3,8.7c2.2,3,2.9,5.9,2.1,8.2c0.4-0.2,0.7-0.4,1-0.7
		c0.2-0.1,0.4-0.1,0.5,0.1C265.3,95.6,265.3,95.8,265.1,96z"/>
	<path class="st3" d="M235,6.1c2,0.5,3.9,1.3,5.5,2.2C238.9,7.4,237,6.6,235,6.1z"/>
	<path class="st3" d="M243.4,10.5c-0.4-0.4-0.8-0.8-1.3-1.1C242.5,9.8,243,10.1,243.4,10.5L243.4,10.5z"/>
	<path class="st3" d="M217.3,20.6c0.7,0,1,0.5,0.5,0.9l-2.4,1.6c2.7,2.9,7.5,4.7,12.7,4.7c7.9,0,14.5-4,15.3-9.3
		c0.1-0.6,0.8-1,1.7-0.9c0.8,0.1,1.4,0.5,1.4,1.1c0.1-0.4,0.1-0.7,0.1-1.1c0-1.1-0.2-2.1-0.6-3.1c-0.1,0-0.1,0-0.2,0h-6.5
		c-0.7,0-1-0.5-0.5-0.9l2.4-1.6c-2.7-2.9-7.5-4.7-12.7-4.7c-7.9,0-14.5,4-15.3,9.3c-0.1,0.5-0.8,0.9-1.5,0.9c0,0-0.1,0-0.1,0
		c-0.8-0.1-1.4-0.5-1.4-1.1c-0.1,0.4-0.1,0.7-0.1,1.1c0,1.1,0.2,2.1,0.6,3.1c0.1,0,0.1,0,0.2,0H217.3z"/>
	<path class="st3" d="M221.6,28.9c-2.7-0.7-5.1-1.8-7-3.2C216.5,27.1,218.9,28.2,221.6,28.9z"/>
	<path class="st4" d="M211.5,17.5c0,0,0.1,0,0.1,0c0.8,0,1.4-0.4,1.5-0.9c0.8-5.3,7.4-9.3,15.3-9.3c5.2,0,10,1.8,12.7,4.7l-2.4,1.6
		c-0.5,0.3-0.2,0.9,0.5,0.9h6.5c0.1,0,0.1,0,0.2,0c0.3,0,0.6-0.2,0.6-0.5l0.1-4.4c0-0.5-0.8-0.7-1.3-0.4l-2,1.3l0,0
		c-0.4-0.4-0.8-0.8-1.3-1.1c0,0-0.1-0.1-0.1-0.1c-0.5-0.3-0.9-0.7-1.5-1c0,0,0,0,0,0c-1.6-1-3.5-1.7-5.5-2.2c0,0-0.1,0-0.1,0
		c-0.6-0.1-1.2-0.3-1.8-0.4c-0.1,0-0.3,0-0.4-0.1c-0.5-0.1-1.1-0.2-1.7-0.2c-0.2,0-0.3,0-0.5,0c-0.7-0.1-1.4-0.1-2.1-0.1
		c-0.6,0-1.2,0-1.8,0.1c-0.1,0-0.2,0-0.3,0c-0.5,0-1,0.1-1.5,0.2c-0.1,0-0.1,0-0.2,0c-0.5,0.1-1.1,0.2-1.6,0.3c0,0,0,0,0,0
		c-5.1,1-9.3,3.5-11.4,6.8c0,0.1-0.1,0.1-0.1,0.2c-0.2,0.3-0.3,0.5-0.4,0.8c-0.1,0.1-0.1,0.3-0.2,0.4c-0.1,0.2-0.1,0.4-0.2,0.5
		c-0.1,0.2-0.2,0.4-0.2,0.7c0,0.1,0,0.2-0.1,0.3c-0.1,0.3-0.2,0.6-0.2,0.9c0,0,0,0,0,0c0,0,0,0,0,0C210,17,210.6,17.5,211.5,17.5z"
		/>
	<path class="st4" d="M211.2,25.8l2-1.3c0,0,0,0,0,0c0.4,0.4,0.8,0.8,1.3,1.1c0,0,0.1,0.1,0.1,0.1c1.9,1.4,4.3,2.5,7,3.2
		c0,0,0,0,0,0c0.6,0.2,1.3,0.3,1.9,0.4c0.1,0,0.2,0,0.3,0.1c0.6,0.1,1.1,0.2,1.7,0.2c0.1,0,0.3,0,0.4,0c0.7,0.1,1.4,0.1,2.1,0.1
		c0.6,0,1.2,0,1.8-0.1c0.1,0,0.2,0,0.3,0c0.5,0,1-0.1,1.5-0.2c0.1,0,0.1,0,0.2,0c0.5-0.1,1.1-0.2,1.6-0.3c0,0,0,0,0,0
		c5.1-1,9.3-3.5,11.4-6.8c0-0.1,0.1-0.1,0.1-0.2c0.2-0.3,0.3-0.5,0.4-0.8c0.1-0.1,0.1-0.3,0.2-0.4c0.1-0.2,0.1-0.4,0.2-0.5
		c0.1-0.2,0.2-0.4,0.2-0.7c0-0.1,0-0.2,0.1-0.3c0.1-0.3,0.2-0.6,0.2-0.9c0,0,0,0,0,0c0,0,0,0,0,0c0.1-0.6-0.5-1.1-1.4-1.1
		c-0.8-0.1-1.6,0.4-1.7,0.9c-0.8,5.3-7.4,9.3-15.3,9.3c-5.2,0-10-1.8-12.7-4.7l2.4-1.6c0.5-0.3,0.2-0.9-0.5-0.9h-6.5
		c-0.1,0-0.1,0-0.2,0c-0.3,0-0.6,0.2-0.6,0.5l-0.1,4.4C209.9,25.9,210.7,26.1,211.2,25.8z"/>
	<path class="st4" d="M183.1,56.9c-0.2,0.2-0.2,0.5,0,0.7l5.5,5.4c0.1,0.1,0.2,0.1,0.3,0.1c0.1,0,0.3-0.1,0.4-0.2
		c0.2-0.2,0.2-0.5,0-0.7l-5.5-5.4C183.6,56.7,183.3,56.7,183.1,56.9z"/>
	<path class="st4" d="M191.8,55.3c0.2,0,0.4-0.1,0.5-0.4c0.1-0.3-0.1-0.5-0.4-0.6l-4.5-1.2c-0.3-0.1-0.5,0.1-0.6,0.4
		c-0.1,0.3,0.1,0.5,0.4,0.6l4.5,1.2C191.8,55.3,191.8,55.3,191.8,55.3z"/>
	<path class="st4" d="M129.6,26.2c0.1,0,0.1,0,0.2,0c0.2,0,0.4-0.1,0.5-0.3c0.1-0.3-0.1-0.5-0.3-0.6l-6.9-2.2
		c-0.3-0.1-0.5,0.1-0.6,0.3c-0.1,0.3,0.1,0.5,0.3,0.6L129.6,26.2z"/>
	<path class="st4" d="M132.9,23.2c0.1,0,0.1,0,0.2,0c0.3-0.1,0.4-0.4,0.3-0.7l-1.2-2.9c-0.1-0.3-0.4-0.4-0.7-0.3
		c-0.3,0.1-0.4,0.4-0.3,0.7l1.2,2.9C132.5,23.1,132.7,23.2,132.9,23.2z"/>
	<path class="st3" d="M26.3,44.9c5.4-1.3,9.3-4.1,9.5-7.3c-2.2,2.2-5.7,4-10,4.8L26.3,44.9z"/>
	<path class="st2" d="M38.3,37.3V33c0-0.1,0-0.1,0-0.2c0-0.2,0-0.3,0-0.5c0-6.1-8.3-10.8-19-10.8s-19,4.8-19,10.8
		c0,0.4,0,0.8,0.1,1.1c-0.1,0.1-0.1,0.3-0.1,0.5v3.4c0,6.1,8.3,10.8,19,10.8S38.3,43.4,38.3,37.3z M26.3,44.9
		c-2.1,0.5-4.5,0.8-7,0.8c-8.7,0-16.2-3.7-16.6-8.1c3.2,3.3,9.4,5.5,16.6,5.5c2.3,0,4.5-0.2,6.6-0.7c4.3-0.9,7.8-2.6,10-4.8
		C35.6,40.8,31.7,43.6,26.3,44.9z M19.3,40.8c-9,0-16.6-3.9-16.6-8.5s7.6-8.5,16.6-8.5s16.6,3.9,16.6,8.5S28.3,40.8,19.3,40.8z"/>
	<path class="st4" d="M18.6,38.2c-0.3,0-0.7,0-1,0c-0.2,0-0.4,0.2-0.4,0.4c0,0.2,0.2,0.4,0.4,0.4c0.3,0,0.7,0,1,0
		c0.2,0,0.4-0.2,0.4-0.4S18.8,38.2,18.6,38.2z"/>
	<path class="st4" d="M6.9,30.1c0.1,0,0.2,0,0.3-0.1c0.4-0.4,0.8-0.8,1.4-1.2c0.2-0.1,0.2-0.3,0.1-0.5c-0.1-0.2-0.3-0.2-0.5-0.1
		c-0.6,0.4-1.1,0.8-1.5,1.3c-0.1,0.2-0.1,0.4,0,0.5C6.8,30.1,6.9,30.1,6.9,30.1z"/>
	<path class="st4" d="M6.2,32.3c0-0.3,0-0.6,0.1-0.8c0.1-0.2-0.1-0.4-0.2-0.5c-0.2-0.1-0.4,0.1-0.5,0.2c-0.1,0.3-0.2,0.7-0.2,1
		c0,0.4,0.1,0.7,0.2,1.1c0,0.2,0.2,0.3,0.4,0.3c0,0,0.1,0,0.1,0c0.2-0.1,0.3-0.3,0.2-0.5C6.3,32.9,6.2,32.6,6.2,32.3z"/>
	<path class="st4" d="M8.6,35.8c-0.6-0.4-1-0.7-1.4-1.1c-0.1-0.2-0.4-0.2-0.5,0c-0.2,0.1-0.2,0.4,0,0.5c0.4,0.5,0.9,0.9,1.5,1.3
		c0.1,0,0.1,0.1,0.2,0.1c0.1,0,0.2-0.1,0.3-0.2C8.9,36.1,8.8,35.9,8.6,35.8z"/>
	<path class="st4" d="M10.1,28c0.1,0,0.1,0,0.1,0c0.5-0.2,1.1-0.5,1.8-0.6c0.2-0.1,0.3-0.3,0.3-0.5c-0.1-0.2-0.3-0.3-0.5-0.3
		c-0.6,0.2-1.3,0.4-1.8,0.7c-0.2,0.1-0.3,0.3-0.2,0.5C9.8,28,10,28,10.1,28z"/>
	<path class="st4" d="M15.7,38c-0.6-0.1-1.3-0.2-1.9-0.3c-0.2,0-0.4,0.1-0.4,0.3s0.1,0.4,0.3,0.4c0.6,0.1,1.3,0.2,1.9,0.3
		c0,0,0,0,0,0c0.2,0,0.4-0.1,0.4-0.3C16.1,38.3,15.9,38.1,15.7,38z"/>
	<path class="st4" d="M13.8,26.9C13.8,26.9,13.8,26.9,13.8,26.9c0.7-0.1,1.3-0.2,1.9-0.3c0.2,0,0.4-0.2,0.3-0.4
		c0-0.2-0.2-0.3-0.4-0.3c-0.7,0.1-1.3,0.2-1.9,0.3c-0.2,0-0.3,0.2-0.3,0.4C13.4,26.8,13.6,26.9,13.8,26.9z"/>
	<path class="st4" d="M12,37.3c-0.6-0.2-1.2-0.4-1.8-0.6c-0.2-0.1-0.4,0-0.5,0.2c-0.1,0.2,0,0.4,0.2,0.5c0.6,0.2,1.2,0.5,1.8,0.7
		c0,0,0.1,0,0.1,0c0.2,0,0.3-0.1,0.4-0.3C12.4,37.6,12.2,37.4,12,37.3z"/>
	<path class="st4" d="M18.6,25.7c-0.3,0-0.7,0-1,0c-0.2,0-0.4,0.2-0.4,0.4c0,0.2,0.2,0.4,0.4,0.4c0,0,0,0,0,0c0.3,0,0.7,0,1,0
		c0.2,0,0.4-0.2,0.4-0.4S18.8,25.7,18.6,25.7z"/>
	<path class="st4" d="M264.6,95.4c-0.3,0.2-0.7,0.5-1,0.7c-0.2,0.1-0.4,0.2-0.6,0.3c-0.2,0.1-0.3,0.3-0.2,0.5
		c0.1,0.1,0.2,0.2,0.3,0.2c0,0,0,0,0,0c0.1,0,0.1,0,0.2,0c0.7-0.3,1.3-0.7,1.8-1.1c0.2-0.1,0.2-0.4,0.1-0.5
		C265,95.3,264.8,95.3,264.6,95.4z"/>
	<path class="st4" d="M261.2,97c-0.6,0.2-1.2,0.3-1.9,0.4c-0.2,0-0.4,0.2-0.3,0.4c0,0.2,0.2,0.3,0.4,0.3c0,0,0,0,0,0
		c0.7-0.1,1.4-0.2,2-0.4c0.2-0.1,0.3-0.3,0.3-0.5C261.6,97.1,261.4,97,261.2,97z"/>
	<path class="st4" d="M266.7,90.7C266.7,90.7,266.7,90.7,266.7,90.7c0.3-0.1,0.4-0.3,0.4-0.5c-0.1-0.6-0.4-1.3-0.7-2
		c-0.1-0.2-0.3-0.3-0.5-0.2c-0.2,0.1-0.3,0.3-0.2,0.5c0.3,0.6,0.5,1.2,0.6,1.8C266.4,90.6,266.5,90.7,266.7,90.7z"/>
	<path class="st4" d="M264.7,86.9c0.1,0.1,0.2,0.2,0.3,0.2c0.1,0,0.2,0,0.2-0.1c0.2-0.1,0.2-0.4,0.1-0.5c-0.4-0.5-0.8-1.1-1.3-1.6
		c-0.1-0.2-0.4-0.2-0.5,0c-0.2,0.1-0.2,0.4,0,0.5C263.9,85.9,264.3,86.4,264.7,86.9z"/>
	<path class="st4" d="M266.9,91.9c-0.2,0-0.4,0.1-0.4,0.3c0,0.3-0.1,0.6-0.2,0.9c0,0,0,0.1,0,0.1c-0.1,0.2-0.2,0.5-0.3,0.7
		c-0.1,0.2,0,0.4,0.1,0.5c0.1,0,0.1,0.1,0.2,0.1c0,0,0.1,0,0.1,0c0.1,0,0.2-0.1,0.2-0.2c0.1-0.2,0.3-0.5,0.4-0.8
		c0.2-0.4,0.3-0.8,0.3-1.2C267.2,92.1,267.1,91.9,266.9,91.9z"/>
	<path class="st4" d="M257.3,97.5l-0.5,0c-0.2,0-0.4,0-0.6,0c-0.3,0-0.6,0-0.9,0c-0.2,0-0.4,0.1-0.4,0.4c0,0.2,0.1,0.4,0.4,0.4
		c0.5,0,0.9,0,1.4,0c0,0,0.1,0,0.1,0l0.5,0c0.2,0,0.4-0.2,0.4-0.4S257.6,97.5,257.3,97.5z"/>
	<path class="st4" d="M253.4,97.3c-0.6-0.1-1.3-0.2-1.9-0.3c-0.2,0-0.4,0.1-0.4,0.3c0,0.2,0.1,0.4,0.3,0.4c0.7,0.1,1.3,0.2,2,0.3
		c0,0,0,0,0,0c0.2,0,0.3-0.1,0.4-0.3C253.7,97.5,253.6,97.3,253.4,97.3z"/>
	<path class="st4" d="M249.5,96.5c-0.6-0.2-1.3-0.3-1.9-0.6c-0.2-0.1-0.4,0-0.5,0.2c-0.1,0.2,0,0.4,0.2,0.5c0.7,0.2,1.3,0.4,1.9,0.6
		c0,0,0.1,0,0.1,0c0.2,0,0.3-0.1,0.4-0.3C249.8,96.8,249.7,96.6,249.5,96.5z"/>
	<path class="st4" d="M232.3,84.5c-0.1-0.2-0.3-0.3-0.5-0.2s-0.3,0.3-0.2,0.5c0.2,0.6,0.6,1.2,1,1.8c0.1,0.1,0.2,0.2,0.3,0.2
		c0.1,0,0.1,0,0.2-0.1c0.2-0.1,0.2-0.3,0.1-0.5C232.8,85.6,232.5,85,232.3,84.5z"/>
	<path class="st4" d="M234.3,87.8c-0.1-0.2-0.4-0.2-0.5,0c-0.2,0.1-0.2,0.4,0,0.5c0.4,0.5,0.9,1,1.4,1.5c0.1,0.1,0.2,0.1,0.3,0.1
		c0.1,0,0.2,0,0.3-0.1c0.1-0.2,0.1-0.4,0-0.5C235.2,88.7,234.7,88.2,234.3,87.8z"/>
	<path class="st4" d="M237.2,90.5c-0.2-0.1-0.4-0.1-0.5,0.1c-0.1,0.2-0.1,0.4,0.1,0.5c0.5,0.4,1.1,0.8,1.6,1.2
		c0.1,0,0.1,0.1,0.2,0.1c0.1,0,0.2-0.1,0.3-0.2c0.1-0.2,0.1-0.4-0.1-0.5C238.2,91.3,237.7,90.9,237.2,90.5z"/>
	<path class="st4" d="M245.7,95.3c-0.6-0.2-1.2-0.5-1.8-0.8c-0.2-0.1-0.4,0-0.5,0.2c-0.1,0.2,0,0.4,0.2,0.5c0.6,0.3,1.2,0.5,1.9,0.8
		c0,0,0.1,0,0.1,0c0.2,0,0.3-0.1,0.3-0.2C246,95.6,245.9,95.4,245.7,95.3z"/>
	<path class="st4" d="M242.1,93.7c-0.6-0.3-1.2-0.6-1.7-1c-0.2-0.1-0.4,0-0.5,0.1c-0.1,0.2,0,0.4,0.1,0.5c0.6,0.3,1.2,0.7,1.8,1
		c0.1,0,0.1,0,0.2,0c0.1,0,0.3-0.1,0.3-0.2C242.4,94,242.3,93.8,242.1,93.7z"/>
	<path class="st3" d="M130.7,65.7c-0.1,0-0.2,0-0.3,0c-0.7,0-1.5,0.5-1.7,1.1c-0.1,0.3-0.1,0.6,0,0.9c0.2,0.3,0.4,0.5,0.8,0.5
		c0.8,0.2,1.8-0.3,2.1-1.1c0.1-0.3,0.1-0.6,0-0.9C131.3,66,131,65.8,130.7,65.7z"/>
	<path class="st3" d="M119.3,28.5c-0.2-0.3-0.4-0.5-0.8-0.5c-0.1,0-0.2,0-0.3,0c-0.7,0-1.5,0.5-1.7,1.1c-0.1,0.3-0.1,0.6,0,0.9
		c0.2,0.3,0.4,0.5,0.8,0.5c0.8,0.2,1.8-0.3,2.1-1.1C119.4,29,119.4,28.7,119.3,28.5z"/>
	<path class="st3" d="M145.6,65.2c-0.1,0-0.2,0-0.3,0c-0.7,0-1.5,0.5-1.7,1.1c-0.1,0.3-0.1,0.6,0,0.9c0.2,0.3,0.4,0.5,0.8,0.5
		c0.8,0.2,1.8-0.3,2.1-1.1c0.1-0.3,0.1-0.6,0-0.9C146.3,65.5,146,65.3,145.6,65.2z"/>
	<path class="st3" d="M159.7,64.8c-0.1,0-0.2,0-0.3,0c-0.7,0-1.5,0.5-1.7,1.2c-0.1,0.3-0.1,0.6,0,0.9c0.2,0.3,0.4,0.5,0.8,0.5
		c0.8,0.2,1.8-0.3,2.1-1.1c0,0,0,0,0,0c0.1-0.3,0.1-0.6,0-0.9C160.3,65,160,64.8,159.7,64.8z"/>
	<path class="st3" d="M189.4,19.4c0.8,0.2,1.8-0.2,2.1-1c0.1-0.3,0.2-0.6,0-0.9c-0.1-0.3-0.4-0.5-0.7-0.6c-0.2,0-0.3-0.1-0.5-0.1
		c-0.7,0-1.4,0.4-1.7,1c-0.1,0.3-0.2,0.6,0,0.9C188.8,19.1,189,19.3,189.4,19.4z"/>
	<path class="st3" d="M205.5,37.7c-0.1,0.3-0.2,0.6,0,0.9c0.1,0.3,0.4,0.5,0.7,0.6c0.8,0.2,1.8-0.2,2.1-1c0.1-0.3,0.2-0.6,0-0.9
		c-0.1-0.3-0.4-0.5-0.7-0.6c-0.2,0-0.3-0.1-0.5-0.1C206.5,36.6,205.8,37,205.5,37.7z"/>
	<path class="st4" d="M203.9,36.4l-4-0.8c-0.3,0-0.5,0-0.8,0.2c-0.2,0.2-0.4,0.4-0.4,0.6l-0.9,4.9l-7.4-1c0.2-0.5,0.3-1,0.3-1.5
		c2.4-5.3,0.5-10.2-4.7-13.5l3.3-3.8c0.2,0,0.4,0,0.5,0c1.5,0,2.9-0.8,3.5-2.2c0.4-0.8,0.4-1.8,0-2.6c-0.4-0.8-1.1-1.4-2-1.7
		c-1.8-0.5-3.8,0.4-4.5,2c-0.4,0.8-0.4,1.8,0,2.6c0.2,0.3,0.4,0.6,0.6,0.9l-3.2,3.7c-2.6-1.3-5.8-2.3-9.6-2.9l1.8-2.5
		c0.1,0,0.3,0,0.4,0c1.5,0,2.9-0.8,3.5-2.2c0.4-0.8,0.4-1.8,0-2.6s-1.1-1.4-2-1.7c-1.8-0.5-3.8,0.4-4.5,2v0c-0.4,0.8-0.4,1.8,0,2.6
		c0.2,0.4,0.4,0.7,0.8,1l-2,2.8c-0.1,0.1-0.1,0.2-0.1,0.3c-0.5-0.1-1-0.1-1.5-0.2c-3.7-0.3-7.6-0.2-11.4,0.2l2.3-3
		c0.3,0.1,0.7,0.1,1,0.1c1.5,0,2.9-0.8,3.5-2.2c0.4-0.8,0.4-1.8,0-2.6c-0.4-0.8-1.1-1.4-2-1.7c-1.8-0.5-3.8,0.4-4.5,2
		c-0.4,0.8-0.4,1.8,0,2.6c0.1,0.2,0.2,0.4,0.4,0.6l-3.2,4.1c-0.1,0.1-0.1,0.2-0.2,0.3c-9.2,1.4-18,4.7-24.2,9.2
		c-0.1,0-0.2-0.1-0.3-0.1L121.4,29c0-0.5-0.1-1.1-0.4-1.5c-0.4-0.8-1.2-1.3-2.1-1.5c-1.8-0.4-3.7,0.7-4.4,2.4
		c-0.3,0.9-0.3,1.8,0.2,2.6c0.4,0.8,1.2,1.3,2.1,1.5c0.3,0.1,0.5,0.1,0.8,0.1c1.2,0,2.4-0.6,3.1-1.5l9.9,1.3c-1.5,1.3-2.7,2.6-3.7,4
		c-2.2,3-2.9,6-2.5,8.7c0,0,0,0.1,0,0.1c1.1,5.5,4.9,9.8,11.1,12.3l-4.6,6.3c-1.7-0.2-3.5,0.8-4.1,2.4c-0.3,0.9-0.3,1.8,0.2,2.6
		s1.2,1.3,2.1,1.5c0.3,0.1,0.5,0.1,0.8,0.1c1.6,0,3.1-1,3.6-2.5c0.3-0.9,0.3-1.8-0.2-2.6c-0.1-0.3-0.3-0.5-0.6-0.7l4.7-6.5
		c0.1,0,0.3,0.1,0.4,0.1c2.9,0.9,6.1,1.5,9.5,1.7l-1.9,3.2c-1.6,0-3.1,0.9-3.7,2.5c-0.3,0.9-0.3,1.8,0.2,2.6
		c0.4,0.8,1.2,1.3,2.1,1.5c0.3,0.1,0.5,0.1,0.8,0.1c1.6,0,3-1,3.6-2.5c0.3-0.9,0.3-1.8-0.2-2.6c-0.2-0.4-0.5-0.7-0.8-1l2.3-3.8
		c0.4,0,0.7,0,1.1,0c2.4,0,4.9-0.2,7.4-0.5c1.6-0.2,3.1-0.5,4.6-0.8l-2.6,4.1c-1.8-0.3-3.7,0.7-4.3,2.4c-0.3,0.9-0.3,1.8,0.2,2.6
		c0.4,0.8,1.2,1.3,2.1,1.5c0.3,0.1,0.5,0.1,0.8,0.1c1.6,0,3-1,3.6-2.5c0.3-0.9,0.3-1.8-0.2-2.6c-0.1-0.2-0.3-0.4-0.4-0.6l3.7-5.7
		c11.9-3.1,21-9.2,24.2-15.8l8.8,1.2c0,0,0.1,0,0.1,0c0.5,0,0.9-0.3,1-0.8l0.9-4.8l2.9,0.6c0,0.3,0.1,0.7,0.2,1
		c0.4,0.8,1.1,1.4,2,1.7c0.3,0.1,0.7,0.1,1,0.1c1.5,0,2.9-0.8,3.5-2.2c0.4-0.8,0.4-1.8,0-2.6s-1.1-1.4-2-1.7
		C206.6,34.3,204.8,35,203.9,36.4z M188.6,17.9c0.3-0.6,1-1,1.7-1c0.2,0,0.3,0,0.5,0.1c0.3,0.1,0.6,0.3,0.7,0.6
		c0.1,0.3,0.1,0.6,0,0.9c-0.3,0.8-1.3,1.2-2.1,1c-0.3-0.1-0.6-0.3-0.7-0.6C188.5,18.5,188.5,18.2,188.6,17.9z M175.7,15.2
		c0.3-0.8,1.3-1.2,2.1-1c0.3,0.1,0.6,0.3,0.7,0.6c0.1,0.3,0.1,0.6,0,0.9c-0.3,0.8-1.3,1.2-2.1,1c-0.3-0.1-0.6-0.3-0.7-0.6
		C175.6,15.8,175.6,15.5,175.7,15.2z M161.7,14.6c0.3-0.6,1-1,1.7-1c0.2,0,0.3,0,0.5,0.1c0.3,0.1,0.6,0.3,0.7,0.6
		c0.1,0.3,0.1,0.6,0,0.9c-0.3,0.8-1.3,1.2-2.1,1c-0.3-0.1-0.6-0.3-0.7-0.6C161.5,15.2,161.5,14.9,161.7,14.6z M117.3,30.5
		c-0.4-0.1-0.6-0.3-0.8-0.5c-0.1-0.3-0.2-0.6,0-0.9c0.2-0.7,1-1.1,1.7-1.1c0.1,0,0.2,0,0.3,0c0.4,0.1,0.6,0.3,0.8,0.5
		c0.1,0.3,0.2,0.6,0,0.9C119,30.2,118.1,30.7,117.3,30.5z M131.5,67.2c-0.3,0.8-1.2,1.3-2.1,1.1c-0.4-0.1-0.6-0.3-0.8-0.5
		c-0.1-0.3-0.2-0.6,0-0.9c0.2-0.7,1-1.1,1.7-1.1c0.1,0,0.2,0,0.3,0c0.4,0.1,0.6,0.3,0.8,0.5C131.6,66.5,131.6,66.9,131.5,67.2z
		 M146.5,66.7c-0.3,0.8-1.2,1.3-2.1,1.1c-0.4-0.1-0.6-0.3-0.8-0.5c-0.1-0.3-0.2-0.6,0-0.9c0.2-0.7,1-1.1,1.7-1.1c0.1,0,0.2,0,0.3,0
		c0.4,0.1,0.6,0.3,0.8,0.5C146.6,66,146.6,66.4,146.5,66.7z M160.5,66.2C160.5,66.2,160.5,66.2,160.5,66.2c-0.3,0.8-1.2,1.3-2.1,1.1
		c-0.4-0.1-0.6-0.3-0.8-0.5c-0.1-0.3-0.2-0.6,0-0.9c0.2-0.7,1-1.2,1.7-1.2c0.1,0,0.2,0,0.3,0c0.4,0.1,0.6,0.3,0.8,0.5
		C160.6,65.6,160.6,65.9,160.5,66.2z M157.8,57.8c-2.6,0.4-5.6,0.6-8.6,0.5c-0.2,0-0.3-0.1-0.5,0c-5.6-0.2-11.4-1.5-15.8-4.2
		c3.2,1.4,7.3,2.4,12.1,2.8c14.4,1.2,30.5-3.5,39.6-10.8C179.3,51.6,169.3,56.1,157.8,57.8z M146,55.5c-15.9-1.3-23.4-9.8-16.8-19
		c4.9-6.8,16.4-12.2,28.4-13.9c0.1,0,0.1,0,0.2,0c0.2,0,0.3,0,0.5-0.1c3.9-0.5,7.9-0.6,11.7-0.3c15.9,1.3,23.4,9.8,16.8,19
		C180.2,50.4,161.9,56.8,146,55.5z M207.6,36.7c0.3,0.1,0.6,0.3,0.7,0.6c0.1,0.3,0.1,0.6,0,0.9c-0.3,0.8-1.3,1.2-2.1,1
		c-0.3-0.1-0.6-0.3-0.7-0.6c-0.1-0.3-0.1-0.6,0-0.9c0.3-0.6,1-1,1.7-1C207.3,36.6,207.5,36.7,207.6,36.7z"/>
	<path class="st3" d="M176.4,16.7c0.8,0.2,1.8-0.2,2.1-1c0.1-0.3,0.2-0.6,0-0.9c-0.1-0.3-0.4-0.5-0.7-0.6c-0.8-0.2-1.8,0.2-2.1,1
		c-0.1,0.3-0.2,0.6,0,0.9C175.8,16.4,176.1,16.6,176.4,16.7z"/>
	<path class="st3" d="M162.4,16.1c0.8,0.2,1.8-0.2,2.1-1c0.1-0.3,0.2-0.6,0-0.9c-0.1-0.3-0.4-0.5-0.7-0.6c-0.2,0-0.3-0.1-0.5-0.1
		c-0.7,0-1.4,0.4-1.7,1c-0.1,0.3-0.2,0.6,0,0.9C161.8,15.8,162.1,16,162.4,16.1z"/>
</g>
</svg>
