<?xml version="1.0" encoding="utf-8"?>
<!-- Generator: Adobe Illustrator 21.0.0, SVG Export Plug-In . SVG Version: 6.00 Build 0)  -->
<svg version="1.1" id="Calque_1" xmlns="http://www.w3.org/2000/svg" xmlns:xlink="http://www.w3.org/1999/xlink" x="0px" y="0px"
	 width="147.4px" height="147.4px" viewBox="0 0 147.4 147.4" style="enable-background:new 0 0 147.4 147.4;" xml:space="preserve"
	>
<style type="text/css">
	.st0{fill:none;stroke:#DFE2EC;stroke-width:3.1938;stroke-linecap:round;stroke-linejoin:round;stroke-miterlimit:10;}

		.st1{fill:none;stroke:#1EB0DC;stroke-width:0.75;stroke-linecap:round;stroke-linejoin:round;stroke-miterlimit:10;stroke-dasharray:2;}
	.st2{fill:none;stroke:#1EB0DC;stroke-width:0.75;stroke-linecap:round;stroke-linejoin:round;stroke-miterlimit:10;}
	.st3{fill:#DFE2EC;stroke:#DFE2EC;stroke-miterlimit:10;}
</style>
<rect x="57.7" y="49" class="st0" width="50.4" height="6.5"/>
<rect x="57.7" y="128.5" class="st0" width="50.4" height="6.5"/>
<path class="st0" d="M63.2,127.6c0-2.8,0-10.5,0-13.3c0-3.5,2.4-7.5,8.2-13.9c5.8-6.3,9.6-7.3,6.3-11.1
	c-3.3-3.8-12.8-10.5-13.3-13.7c-0.4-3.2,0-19.2,0-19.2"/>
<path class="st0" d="M103.7,127.6c0-2.8,0-10.5,0-13.4c0-3.5-2.4-7.5-8.2-13.9c-5.8-6.3-9.6-7.3-6.3-11.1
	c3.3-3.8,12.8-10.5,13.3-13.7c0.4-3.2,0-19.2,0-19.2"/>
<polyline class="st0" points="108.5,135 113.7,141.1 52.5,141.1 59.8,135 "/>
<path class="st0" d="M67.8,80.2c0,0,22.5,6.3,34.7-4.6C102.5,75.6,95.8,68.1,67.8,80.2z"/>
<path class="st0" d="M77.6,89.3c0,0,8.7,16.5,3.3,26.5s-17.7,7.5-17.7,7.5"/>
<path class="st0" d="M88.9,89.3c0,0-8.7,16.5-3.3,26.5c5.4,10,17.7,11.8,17.7,11.8"/>
<path class="st1" d="M90.7,81.5c3.1-2.9,6.1-5.7,6.3-7.5c0.2-1.1,0.2-3.7,0.2-6.7"/>
<path class="st0" d="M100.7,126.9c0,0,4.5-1.1,2.7-5.4c-1.8-4.3-13.5-0.5-13.5-0.5"/>
<path class="st2" d="M26.3,92c0,0,12-54,67.3-73.4"/>
<polyline class="st0" points="57.7,49 52.5,42.9 115.4,42.9 108.1,49 "/>
<circle class="st0" cx="26.3" cy="26.6" r="15.5"/>
<path class="st0" d="M135.1,117.1c3.7,0.6,6.8-3.5,7.6-7.4c1.2-5.2-2.1-10.5-7.4-11.6c-3.5-0.8-7,0.4-9.3,2.9
	C126.1,101,122,114.8,135.1,117.1z"/>
<path class="st0" d="M37,15.4c5.9-2.2,10.2-2.9,11.1-1.3c1.5,2.6-7,10.4-19,17.3S6,41.8,4.5,39.2c-0.9-1.5,1.6-4.8,6.2-8.6"/>
<g>
	<line class="st0" x1="26.3" y1="124.2" x2="26.3" y2="139.2"/>
	<line class="st0" x1="30.2" y1="131.7" x2="22.4" y2="131.7"/>
	<path class="st0" d="M26.2,127.9c0,0-0.2,3.8,3.4,3.8"/>
	<path class="st0" d="M26.2,127.9c0,0,0.2,3.8-3.4,3.8"/>
	<path class="st0" d="M26.2,135.4c0,0,0.2-3.8-3.4-3.8"/>
	<path class="st0" d="M26.2,135.4c0,0-0.2-3.8,3.4-3.8"/>
</g>
<g>
	<line class="st0" x1="103.4" y1="13.3" x2="103.4" y2="23.8"/>
	<line class="st0" x1="106.1" y1="18.6" x2="100.6" y2="18.6"/>
	<path class="st0" d="M103.3,16c0,0-0.1,2.6,2.4,2.6"/>
	<path class="st0" d="M103.3,16c0,0,0.1,2.6-2.4,2.6"/>
	<path class="st0" d="M103.3,21.2c0,0,0.1-2.6-2.4-2.6"/>
	<path class="st0" d="M103.3,21.2c0,0-0.1-2.6,2.4-2.6"/>
</g>
<circle class="st3" cx="134.8" cy="87.5" r="0.6"/>
<circle class="st3" cx="138.7" cy="142.2" r="0.6"/>
<circle class="st3" cx="21.8" cy="52.3" r="0.6"/>
<circle class="st3" cx="33.2" cy="122.6" r="0.6"/>
<circle class="st3" cx="33.8" cy="5.6" r="0.6"/>
<circle class="st3" cx="117.3" cy="82" r="0.6"/>
</svg>
