<?xml version="1.0" encoding="utf-8"?>
<!-- Generator: Adobe Illustrator 21.0.0, SVG Export Plug-In . SVG Version: 6.00 Build 0)  -->
<svg version="1.1" id="Calque_1" xmlns="http://www.w3.org/2000/svg" xmlns:xlink="http://www.w3.org/1999/xlink" x="0px" y="0px"
	 width="134.9px" height="150.9px" viewBox="0 0 134.9 150.9" style="enable-background:new 0 0 134.9 150.9;" xml:space="preserve"
	>
<style type="text/css">
	.st0{fill:none;}
	.st1{fill:#DFE2EC;}
	.st2{fill:#1EB0DC;}
</style>
<g>
	<path class="st0" d="M105,129.7C104.9,129.7,104.9,129.7,105,129.7c-0.4-0.3-0.5-0.8-0.3-1.1c0.2-0.3,0.5-0.6,0.8-0.8V73
		c-0.1,0.2-0.2,0.4-0.4,0.5c-0.5,0.6-1.3,0.8-2.1,0.6c-0.1,0-0.3,0-0.4,0.1c-0.1,0.1-0.1,0.3-0.1,0.5c0.1,0.5-0.1,0.9-0.6,1
		c-0.1,0-0.2,0-0.2,0c-0.4,0-0.7-0.2-0.8-0.6c-0.2-0.7,0-1.5,0.5-2.1c0.5-0.5,1.3-0.8,2.1-0.6c0.1,0,0.3,0,0.4-0.1
		c0.1-0.1,0.1-0.3,0.1-0.5c-0.2-0.7,0-1.5,0.5-2.1c0.3-0.3,0.6-0.5,1-0.6V55.8c-0.1-0.1-0.3-0.2-0.4-0.1c-0.7,0.2-1.5,0-2.1-0.6
		c-0.5-0.5-0.8-1.3-0.6-2.1c0-0.1,0-0.3-0.1-0.4c-0.1-0.1-0.3-0.2-0.4-0.1c-0.5,0.1-0.9-0.1-1-0.6c-0.1-0.5,0.1-0.9,0.6-1
		c0.7-0.2,1.5,0,2.1,0.5c0.5,0.5,0.8,1.3,0.6,2.1c0,0.1,0,0.3,0.1,0.4c0.1,0.1,0.3,0.2,0.5,0.1c0.3-0.1,0.6-0.1,0.9,0V39.3
		c-0.4,0.4-1,0.7-1.5,0.7c-0.5,0-1-0.2-1.4-0.5c-0.3-0.3-0.6-0.7-0.6-1.5c0-2.1,2.5-2.5,3.5-1.3V22.4c0-0.2-0.1-0.5,0-0.7
		c0,0,0,0,0,0V7.4c-0.4-0.1-0.7-0.4-0.6-0.8c0-0.4,0.3-0.7,0.6-0.8V5.3H46l47.9,8.2c0.8,0.1,1.3,0.8,1.3,1.6v121.1h10.4
		c-0.1-0.2-0.2-0.5-0.2-0.8v-5.5C105.2,129.8,105.1,129.8,105,129.7z M103.6,97.9c0,2-3,2-3,0C100.5,95.9,103.6,95.9,103.6,97.9z
		 M99,16.3c0-2,3-2,3,0C102,18.3,99,18.3,99,16.3z M103.9,114.2c-0.4,0.6-1,0.8-1.6,0.8c-0.4,0-0.9-0.2-1.2-0.4
		c-0.8-0.6-1.2-1.8-0.4-2.8c0.8-1.1,2-1,2.8-0.4C104.3,112,104.7,113.2,103.9,114.2z"/>
	<polygon class="st0" points="39.9,126.2 54.1,128.2 54.1,91.7 39.9,89.7 	"/>
	<polygon class="st0" points="66,80.3 80.3,82.3 80.3,60.3 66,58.8 	"/>
	<polygon class="st0" points="66,129.4 80.3,131.4 80.3,94.8 66,92.9 	"/>
	<polygon class="st0" points="39.9,77.8 54.1,79.7 54.1,57.5 39.9,55.5 	"/>
	<path class="st0" d="M102.9,112.2c-0.2-0.1-0.4-0.2-0.6-0.2c-0.3,0-0.5,0.1-0.8,0.4c-0.4,0.6-0.2,1.1,0.2,1.4
		c0.4,0.3,1,0.4,1.4-0.2C103.5,113,103.2,112.5,102.9,112.2z"/>
	<path class="st0" d="M124.6,95c0.4,0.3,1,0.4,1.4-0.2c0.2-0.3,0.3-0.5,0.2-0.8c0-0.2-0.2-0.5-0.4-0.6c-0.2-0.1-0.4-0.2-0.6-0.2
		c0,0,0,0-0.1,0c-0.3,0-0.5,0.2-0.7,0.4C123.9,94.2,124.2,94.7,124.6,95z"/>
	<path class="st0" d="M103.9,37c-0.5,0-1,0.3-1,1c0,0.7,0.5,1,1,1s1-0.3,1-1c0-0.3-0.1-0.6-0.3-0.8C104.4,37,104.1,37,103.9,37z"/>
	<path class="st0" d="M92,137.7C92,137.7,92,137.7,92,137.7l0-121.3L29.2,5.6v130.6L92,147L92,137.7C92,137.7,92,137.7,92,137.7z
		 M57.3,130c0,0.5-0.2,0.9-0.5,1.2c-0.3,0.3-0.7,0.4-1,0.4c-0.1,0-0.1,0-0.2,0L38,129.2c-0.8-0.1-1.4-0.8-1.4-1.6V87.9
		c0-0.5,0.2-0.9,0.5-1.2c0.3-0.3,0.8-0.4,1.3-0.4l17.4,2.4c0.8,0.1,1.4,0.8,1.4,1.6V130z M57.3,81.5c0,0.5-0.2,0.9-0.5,1.2
		c-0.3,0.3-0.7,0.4-1.1,0.4c-0.1,0-0.1,0-0.2,0L38,80.7c-0.8-0.1-1.4-0.8-1.4-1.6V53.6c0-0.5,0.2-0.9,0.5-1.2
		c0.3-0.3,0.8-0.4,1.3-0.4l17.4,2.4c0.8,0.1,1.4,0.8,1.4,1.6V81.5z M83.5,133.2c0,0.5-0.2,0.9-0.5,1.2c-0.3,0.3-0.7,0.4-1,0.4
		c-0.1,0-0.1,0-0.2,0l-17.4-2.4c-0.8-0.1-1.4-0.8-1.4-1.6V91c0-0.5,0.2-0.9,0.5-1.2c0.3-0.3,0.8-0.4,1.3-0.4l17.4,2.4
		c0.8,0.1,1.4,0.8,1.4,1.6V133.2z M83.5,84.1c0,0.5-0.2,0.9-0.5,1.2c-0.3,0.3-0.7,0.4-1.1,0.4c-0.1,0-0.1,0-0.2,0l-17.4-2.4
		c-0.8-0.1-1.4-0.8-1.4-1.6V57c0-0.5,0.2-0.9,0.5-1.2c0.3-0.3,0.8-0.4,1.2-0.4L82,57.3c0.8,0.1,1.4,0.8,1.4,1.6V84.1z M83.4,50
		c-0.3,0.3-0.7,0.4-1.1,0.4c-0.1,0-0.1,0-0.2,0l-43.1-5.6c-0.7-0.1-1.3-0.7-1.4-1.4c-0.7-7,1.3-13.1,5.5-17.3c4-3.9,9.6-5.7,15.8-5
		C65.9,22,72.4,26,77,31.9c0.1,0.1,0.2,0.2,0.3,0.3c0.1,0.1,0.1,0.2,0.2,0.3c3.5,4.6,5.8,10.3,6.4,16.2C83.9,49.2,83.7,49.7,83.4,50
		z M89.1,90.9c-0.1,0.1-0.2,0.2-0.4,0.3c-0.1,0.1-0.3,0.2-0.4,0.2c-0.2,0.1-0.3,0.1-0.5,0.1c-0.2,0-0.3,0.1-0.5,0.1
		c-0.2,0-0.3,0-0.5-0.1c-0.2,0-0.3-0.1-0.5-0.1c-0.2-0.1-0.3-0.1-0.4-0.2c-0.1-0.1-0.3-0.2-0.4-0.3c-0.1-0.1-0.2-0.2-0.3-0.4
		c-0.1-0.1-0.2-0.3-0.2-0.4c-0.1-0.1-0.1-0.3-0.1-0.5c0-0.2,0-0.3,0-0.5c0-0.2,0-0.3,0-0.5c0-0.2,0.1-0.3,0.1-0.5
		c0.1-0.2,0.1-0.3,0.2-0.4c0.1-0.1,0.2-0.3,0.3-0.4c0.1-0.1,0.2-0.2,0.4-0.3c0.1-0.1,0.3-0.2,0.4-0.2c0.1-0.1,0.3-0.1,0.5-0.1
		c0.8-0.2,1.7,0.1,2.3,0.7c0.1,0.1,0.2,0.2,0.3,0.4c0.1,0.1,0.2,0.3,0.2,0.4c0.1,0.1,0.1,0.3,0.1,0.5c0,0.2,0,0.3,0,0.5
		C89.8,89.8,89.6,90.5,89.1,90.9z"/>
	<path class="st0" d="M43.6,30.4c-2.1,3-3.2,7-3,11.4l15.8,2L43.6,30.4z"/>
	<path class="st0" d="M63.4,44.8l17,2.2c-0.7-4.2-2.4-8.2-4.8-11.6L63.4,44.8z"/>
	<path class="st0" d="M61.9,41.9l11.8-9c-3.1-3.6-7-6.3-11.3-7.7L61.9,41.9z"/>
	<path class="st0" d="M58.7,41.7l0.5-17.2c-0.2,0-0.5-0.1-0.7-0.1c-5-0.6-9.5,0.7-12.8,3.7L58.7,41.7z"/>
	<path class="st1" d="M132.9,136.1h-24.5c0.1-0.2,0.2-0.5,0.2-0.8v-4.9c-0.7,0-1.3-0.4-1.7-1c-0.1-0.1-0.2-0.2-0.4-0.2
		c-0.2,0-0.3,0.1-0.4,0.2c-0.1,0.3-0.4,0.4-0.7,0.4v5.5c0,0.3,0.1,0.6,0.2,0.8H95.2V15.1c0-0.8-0.6-1.4-1.3-1.6L46,5.3h59.4v0.5
		c0.1,0,0.2,0,0.2,0c0.2,0,0.3-0.1,0.4-0.2c0.1-0.2,0.1-0.3,0-0.5c-0.3-0.7-0.3-1.5,0.1-2.1c0.3-0.4,0.6-0.7,1.1-0.8
		c-0.1,0-0.2,0-0.3,0H28.4c-0.2,0-0.4,0-0.5,0.1l-0.1,0c-0.5-0.1-0.9,0-1.3,0.4C26.2,2.8,26,3.2,26,3.7v133.8c0,0.8,0.6,1.4,1.3,1.6
		l66,11.3c0.1,0,0.2,0,0.3,0c0.4,0,0.7-0.1,1-0.4c0.4-0.3,0.6-0.8,0.6-1.2v-9.6h37.7c0.9,0,1.6-0.7,1.6-1.6S133.8,136.1,132.9,136.1
		z M29.2,136.2V5.6L92,16.4v121.3c0,0,0,0,0,0s0,0,0,0v9.3L29.2,136.2z"/>
	<path class="st1" d="M17.1,136.1H1.7c-0.9,0-1.6,0.7-1.6,1.6s0.7,1.6,1.6,1.6h15.4c0.9,0,1.6-0.7,1.6-1.6S18,136.1,17.1,136.1z"/>
	<path class="st1" d="M107.6,3.8c-0.1,0.2-0.1,0.4,0,0.5c0.3,0.7,0.3,1.5-0.1,2.1c-0.4,0.6-1.1,1-1.8,1c0,0-0.1,0-0.1,0
		c-0.1,0-0.1,0-0.2,0v14.3c0.1-0.4,0.5-0.7,1-0.7c0.5,0.1,0.8,0.5,0.7,1c0,0.2,0,0.3,0.2,0.4c0.1,0.1,0.3,0.1,0.5,0.1
		c0.3-0.1,0.6-0.1,0.9-0.1V3.7c0,0,0,0,0-0.1c-0.2,0-0.4,0.1-0.6,0C107.9,3.6,107.7,3.7,107.6,3.8z"/>
	<path class="st1" d="M108.2,24.1c-0.7,0.2-1.5,0.1-2.1-0.4c-0.4-0.3-0.6-0.8-0.7-1.3v14.2c0.3,0.3,0.5,0.8,0.5,1.3
		c0,0.6-0.2,1-0.5,1.3V54c0.5,0.1,0.9,0.3,1.2,0.6c0.5,0.5,0.8,1.3,0.6,2.1c-0.1,0.4-0.5,0.6-0.8,0.6c-0.1,0-0.1,0-0.2,0
		c-0.5-0.1-0.7-0.6-0.6-1c0-0.1,0-0.3-0.1-0.4c0,0,0,0,0,0v13.5c0.3-0.1,0.7-0.1,1.1,0c0.5,0.1,0.7,0.6,0.6,1
		c-0.1,0.5-0.6,0.7-1,0.6c-0.2,0-0.3,0-0.4,0.1c-0.1,0.1-0.1,0.3-0.1,0.4c0.2,0.5,0.1,1.1-0.1,1.5v54.8c0.3-0.2,0.7-0.3,1.1-0.3
		c0.8,0,1.5,0.4,1.9,1c0.1,0.1,0.2,0.2,0.3,0.2V90.9c0,0-0.1,0-0.1,0c-0.3,0-0.5-0.1-0.8-0.1c-0.4-0.2-0.6-0.7-0.5-1.1
		s0.7-0.6,1.1-0.5c0.1,0,0.2,0,0.3,0v-65C108.5,24.1,108.3,24.1,108.2,24.1z"/>
	<path class="st1" d="M55.9,88.7l-17.4-2.4c-0.5-0.1-0.9,0.1-1.3,0.4c-0.3,0.3-0.5,0.7-0.5,1.2v39.8c0,0.8,0.6,1.5,1.4,1.6l17.4,2.4
		c0.1,0,0.1,0,0.2,0c0.4,0,0.8-0.1,1-0.4c0.3-0.3,0.5-0.7,0.5-1.2V90.3C57.3,89.5,56.7,88.8,55.9,88.7z M54.1,128.2l-14.2-2V89.7
		l14.2,2V128.2z"/>
	<path class="st1" d="M82.1,91.9l-17.4-2.4c-0.5-0.1-0.9,0.1-1.3,0.4c-0.3,0.3-0.5,0.7-0.5,1.2v39.8c0,0.8,0.6,1.5,1.4,1.6l17.4,2.4
		c0.1,0,0.1,0,0.2,0c0.4,0,0.8-0.1,1-0.4c0.3-0.3,0.5-0.7,0.5-1.2V93.4C83.5,92.6,82.9,92,82.1,91.9z M80.3,131.4l-14.2-2V92.9
		l14.2,2V131.4z"/>
	<path class="st1" d="M55.9,54.5l-17.4-2.4c-0.5-0.1-0.9,0.1-1.3,0.4c-0.3,0.3-0.5,0.7-0.5,1.2v25.5c0,0.8,0.6,1.5,1.4,1.6l17.4,2.4
		c0.1,0,0.1,0,0.2,0c0.4,0,0.8-0.1,1.1-0.4c0.3-0.3,0.5-0.7,0.5-1.2V56.1C57.3,55.3,56.7,54.6,55.9,54.5z M54.1,79.7l-14.2-1.9V55.5
		l14.2,2V79.7z"/>
	<path class="st1" d="M82,57.3l-17.4-1.9c-0.5,0-0.9,0.1-1.2,0.4c-0.3,0.3-0.5,0.7-0.5,1.2v24.7c0,0.8,0.6,1.5,1.4,1.6l17.4,2.4
		c0.1,0,0.1,0,0.2,0c0.4,0,0.8-0.1,1.1-0.4c0.3-0.3,0.5-0.7,0.5-1.2V58.8C83.5,58,82.9,57.3,82,57.3z M80.3,82.3L66,80.3V58.8
		l14.2,1.5V82.3z"/>
	<path class="st1" d="M77.3,32.2c-0.1-0.1-0.2-0.2-0.3-0.3C72.4,26,65.9,22,58.9,21.2c-6.2-0.7-11.9,1-15.8,5
		c-4.2,4.1-6.2,10.3-5.5,17.3c0.1,0.7,0.6,1.3,1.4,1.4l43.1,5.6c0.1,0,0.1,0,0.2,0c0.4,0,0.8-0.2,1.1-0.4c0.3-0.3,0.5-0.8,0.5-1.3
		c-0.6-6-2.9-11.6-6.4-16.2C77.4,32.4,77.3,32.3,77.3,32.2z M73.7,32.9l-11.8,9l0.5-16.7C66.7,26.6,70.6,29.3,73.7,32.9z M58.5,24.4
		c0.2,0,0.5,0.1,0.7,0.1l-0.5,17.2L45.7,28C49,25.1,53.5,23.8,58.5,24.4z M43.6,30.4l12.8,13.5l-15.8-2
		C40.4,37.4,41.5,33.5,43.6,30.4z M63.4,44.8l12.3-9.4c2.4,3.4,4,7.4,4.8,11.6L63.4,44.8z"/>
	<path class="st1" d="M89.6,88.2c-0.1-0.2-0.1-0.3-0.2-0.4c-0.1-0.1-0.2-0.3-0.3-0.4c-0.6-0.6-1.4-0.8-2.3-0.7
		c-0.2,0-0.3,0.1-0.5,0.1c-0.2,0.1-0.3,0.1-0.4,0.2c-0.1,0.1-0.3,0.2-0.4,0.3c-0.1,0.1-0.2,0.2-0.3,0.4c-0.1,0.1-0.2,0.3-0.2,0.4
		c-0.1,0.1-0.1,0.3-0.1,0.5c0,0.2,0,0.3,0,0.5c0,0.2,0,0.3,0,0.5c0,0.2,0.1,0.3,0.1,0.5c0.1,0.2,0.1,0.3,0.2,0.4
		c0.1,0.1,0.2,0.3,0.3,0.4c0.1,0.1,0.2,0.2,0.4,0.3c0.1,0.1,0.3,0.2,0.4,0.2c0.1,0.1,0.3,0.1,0.5,0.1c0.2,0,0.3,0.1,0.5,0.1
		c0.2,0,0.3,0,0.5-0.1c0.2,0,0.3-0.1,0.5-0.1c0.1-0.1,0.3-0.1,0.4-0.2c0.1-0.1,0.3-0.2,0.4-0.3c0.5-0.5,0.7-1.1,0.7-1.8
		c0-0.2,0-0.3,0-0.5C89.8,88.5,89.7,88.3,89.6,88.2z"/>
	<path class="st2" d="M108.3,89.2c-0.4-0.2-0.9,0-1.1,0.5s0,0.9,0.5,1.1c0.3,0.1,0.5,0.1,0.8,0.1c0,0,0.1,0,0.1,0
		c0.4,0,0.9-0.2,1.2-0.4c0.6-0.5,0.9-1.2,0.8-2c0-0.1,0-0.3,0.2-0.4c0.1-0.1,0.3-0.1,0.5-0.1c0.7,0.3,1.5,0.2,2.1-0.3
		c0.6-0.5,0.9-1.2,0.8-2c-0.1-0.5-0.5-0.8-1-0.7c-0.5,0.1-0.8,0.5-0.7,1c0,0.1,0,0.3-0.2,0.4c-0.1,0.1-0.3,0.1-0.5,0.1
		c-0.7-0.3-1.5-0.2-2.1,0.3c-0.6,0.5-0.9,1.2-0.8,2c0,0.1,0,0.3-0.2,0.4c-0.1,0-0.1,0.1-0.2,0.1C108.5,89.2,108.4,89.2,108.3,89.2z"
		/>
	<path class="st2" d="M121.1,78.1c-0.1,0.1-0.3,0.1-0.5,0c-0.2-0.1-0.2-0.3-0.2-0.4c0-0.8-0.3-1.5-1-1.9c-0.6-0.4-1.5-0.5-2.1-0.1
		c-0.1,0.1-0.3,0.1-0.5,0c-0.1-0.1-0.2-0.2-0.2-0.4c0-0.5-0.3-0.9-0.8-0.9c-0.5,0-0.9,0.3-0.9,0.8c0,0.8,0.3,1.5,1,1.9
		c0.6,0.4,1.5,0.5,2.1,0.1c0.1-0.1,0.3-0.1,0.5,0c0.1,0.1,0.2,0.2,0.2,0.4c0,0.8,0.3,1.5,1,1.9c0.4,0.2,0.8,0.4,1.2,0.4
		c0.3,0,0.7-0.1,1-0.2c0.4-0.2,0.6-0.7,0.4-1.1C122,78.1,121.5,77.9,121.1,78.1z"/>
	<path class="st2" d="M103.6,97.9c0-2-3-2-3,0C100.5,99.9,103.6,99.9,103.6,97.9z"/>
	<path class="st2" d="M112.8,107c-0.1-0.1-0.3-0.2-0.3-0.4c-0.1-0.5-0.5-0.8-1-0.7c-0.5,0.1-0.8,0.5-0.7,1c0.1,0.6,0.4,1.1,0.9,1.4
		c0.1,0.1,0.3,0.2,0.4,0.3c0.7,0.3,1.5,0.2,2.1-0.3c0.1-0.1,0.3-0.1,0.5-0.1c0.1,0.1,0.3,0.2,0.3,0.4c0.1,0.8,0.6,1.4,1.3,1.7
		c0.7,0.3,1.5,0.2,2.1-0.3c0.4-0.3,0.5-0.8,0.2-1.2c-0.3-0.4-0.8-0.4-1.2-0.2c-0.1,0.1-0.3,0.1-0.5,0.1c-0.2-0.1-0.3-0.2-0.3-0.4
		c-0.1-0.8-0.6-1.4-1.3-1.7c-0.7-0.3-1.5-0.2-2.1,0.3C113.2,107.1,113,107.1,112.8,107z"/>
	<path class="st2" d="M106.5,127.4c-0.4,0-0.7,0.1-1.1,0.3c-0.3,0.2-0.6,0.5-0.8,0.8c-0.2,0.4-0.1,0.8,0.2,1.1c0,0,0.1,0,0.1,0.1
		c0.1,0.1,0.3,0.1,0.5,0.1c0.3,0,0.6-0.2,0.7-0.4c0.1-0.1,0.2-0.2,0.4-0.2c0.2,0,0.3,0.1,0.4,0.2c0.4,0.6,1,1,1.7,1
		c0.1,0,0.1,0,0.2,0c0.8,0,1.5-0.4,1.8-1.1c0.1-0.1,0.2-0.2,0.4-0.2c0.2,0,0.3,0.1,0.4,0.2c0.2,0.4,0.8,0.5,1.2,0.3
		c0.4-0.2,0.5-0.8,0.3-1.2c-0.4-0.6-1.1-1-1.9-1c-0.8,0-1.5,0.4-1.8,1.1c-0.1,0.1-0.2,0.2-0.4,0.2c-0.1,0-0.1,0-0.1,0
		c-0.1,0-0.2-0.1-0.3-0.2C107.9,127.8,107.2,127.4,106.5,127.4z"/>
	<path class="st2" d="M124,95.8c0.4,0.3,0.8,0.4,1.2,0.4c0.6,0,1.1-0.2,1.6-0.8c0.5-0.6,0.5-1.2,0.4-1.6c-0.1-0.5-0.4-0.9-0.8-1.2
		c-0.4-0.3-0.9-0.5-1.4-0.4c-0.4,0-0.9,0.2-1.4,0.8C122.8,94.1,123.2,95.2,124,95.8z M124.4,93.6c0.2-0.3,0.4-0.4,0.7-0.4
		c0,0,0,0,0.1,0c0.2,0,0.4,0.1,0.6,0.2c0.2,0.2,0.4,0.4,0.4,0.6c0.1,0.3,0,0.5-0.2,0.8c-0.4,0.6-1,0.5-1.4,0.2
		C124.2,94.7,123.9,94.2,124.4,93.6z"/>
	<path class="st2" d="M103.5,111.4c-0.8-0.6-2-0.6-2.8,0.4c-0.8,1.1-0.4,2.2,0.4,2.8c0.4,0.3,0.8,0.4,1.2,0.4c0.6,0,1.1-0.2,1.6-0.8
		C104.7,113.2,104.3,112,103.5,111.4z M103.1,113.6c-0.4,0.6-1,0.5-1.4,0.2c-0.4-0.3-0.6-0.8-0.2-1.4c0.2-0.3,0.5-0.4,0.8-0.4
		c0.2,0,0.5,0.1,0.6,0.2C103.2,112.5,103.5,113,103.1,113.6z"/>
	<path class="st2" d="M107.7,22.5c-0.1,0-0.3,0-0.5-0.1c-0.1-0.1-0.2-0.3-0.2-0.4c0.1-0.5-0.2-0.9-0.7-1c-0.5-0.1-0.9,0.2-1,0.7
		c0,0,0,0,0,0c0,0.2,0,0.5,0,0.7c0.1,0.5,0.3,1,0.7,1.3c0.6,0.5,1.4,0.6,2.1,0.4c0.1,0,0.2,0,0.4,0c0,0,0.1,0,0.1,0
		c0.1,0.1,0.2,0.3,0.2,0.4c-0.1,0.8,0.1,1.5,0.7,2c0.4,0.3,0.9,0.5,1.4,0.5c0.2,0,0.5,0,0.7-0.1c0.4-0.2,0.7-0.6,0.5-1.1
		c-0.2-0.4-0.6-0.7-1.1-0.5c-0.1,0-0.3,0-0.5-0.1c-0.1-0.1-0.2-0.3-0.2-0.4c0.1-0.8-0.1-1.5-0.7-2c-0.3-0.3-0.8-0.4-1.2-0.5
		C108.3,22.4,108,22.4,107.7,22.5z"/>
	<path class="st2" d="M102,16.3c0-2-3-2-3,0C99,18.3,102,18.3,102,16.3z"/>
	<path class="st2" d="M101.9,38c0,0.8,0.3,1.2,0.6,1.5c0.4,0.3,0.8,0.5,1.4,0.5c0.6,0,1.1-0.2,1.5-0.7c0.3-0.3,0.5-0.8,0.5-1.3
		c0-0.6-0.2-1-0.5-1.3C104.3,35.5,101.9,35.9,101.9,38z M103.9,39c-0.5,0-1-0.3-1-1c0-0.7,0.5-1,1-1c0.3,0,0.5,0.1,0.7,0.2
		c0.2,0.2,0.3,0.4,0.3,0.8C104.9,38.7,104.3,39,103.9,39z"/>
	<path class="st2" d="M103.9,71.9c0,0.1,0,0.3-0.1,0.5c-0.1,0.1-0.3,0.2-0.4,0.1c-0.7-0.2-1.5,0.1-2.1,0.6c-0.5,0.6-0.7,1.4-0.5,2.1
		c0.1,0.4,0.4,0.6,0.8,0.6c0.1,0,0.2,0,0.2,0c0.4-0.1,0.7-0.6,0.6-1c0-0.1,0-0.3,0.1-0.5c0.1-0.1,0.3-0.2,0.4-0.1
		c0.7,0.2,1.5-0.1,2.1-0.6c0.2-0.2,0.3-0.3,0.4-0.5c0.2-0.5,0.3-1,0.1-1.5c0-0.1,0-0.3,0.1-0.4c0.1-0.1,0.3-0.2,0.4-0.1
		c0.5,0.1,0.9-0.2,1-0.6c0.1-0.5-0.2-0.9-0.6-1c-0.4-0.1-0.7-0.1-1.1,0c-0.4,0.1-0.7,0.3-1,0.6C103.9,70.4,103.7,71.2,103.9,71.9z"
		/>
	<path class="st2" d="M104.5,54c-0.1,0-0.3,0-0.5-0.1c-0.1-0.1-0.1-0.3-0.1-0.4c0.2-0.7,0-1.5-0.6-2.1c-0.5-0.5-1.3-0.7-2.1-0.5
		c-0.5,0.1-0.7,0.6-0.6,1c0.1,0.5,0.6,0.7,1,0.6c0.1,0,0.3,0,0.4,0.1c0.1,0.1,0.1,0.3,0.1,0.4c-0.2,0.7,0,1.5,0.6,2.1
		c0.5,0.5,1.3,0.8,2.1,0.6c0.2,0,0.3,0,0.4,0.1c0,0,0,0,0,0c0.1,0.1,0.1,0.3,0.1,0.4c-0.1,0.5,0.2,0.9,0.6,1c0.1,0,0.1,0,0.2,0
		c0.4,0,0.7-0.2,0.8-0.6c0.2-0.7,0-1.5-0.6-2.1c-0.3-0.3-0.8-0.5-1.2-0.6C105.1,54,104.8,54,104.5,54z"/>
	<path class="st2" d="M113.8,60.8c0,2,3,2,3,0C116.8,58.8,113.8,58.8,113.8,60.8z"/>
	<path class="st2" d="M127.7,39c0,2,3,2,3,0C130.8,37,127.8,37,127.7,39z"/>
	<path class="st2" d="M117.7,38.2c-0.2-0.1-0.4-0.2-0.6-0.2c-0.2,0-0.5,0.1-0.6,0.3c-0.5,0.6-0.7,1.4-0.5,2.1
		c0.2,0.7,0.8,1.3,1.6,1.5c0.1,0,0.3,0.1,0.3,0.3c0,0.2,0,0.3-0.1,0.4c-0.5,0.6-0.7,1.4-0.5,2.1c0.2,0.7,0.8,1.3,1.6,1.5
		c0.5,0.1,0.9-0.2,1-0.6c0.1-0.5-0.2-0.9-0.6-1c-0.1,0-0.3-0.1-0.3-0.3c-0.1-0.2,0-0.4,0.1-0.4c0.5-0.6,0.7-1.4,0.5-2.1
		c-0.2-0.7-0.8-1.3-1.6-1.5c-0.1,0-0.3-0.1-0.3-0.3c0-0.2,0-0.3,0.1-0.4C118.1,39.1,118.1,38.5,117.7,38.2z"/>
	<path class="st2" d="M127.4,55.3c0.4-0.3,0.4-0.8,0.2-1.2c-0.1-0.1-0.1-0.3-0.1-0.5c0.1-0.2,0.2-0.3,0.4-0.3
		c0.8-0.1,1.4-0.6,1.7-1.3c0.3-0.7,0.2-1.5-0.3-2.1c-0.1-0.1-0.1-0.3-0.1-0.5c0.1-0.2,0.2-0.3,0.4-0.3c0.5-0.1,0.8-0.5,0.7-0.9
		c-0.1-0.4-0.4-0.7-0.8-0.7c0,0-0.1,0-0.1,0c-0.8,0.1-1.4,0.6-1.7,1.3s-0.2,1.5,0.3,2.1c0.1,0.1,0.1,0.3,0.1,0.5
		c-0.1,0.2-0.2,0.3-0.4,0.3c-0.8,0.1-1.4,0.6-1.7,1.3c-0.3,0.7-0.2,1.5,0.3,2.1C126.5,55.6,127.1,55.6,127.4,55.3z"/>
	<path class="st2" d="M115.1,18.7c0.1,0,0.1,0,0.2,0c0.8-0.1,1.4-0.5,1.8-1.2c0.1-0.1,0.2-0.2,0.4-0.3c0.2,0,0.3,0.1,0.4,0.2
		c0.4,0.6,1.2,1,1.9,0.9c0.8-0.1,1.4-0.5,1.8-1.2c0.2-0.4,0-0.9-0.4-1.1c-0.4-0.2-0.9,0-1.1,0.4c-0.1,0.1-0.2,0.2-0.4,0.3
		c-0.2,0-0.3-0.1-0.4-0.2c-0.4-0.6-1.2-1-1.9-0.9c-0.8,0.1-1.4,0.5-1.8,1.2c-0.1,0.1-0.2,0.2-0.4,0.3c-0.2,0-0.3-0.1-0.4-0.2
		c-0.3-0.4-0.8-0.5-1.2-0.2c-0.4,0.3-0.5,0.8-0.2,1.2C113.7,18.4,114.3,18.7,115.1,18.7z"/>
	<path class="st2" d="M106.2,2.9c-0.4,0.6-0.5,1.5-0.1,2.1c0.1,0.1,0.1,0.3,0,0.5c-0.1,0.1-0.2,0.2-0.4,0.2c-0.1,0-0.2,0-0.2,0
		c-0.3,0.1-0.6,0.4-0.6,0.8c0,0.4,0.3,0.7,0.6,0.8c0.1,0,0.1,0,0.2,0c0,0,0.1,0,0.1,0c0.7,0,1.4-0.4,1.8-1c0.4-0.6,0.5-1.5,0.1-2.1
		c-0.1-0.1-0.1-0.3,0-0.5c0.1-0.1,0.2-0.2,0.4-0.2c0.2,0,0.4,0,0.6,0c0.5-0.1,1-0.5,1.3-0.9c0.4-0.6,0.5-1.5,0.1-2.1
		c-0.2-0.4-0.7-0.6-1.1-0.4c-0.4,0.2-0.6,0.7-0.4,1.1c0.1,0.1,0.1,0.3,0,0.5c-0.1,0.2-0.3,0.2-0.4,0.2c-0.3,0-0.6,0-0.8,0.1
		C106.8,2.2,106.5,2.5,106.2,2.9z"/>
	<path class="st2" d="M129.2,10.6c0-2-3-2-3,0C126.2,12.6,129.2,12.6,129.2,10.6z"/>
</g>
</svg>
