<?xml version="1.0" encoding="utf-8"?>
<!-- Generator: Adobe Illustrator 21.0.0, SVG Export Plug-In . SVG Version: 6.00 Build 0)  -->
<svg version="1.1" id="Calque_1" xmlns="http://www.w3.org/2000/svg" xmlns:xlink="http://www.w3.org/1999/xlink" x="0px" y="0px"
	 width="18px" height="18px" viewBox="0 0 22.7 22.7" style="enable-background:new 0 0 22.7 22.7;" xml:space="preserve">
<style type="text/css">
	.st0{fill:#FFFFFF;}
	.st1{fill:#FFFFFF;}
</style>
<g>
	<path class="st0" d="M3.6,19L3.6,19L3.6,19l3.2-0.9l0.2,0.1c1.3,0.8,2.7,1.2,4.2,1.2c4.5,0,8.1-3.6,8.1-8.1c0-4.5-3.6-8.1-8.1-8.1
		s-8.1,3.6-8.1,8.1c0,1.5,0.4,3,1.2,4.2l0.1,0.2L3.6,19L3.6,19L3.6,19z M15.4,11.3c0,1.6-2.3,1.6-2.3,0C13.1,9.8,15.4,9.8,15.4,11.3
		z M12.5,11.3c0,1.6-2.3,1.6-2.3,0C10.2,9.8,12.5,9.8,12.5,11.3z M9.6,11.3c0,1.6-2.3,1.6-2.3,0C7.3,9.8,9.6,9.8,9.6,11.3z"/>
	<path class="st1" d="M15.4,11.3c0-1.6-2.3-1.6-2.3,0C13.1,12.9,15.4,12.9,15.4,11.3z"/>
	<path class="st1" d="M12.5,11.3c0-1.6-2.3-1.6-2.3,0C10.2,12.9,12.5,12.9,12.5,11.3z"/>
	<path class="st1" d="M9.6,11.3c0-1.6-2.3-1.6-2.3,0C7.3,12.9,9.6,12.9,9.6,11.3z"/>
	<path class="st1" d="M11.3,2C6.2,2,2,6.2,2,11.3c0,1.6,0.4,3.2,1.2,4.6l-0.8,2.7c-0.1,0.4,0,0.9,0.3,1.3c0.3,0.3,0.8,0.5,1.3,0.3
		l2.7-0.8c1.4,0.8,3,1.2,4.6,1.2c5.1,0,9.3-4.2,9.3-9.3C20.7,6.2,16.5,2,11.3,2z M4.5,15.8l-0.1-0.2c-0.8-1.3-1.2-2.7-1.2-4.2
		c0-4.5,3.6-8.1,8.1-8.1s8.1,3.6,8.1,8.1c0,4.5-3.7,8.1-8.1,8.1c-1.5,0-2.9-0.4-4.2-1.2l-0.2-0.1l-3.2,0.9l-0.1,0l0,0l0-0.1l0,0
		L4.5,15.8z"/>
</g>
</svg>
