<?xml version="1.0" encoding="utf-8"?>
<!-- Generator: Adobe Illustrator 21.0.0, SVG Export Plug-In . SVG Version: 6.00 Build 0)  -->
<svg version="1.1" id="Calque_2" xmlns="http://www.w3.org/2000/svg" xmlns:xlink="http://www.w3.org/1999/xlink" x="0px" y="0px"
	 width="28px" height="28px" viewBox="0 0 28 28" style="enable-background:new 0 0 28 28;" xml:space="preserve">
<style type="text/css">
	.st0{fill:#7C398A;***REMOVED***
</style>
<g>
	<path class="st0" d="M27.1,0.9c-0.3-0.3-0.8-0.4-1.2-0.3L1.3,10.5c-0.4,0.2-0.7,0.6-0.7,1c0,0.5,0.3,0.9,0.7,1l10.2,3.9l3.9,10.2
		c0.1,0.4,0.5,0.7,1,0.7c0.4,0,0.8-0.3,1-0.7l9.8-24.6C27.5,1.7,27.4,1.2,27.1,0.9z M16.5,23.3l-2.7-7.1l3.9-3.9c0,0,0,0,0.1-0.1
		l0.1-0.1l0,0c0.1-0.2,0.2-0.4,0.2-0.6c0-0.6-0.5-1.1-1.1-1.1c-0.2,0-0.5,0.1-0.6,0.2l0,0l-0.1,0.1c0,0,0,0,0,0l-3.7,3.6l-7.7-3
		l19.7-7.8L16.5,23.3z"/>
</g>
</svg>
