<?xml version="1.0" encoding="utf-8"?>
<!-- Generator: Adobe Illustrator 21.0.0, SVG Export Plug-In . SVG Version: 6.00 Build 0)  -->
<svg version="1.1" id="Calque_2" xmlns="http://www.w3.org/2000/svg" xmlns:xlink="http://www.w3.org/1999/xlink" x="0px" y="0px"
	 width="38px" height="22px" viewBox="0 0 38 22" style="enable-background:new 0 0 38 22;" xml:space="preserve">
<style type="text/css">
	.st0{fill:#7C398A;***REMOVED***
</style>
<path class="st0" d="M10.5,0.8L10.5,0.8C10.2,0.8,10,0.9,9.9,1l-9.4,9.4c0,0,0,0-0.1,0.1c-0.3,0.3-0.2,0.8,0.1,1.1L9.9,21
	c0.3,0.3,0.9,0.4,1.2,0c0.3-0.3,0.3-0.9,0-1.2l-7.9-7.9h33.7c0.5,0,0.9-0.4,0.9-0.9c0-0.5-0.4-0.9-0.9-0.9H3.2l7.9-7.9
	C11.7,1.7,11.2,0.7,10.5,0.8z"/>
</svg>
