<?xml version="1.0" encoding="utf-8"?>
<!-- Generator: Adobe Illustrator 21.0.0, SVG Export Plug-In . SVG Version: 6.00 Build 0)  -->
<svg version="1.1" id="Calque_1" xmlns="http://www.w3.org/2000/svg" xmlns:xlink="http://www.w3.org/1999/xlink" x="0px" y="0px"
	 width="181.6px" height="126.5px" viewBox="0 0 181.6 126.5" style="enable-background:new 0 0 181.6 126.5;" xml:space="preserve"
	>
<style type="text/css">
	.st0{fill:none;}
	.st1{fill:#DFE2EC;}
	.st2{fill:#FFFFFF;}
	.st3{fill:#1EB0DC;}
	.st4{fill:none;stroke:#7C328A;stroke-width:0;stroke-linecap:round;stroke-linejoin:round;}
</style>
<g>
	<path class="st0" d="M83.6,82.7V63.4c-1.7,2.4-3.5,4.4-4.1,5.1c-1.7,1.7-3.6,3.4-5.5,5.1c-3,2.7-6.1,5.4-7.9,7.6
		c-0.4,0.5-0.7,1-1,1.5H83.6z"/>
	<rect x="91.2" y="97" class="st0" width="14.1" height="2.3"/>
	<path class="st0" d="M63.7,86.1c-0.2,1-0.2,1.8-0.1,2.3c3.2,0.1,12.9,0,20-0.1v-2.3H63.7z"/>
	<path class="st0" d="M108.4,29.2C108.4,29.1,108.4,29.1,108.4,29.2C108.4,29.1,108.4,29.1,108.4,29.2c-1-2.7-4.5-11.4-10.1-11.4
		c-3.6,0-7.3,4.9-10.1,13.4c0,0.1-0.1,0.1-0.1,0.2C87,34.8,87,37.9,87,38v55.6h2.5h7v-17c0-0.9,0.8-1.7,1.7-1.7s1.7,0.8,1.7,1.7v17
		h7h2.9V38c0,0,0-0.1,0-0.1C109.9,37.7,110.1,33.1,108.4,29.2z M104.3,42.2c-0.9,0-1.7-0.8-1.7-1.7c0-2.4-1.9-4.3-4.3-4.3
		c-2.4,0-4.3,1.9-4.3,4.3c0,0.9-0.8,1.7-1.7,1.7c-0.9,0-1.7-0.8-1.7-1.7c0-4.3,3.5-7.7,7.7-7.7s7.7,3.5,7.7,7.7
		C106,41.5,105.2,42.2,104.3,42.2z"/>
	<path class="st0" d="M113.3,86.1v2.3c7.1,0.1,16.8,0.1,20,0.1c0.1-0.5,0.1-1.3-0.1-2.3H113.3z"/>
	<path class="st0" d="M131.9,82.7c-0.3-0.5-0.6-1-1-1.5c-1.8-2.2-4.9-4.9-7.9-7.6c-1.9-1.7-3.9-3.5-5.5-5c-0.6-0.7-2.5-2.8-4.2-5.2
		v19.4H131.9z"/>
	<path class="st1" d="M166.5,109.2c0,1.3-1.1,2.4-2.4,2.4h-20c-0.9,0-1.7,0.8-1.7,1.7s0.8,1.7,1.7,1.7h20c3.2,0,5.8-2.6,5.8-5.8
		V70.8c-1.1-1.1-2.3-2.3-3.4-3.4V109.2z"/>
	<path class="st1" d="M170,6.1c0-3.2-2.6-5.8-5.8-5.8H6c-3.2,0-5.8,2.6-5.8,5.8v103.1c0,3.2,2.6,5.8,5.8,5.8h49.8
		c0.9,0,1.7-0.8,1.7-1.7s-0.8-1.7-1.7-1.7H37.6V3.7h126.6c1.3,0,2.4,1.1,2.4,2.4v54.7c1.1,1.1,2.3,2.3,3.4,3.4V6.1z M30.5,42.7
		c0.7,0,1.3,0.6,1.3,1.3v0.7c0,0.7-0.6,1.3-1.3,1.3H7.3c-0.7,0-1.3-0.6-1.3-1.3v-0.7c0-0.7,0.6-1.3,1.3-1.3H30.5z M16.6,19.3
		c0-0.9,0.8-1.7,1.7-1.7h11.8c0.9,0,1.7,0.8,1.7,1.7s-0.8,1.7-1.7,1.7H18.3C17.4,20.9,16.6,20.2,16.6,19.3z M7.3,72.5
		c-0.7,0-1.3-0.6-1.3-1.3v-0.7c0-0.7,0.6-1.3,1.3-1.3h23.2c0.7,0,1.3,0.6,1.3,1.3v0.7c0,0.7-0.6,1.3-1.3,1.3H7.3z M21.2,94
		c0,0.9-0.8,1.7-1.7,1.7H7.7C6.8,95.7,6,94.9,6,94c0-0.9,0.8-1.7,1.7-1.7h11.8C20.5,92.3,21.2,93.1,21.2,94z M30.5,59.3H7.3
		C6.6,59.3,6,58.7,6,58v-0.7c0-0.7,0.6-1.3,1.3-1.3h23.2c0.7,0,1.3,0.6,1.3,1.3V58C31.8,58.7,31.2,59.3,30.5,59.3z M9.6,23
		c-2,0-3.6-1.6-3.6-3.6c0-2,1.6-3.6,3.6-3.6s3.6,1.6,3.6,3.6C13.2,21.3,11.6,23,9.6,23z"/>
	<path class="st2" d="M6,44.1v0.7c0,0.7,0.6,1.3,1.3,1.3h23.2c0.7,0,1.3-0.6,1.3-1.3v-0.7c0-0.7-0.6-1.3-1.3-1.3H7.3
		C6.6,42.7,6,43.3,6,44.1z"/>
	<path class="st2" d="M31.8,57.3c0-0.7-0.6-1.3-1.3-1.3H7.3c-0.7,0-1.3,0.6-1.3,1.3V58c0,0.7,0.6,1.3,1.3,1.3h23.2
		c0.7,0,1.3-0.6,1.3-1.3V57.3z"/>
	<path class="st2" d="M31.8,71.2v-0.7c0-0.7-0.6-1.3-1.3-1.3H7.3c-0.7,0-1.3,0.6-1.3,1.3v0.7c0,0.7,0.6,1.3,1.3,1.3h23.2
		C31.2,72.5,31.8,71.9,31.8,71.2z"/>
	<path class="st2" d="M7.7,92.3C6.8,92.3,6,93.1,6,94c0,0.9,0.8,1.7,1.7,1.7h11.8c0.9,0,1.7-0.8,1.7-1.7c0-0.9-0.8-1.7-1.7-1.7H7.7z
		"/>
	<path class="st2" d="M30.2,20.9c0.9,0,1.7-0.8,1.7-1.7s-0.8-1.7-1.7-1.7H18.3c-0.9,0-1.7,0.8-1.7,1.7s0.8,1.7,1.7,1.7H30.2z"/>
	<path class="st1" d="M98.3,32.8c-4.3,0-7.7,3.5-7.7,7.7c0,0.9,0.8,1.7,1.7,1.7c0.9,0,1.7-0.8,1.7-1.7c0-2.4,1.9-4.3,4.3-4.3
		c2.4,0,4.3,1.9,4.3,4.3c0,0.9,0.8,1.7,1.7,1.7s1.7-0.8,1.7-1.7C106,36.3,102.5,32.8,98.3,32.8z"/>
	<path class="st1" d="M136,83.4c-0.6-1.5-1.4-3-2.6-4.4c-2-2.4-5.1-5.2-8.2-8c-2-1.8-3.8-3.4-5.3-4.9c-2.7-3-6.6-8.3-6.6-10.2
		c0-0.1,0-0.3,0-0.4V38.1c0,0,0,0,0,0c0-0.2,0.2-5.5-1.7-10.1c0,0,0,0,0,0c-1.5-4.1-5.7-13.6-13.3-13.6c-6.3,0-10.4,7.5-12.9,14.4
		c-1.4,3.4-1.7,6.7-1.8,8.3c0,0.1,0,0.2,0,0.3v0.6V38v17.9c0,0,0,0,0,0c0,2-3.9,7.3-6.6,10.2c-1.5,1.5-3.4,3.2-5.3,4.9
		c-3.1,2.8-6.2,5.6-8.2,8c-1.1,1.4-2,2.9-2.6,4.4c-0.2,0.3-0.3,0.6-0.3,0.9c-0.9,3.1-0.5,6.4,0.8,7.2c0.4,0.2,0.6,0.4,7.6,0.4
		c3.2,0,7.8,0,14.5-0.1v3.6c0,0.9,0.8,1.7,1.7,1.7h2.5v4c0,0.9,0.8,1.7,1.7,1.7H107c0.9,0,1.7-0.8,1.7-1.7v-4h2.9
		c0.9,0,1.7-0.8,1.7-1.7v-3.6c6.7,0.1,11.3,0.1,14.5,0.1c7,0,7.3-0.1,7.6-0.4c1.3-0.8,1.7-4.1,0.8-7.2C136.3,84,136.2,83.7,136,83.4
		z M117.5,68.5c1.6,1.6,3.6,3.3,5.5,5c3,2.7,6.1,5.4,7.9,7.6c0.4,0.5,0.7,1,1,1.5h-18.6V63.3C115,65.7,116.9,67.8,117.5,68.5z
		 M74,73.6c1.9-1.7,3.9-3.5,5.5-5.1c0.6-0.7,2.4-2.7,4.1-5.1v19.3H65.1c0.3-0.5,0.6-1,1-1.5C67.9,79,71,76.3,74,73.6z M63.6,88.4
		c-0.1-0.5-0.1-1.3,0.1-2.3h19.9v2.3C76.5,88.4,66.8,88.5,63.6,88.4z M105.3,99.3H91.2V97h14.1V99.3z M109.9,93.6H107h-7v-17
		c0-0.9-0.8-1.7-1.7-1.7s-1.7,0.8-1.7,1.7v17h-7H87V38c0,0,0-3.2,1.1-6.7c0-0.1,0.1-0.1,0.1-0.2c2.8-8.5,6.5-13.4,10.1-13.4
		c5.5,0,9.1,8.7,10,11.3c0,0,0,0,0,0c0,0,0,0,0,0c1.6,3.9,1.5,8.6,1.5,8.8c0,0,0,0.1,0,0.1V93.6z M133.4,88.4
		c-3.2,0.1-12.9,0-20-0.1v-2.3h19.9C133.4,87.1,133.4,87.9,133.4,88.4z"/>
	<path class="st3" d="M99.2,112v-4.7c0-0.5-0.4-0.9-0.9-0.9s-0.9,0.4-0.9,0.9v3.5c-2-1-4.2-1.6-6.6-1.6c-2.7,0-5.2,0.8-7.4,2.1
		c-0.9-5.2-5.4-9.1-10.9-9.1c-6.1,0-11.1,5-11.1,11.1c0,3,1.2,5.7,3.2,7.8c0.2,0.2,0.4,0.3,0.7,0.3c0.2,0,0.5-0.1,0.7-0.3
		c0.4-0.4,0.4-1,0-1.3c-1.7-1.7-2.7-4-2.7-6.5c0-5.1,4.1-9.2,9.2-9.2c4.8,0,8.8,3.7,9.1,8.4c-3.1,2.6-5.1,6.5-5.1,10.9
		c0,0.5,0.4,0.9,0.9,0.9s0.9-0.4,0.9-0.9c0-6.8,5.5-12.3,12.3-12.3c2.4,0,4.7,0.7,6.6,1.9v5.2c0,0.5,0.4,0.9,0.9,0.9
		s0.9-0.4,0.9-0.9v-3.7c2.4,2.2,3.8,5.4,3.8,8.9c0,0.6,0,1.2-0.1,1.8c-0.1,0.5,0.3,1,0.8,1.1c0,0,0.1,0,0.1,0c0.5,0,0.9-0.3,0.9-0.8
		c0.1-0.7,0.2-1.4,0.2-2.1C104.9,118.7,102.7,114.6,99.2,112z"/>
	<path class="st3" d="M86.2,106.2v-3.6c0-0.5-0.4-0.9-0.9-0.9s-0.9,0.4-0.9,0.9v3.6c0,0.5,0.4,0.9,0.9,0.9S86.2,106.7,86.2,106.2z"
		/>
	<path class="st3" d="M110.2,117.2c-0.5,0-0.9,0.4-0.9,0.9v4.6c0,0.5,0.4,0.9,0.9,0.9s0.9-0.4,0.9-0.9v-4.6
		C111.2,117.6,110.7,117.2,110.2,117.2z"/>
	<path class="st3" d="M135.1,112.3h-3.2c0.7-1.4,1.1-3,1.1-4.7c0-5.7-4.6-10.3-10.3-10.3c-5.2,0-9.6,3.9-10.2,9l0,0
		c-3.9,0-7.4,1.7-9.8,4.8c-0.3,0.4-0.2,1,0.2,1.3c0.2,0.1,0.4,0.2,0.6,0.2c0.3,0,0.6-0.1,0.7-0.4c2-2.6,5-4.1,8.3-4.1
		c1.4,0,2.8,0.3,4.1,0.8c0.5,0.2,1,0,1.2-0.5c0.2-0.5,0-1-0.5-1.2c-1-0.4-1.9-0.7-3-0.8c0.6-4.1,4.1-7.3,8.4-7.3
		c4.7,0,8.4,3.8,8.4,8.4c0,1.7-0.5,3.3-1.4,4.7h-7c-0.5,0-0.9,0.4-0.9,0.9s0.4,0.9,0.9,0.9h12.4c0.5,0,0.9-0.4,0.9-0.9
		S135.6,112.3,135.1,112.3z"/>
	<circle class="st2" cx="9.6" cy="19.4" r="3.6"/>
	<path class="st3" d="M128.9,57.9c-4.3-0.3-4.6-4.3-4.7-5.3l0,10.3C124.2,58.4,127.6,57.9,128.9,57.9z"/>
	<path class="st3" d="M124.2,52.6l0-0.2C124.2,52.4,124.2,52.4,124.2,52.6z"/>
	<path class="st3" d="M128.9,57.9c0.2,0,0.3,0,0.5,0C129.4,57.9,129.2,57.9,128.9,57.9z"/>
	<path class="st3" d="M119.6,57.4c4.3,0.3,4.6,4.3,4.7,5.3l0-10.3C124.2,56.9,120.9,57.4,119.6,57.4z"/>
	<path class="st3" d="M124.2,62.7v0.2C124.2,62.9,124.2,62.8,124.2,62.7z"/>
	<path class="st3" d="M119.6,57.4c-0.2,0-0.3,0-0.5,0C119.1,57.4,119.3,57.4,119.6,57.4z"/>
	<path class="st3" d="M128.7,34.4v-0.2C128.7,34.2,128.7,34.3,128.7,34.4z"/>
	<path class="st3" d="M132.7,39c0.1,0,0.3,0,0.4,0C133.1,39,133,39,132.7,39z"/>
	<path class="st3" d="M124.6,38.5c3.7,0.2,4,3.7,4,4.6l0-2.1c0,0,0,0,0,0l0,2.3c0-3.9,2.9-4.3,4-4.3c-3.7-0.2-4-3.7-4-4.6l0,2.2
		c0,0,0,0,0,0l0-2.4C128.7,38.1,125.8,38.5,124.6,38.5z"/>
	<path class="st3" d="M128.7,43.1v0.2C128.7,43.3,128.7,43.2,128.7,43.1z"/>
	<path class="st3" d="M124.6,38.5c-0.1,0-0.3,0-0.4,0C124.2,38.5,124.4,38.5,124.6,38.5z"/>
	<path class="st3" d="M135.8,16.6v-0.2C135.8,16.5,135.8,16.5,135.8,16.6z"/>
	<path class="st3" d="M139.7,21c0.1,0,0.3,0,0.4,0C140.1,21,139.9,21,139.7,21z"/>
	<path class="st3" d="M132,20.6c3.5,0.2,3.8,3.5,3.8,4.4l0-2.1c0,0,0,0,0,0l0,2.3c0-3.7,2.8-4.1,3.8-4.1c-3.5-0.2-3.8-3.5-3.8-4.4
		l0,2.1c0,0,0,0,0,0l0-2.3C135.8,20.2,133.1,20.6,132,20.6z"/>
	<path class="st3" d="M135.8,24.9v0.2C135.8,25.1,135.8,25.1,135.8,24.9z"/>
	<path class="st3" d="M132,20.6c-0.1,0-0.3,0-0.4,0C131.6,20.6,131.7,20.6,132,20.6z"/>
	<path class="st3" d="M134.4,45.9c-1.8-0.1-1.9-1.8-1.9-2.2l0,1.6c0,0,0,0,0,0l0-1.7c0,1.9-1.4,2.1-2,2.1c1.8,0.1,1.9,1.8,1.9,2.2
		l0-1.3c0,0,0,0,0,0l0,1.4C132.4,46.1,133.8,45.9,134.4,45.9z"/>
	<line class="st4" x1="132.4" y1="43.7" x2="132.4" y2="43.6"/>
	<path class="st3" d="M134.4,45.9c0.1,0,0.1,0,0.2,0C134.6,45.9,134.5,45.9,134.4,45.9z"/>
	<line class="st4" x1="132.4" y1="48" x2="132.4" y2="47.9"/>
	<path class="st3" d="M130.5,45.7c-0.1,0-0.1,0-0.2,0C130.3,45.7,130.4,45.7,130.5,45.7z"/>
	<path class="st3" d="M79.4,44.6c-3.5-0.2-3.8-3.5-3.8-4.3l0,8.4C75.6,45,78.3,44.6,79.4,44.6z"/>
	<path class="st3" d="M75.6,40.3v-0.2C75.6,40.1,75.5,40.1,75.6,40.3z"/>
	<path class="st3" d="M79.4,44.6c0.1,0,0.3,0,0.4,0C79.8,44.6,79.6,44.6,79.4,44.6z"/>
	<path class="st3" d="M71.7,44.2c3.5,0.2,3.8,3.5,3.8,4.3l0-8.4C75.5,43.8,72.8,44.2,71.7,44.2z"/>
	<path class="st3" d="M75.5,48.5v0.2C75.5,48.7,75.6,48.6,75.5,48.5z"/>
	<path class="st3" d="M71.7,44.2c-0.1,0-0.3,0-0.4,0C71.3,44.2,71.5,44.2,71.7,44.2z"/>
	<path class="st3" d="M181.2,75.4c-3.7-3.7-7.5-7.5-11.2-11.2c-1.1-1.1-2.3-2.3-3.4-3.4c-8.8-8.8-17.5-17.5-26.3-26.3
		c-1,1.1-2.1,2.2-3.2,3.3c9.9,9.9,19.7,19.7,29.5,29.5c1.1,1.1,2.3,2.3,3.4,3.4c2.7,2.7,5.3,5.3,8,8C179,77.6,180.2,76.5,181.2,75.4
		z"/>
	<path class="st3" d="M135,35.8c1-1.1,2.1-2.2,3.2-3.3c-1.7-1.7-3.5-3.5-5.1-5.1c-1.1,1-2.3,2.1-3.4,3.1
		C131.6,32.3,133.3,34.1,135,35.8z"/>
	<path class="st3" d="M149.6,29c-0.8-0.8-1.5-1.6-2.1-2.3c-0.6,0.6-1.4,1.5-2.1,2.2c0.7,0.7,1.5,1.5,2.2,2.2
		c0.2-0.3,0.4-0.9,0.8-1.3C148.8,29.4,149.4,29.2,149.6,29z"/>
</g>
</svg>
