<?xml version="1.0" encoding="utf-8"?>
<!-- Generator: Adobe Illustrator 21.0.0, SVG Export Plug-In . SVG Version: 6.00 Build 0)  -->
<svg version="1.1" id="Calque_1" xmlns="http://www.w3.org/2000/svg" xmlns:xlink="http://www.w3.org/1999/xlink" x="0px" y="0px"
	 width="282px" height="238px" viewBox="0 0 282 238" style="enable-background:new 0 0 282 238;" xml:space="preserve">
<style type="text/css">
	.st0{fill:none;stroke:#DFE2EC;stroke-width:2.4392;stroke-linecap:round;stroke-linejoin:round;stroke-miterlimit:10;}
	.st1{fill:none;stroke:#DFE2EC;stroke-width:2.4395;stroke-linecap:round;stroke-linejoin:round;stroke-miterlimit:10;}
	.st2{fill:#FFFFFF;stroke:#DFE2EC;stroke-width:2.4395;stroke-linecap:round;stroke-linejoin:round;stroke-miterlimit:10;}
	.st3{fill:#FFFFFF;stroke:#DFE2EC;stroke-width:2.4392;stroke-linecap:round;stroke-linejoin:round;stroke-miterlimit:10;}
	.st4{fill:none;stroke:#DFE2EC;stroke-width:2.6779;stroke-linecap:round;stroke-linejoin:round;stroke-miterlimit:10;}
	.st5{fill:#FFFFFF;stroke:#7C308C;stroke-width:2.4392;stroke-linecap:round;stroke-linejoin:round;stroke-miterlimit:10;}
	.st6{fill:none;stroke:#7C308C;stroke-width:2.4392;stroke-linecap:round;stroke-linejoin:round;stroke-miterlimit:10;}
	.st7{fill:#7C308C;}
	.st8{fill:none;stroke:#7C308C;stroke-width:3.0375;stroke-linecap:round;stroke-linejoin:round;stroke-miterlimit:10;}
	.st9{fill:none;stroke:#7C308C;stroke-width:1.7852;stroke-linecap:round;stroke-linejoin:round;stroke-miterlimit:10;}
	
		.st10{opacity:0.6;fill:none;stroke:#DFE2EC;stroke-width:2.4392;stroke-linecap:round;stroke-linejoin:round;stroke-miterlimit:10;enable-background:new    ;}
</style>
<g>
	<g id="Calque_6">
		<path class="st0" d="M245.5,226.7h-209c-17.7,0-32-14.4-32-32l0,0c0-17.7,14.4-32,32-32h209.1c17.7,0,32,14.4,32,32l0,0
			C277.5,212.4,263.2,226.7,245.5,226.7z"/>
		<path class="st0" d="M224.8,168.7c7.9,5.8,13.1,15.3,13.1,25.9l0,0c0,17.7-14.4,32-32,32"/>
		<path class="st0" d="M87,226.7c-17.7,0-32-14.4-32-32l0,0c0-9.9,4.5-18.7,11.5-24.6"/>
		<path class="st0" d="M254.5,163.9c-31,5.8-69.9,9.2-112.2,9.2c-43.1,0-82.7-3.6-113.9-9.6"/>
		<rect x="136.1" y="186" class="st0" width="25.2" height="25.2"/>
		<line class="st0" x1="144.4" y1="186" x2="144.4" y2="211.3"/>
		<line class="st0" x1="152.8" y1="186" x2="152.8" y2="211.3"/>
		<line class="st1" x1="136.1" y1="194.6" x2="161.2" y2="194.6"/>
		<line class="st0" x1="136.1" y1="202.3" x2="161.2" y2="202.3"/>
		<rect x="153.2" y="184.8" class="st2" width="9.5" height="9.5"/>
		<rect x="135" y="202.3" class="st2" width="9.5" height="9.5"/>
		<line class="st1" x1="179.4" y1="194.6" x2="179.4" y2="205"/>
		<line class="st1" x1="184.5" y1="194.6" x2="184.5" y2="205"/>
		<line class="st1" x1="189.9" y1="194.6" x2="189.9" y2="205"/>
		<line class="st1" x1="195" y1="194.6" x2="195" y2="205"/>
		<line class="st1" x1="89.4" y1="189.4" x2="111.5" y2="189.4"/>
		<circle class="st2" cx="95.8" cy="189.6" r="3.5"/>
		<line class="st1" x1="89.4" y1="200.8" x2="111.5" y2="200.8"/>
		<circle class="st2" cx="95.8" cy="200.9" r="3.5"/>
		<line class="st1" x1="111.5" y1="211.8" x2="89.4" y2="211.8"/>
		<circle class="st2" cx="105.1" cy="211.8" r="3.5"/>
		<path class="st3" d="M174.8,54.6c0-0.3-0.1-0.6-0.4-0.8l-27.8-32.5l0,0c0,0,0,0,0-0.1c-0.1-0.1-0.2-0.2-0.3-0.2c0,0,0,0-0.1,0
			c-0.1-0.1-0.2-0.1-0.3-0.1h0.1c-0.1,0-0.3-0.1-0.4,0l0,0l0,0l-32,1.3c-0.4,0-0.7,0.2-0.9,0.4l0,0l-2.1,2.1h1.5
			c-0.9,6.9-4.8,39.2,0.2,56.8c6.9,24.2,24.9,46.9,25.1,47.1l0.1,0.1l0.1,0.1l0,0c0.1,0.1,0.3,0.2,0.4,0.3h0.1
			c0.2,0.1,0.3,0.1,0.4,0.1s0.2,0,0.3,0c1.2-0.3,27.5-5.6,32.8-19.2C176.8,96.6,174.9,56.3,174.8,54.6z"/>
		<path class="st3" d="M172.8,56.5c0-0.3-0.1-0.6-0.4-0.8l-27.8-32.5l0,0c0,0,0,0,0-0.1c-0.1-0.1-0.2-0.2-0.3-0.2c0,0,0,0-0.1,0
			c-0.1-0.1-0.2-0.1-0.3-0.1h-0.1c-0.1,0-0.3-0.1-0.4,0l0,0l0,0l-32,1.3c-0.7,0-1.2,0.5-1.3,1.2c-0.3,1.6-5.4,38.7,0,58.1
			c6.9,24.2,24.9,46.9,25.1,47.1l0.1,0.1l0.1,0.1l0,0c0.1,0.1,0.3,0.2,0.4,0.3h0.1c0.2,0.1,0.3,0.1,0.4,0.1s0.2,0,0.3,0
			c1.2-0.3,27.5-5.6,32.8-19.2C174.7,98.6,172.9,58.3,172.8,56.5z"/>
	</g>
	<g id="Calque_7">
		<g>
			<g>
				<path class="st4" d="M105.7,61.1c-1.3,1.1-3.4,1.2-4.8,0L95,56.7c-1.8-1.3-2.1-3.8-0.8-5.6l2.3-3.1c1.3-1.8,3.8-2.1,5.6-0.8
					l5.9,4.4c1.8,1.3,2.1,3.8,0.8,5.6"/>
				<line class="st4" x1="102.6" y1="56.1" x2="113.4" y2="63.1"/>
			</g>
			<g>
				<path class="st4" d="M107.5,45.6H105c-2.2,0-4-1.7-4.1-3.9l-0.1-3.8c0-2.2,1.7-4,3.9-4.1l3.7-0.1"/>
			</g>
			<g>
				<path class="st4" d="M122,74.3c-1.3,1.1-3.4,1.2-4.8,0l-5.9-4.4c-1.8-1.3-2.1-3.8-0.8-5.6l2.3-3.1c1.3-1.8,3.8-2.1,5.6-0.8
					l5.9,4.4c1.8,1.3,2.1,3.8,0.8,5.6"/>
				<line class="st4" x1="118.9" y1="69.3" x2="129.7" y2="76.3"/>
			</g>
			<g>
				<path class="st4" d="M137.2,86.2c-1.3,1.1-3.4,1.2-4.8,0l-5.9-4.4c-1.8-1.3-2.1-3.8-0.8-5.6l2.3-3.1c1.3-1.8,3.8-2.1,5.6-0.8
					l5.9,4.4c1.8,1.3,2.1,3.8,0.8,5.6"/>
				<line class="st4" x1="134.1" y1="81.2" x2="144.8" y2="88.2"/>
			</g>
			<g>
				<path class="st4" d="M155.5,97.4c-1.3,1.2-3.3,1.3-4.8,0.4l-6.2-3.9c-1.9-1.2-2.4-3.7-1.2-5.5l2.1-3.2c1.2-1.9,3.7-2.4,5.5-1.2
					l6.2,4c1.9,1.2,2.4,3.7,1.2,5.5"/>
				<line class="st4" x1="152.2" y1="92.7" x2="163.4" y2="99"/>
			</g>
			<g>
				<path class="st4" d="M173.9,108.4c-1.3,1.2-3.3,1.3-4.8,0.4l-6.2-4c-1.9-1.2-2.4-3.7-1.2-5.5l2.1-3.2c1.2-1.9,3.7-2.4,5.5-1.2
					l6.2,4c1.9,1.2,2.4,3.7,1.2,5.5"/>
			</g>
			<g>
				<path class="st4" d="M174.8,81.7c0.8,0.2,1.6,0.5,2.2,1.2l5,5.4c1.5,1.6,1.4,4.2-0.2,5.6l-2.9,2.7c-1.6,1.5-4.2,1.4-5.6-0.2"/>
			</g>
			<path class="st4" d="M94.2,51.1c0,0-4.3-12.3,13.8-11.4"/>
			<path class="st4" d="M174.7,89.6c0,0,15.3,12.1,5.3,15.7c-7.7,2.9-10.6-3.1-10.6-3.1"/>
		</g>
		<g>
			<g>
				<path class="st4" d="M161.2,62.3c1.3,1.1,3.4,1.2,4.8,0l5.9-4.4c1.8-1.3,2.1-3.8,0.8-5.6l-2.3-3.1c-1.3-1.8-3.8-2.1-5.6-0.8
					l-5.9,4.4c-1.8,1.3-2.1,3.8-0.8,5.6"/>
				<line class="st4" x1="164.4" y1="57.4" x2="153.6" y2="64.5"/>
			</g>
			<g>
				<path class="st4" d="M146.1,74.2c1.3,1.1,3.4,1.2,4.8,0l5.9-4.4c1.8-1.3,2.1-3.8,0.8-5.6l-2.3-3.1c-1.3-1.8-3.8-2.1-5.6-0.8
					l-5.9,4.4c-1.8,1.3-2.1,3.8-0.8,5.6"/>
				<line class="st4" x1="149.1" y1="69.2" x2="138.4" y2="76.3"/>
			</g>
			<g>
				<path class="st4" d="M127.6,85.5c1.3,1.2,3.3,1.3,4.8,0.4l6.2-4c1.9-1.2,2.4-3.7,1.2-5.5l-2.1-3.2c-1.2-1.9-3.7-2.4-5.5-1.2
					l-6.2,4c-1.9,1.2-2.4,3.7-1.2,5.5"/>
				<line class="st4" x1="131.1" y1="80.7" x2="119.8" y2="87.1"/>
			</g>
			<g>
				<path class="st4" d="M109.2,96.4c1.3,1.2,3.3,1.3,4.8,0.4l6.2-4c1.9-1.2,2.4-3.7,1.2-5.5l-2.1-3.2c-1.2-1.9-3.7-2.4-5.5-1.2
					l-6.2,4c-1.9,1.2-2.4,3.7-1.2,5.5"/>
			</g>
			<g>
				<path class="st4" d="M108.4,69.7c-0.8,0.2-1.6,0.5-2.2,1.2l-5,5.4c-1.5,1.6-1.4,4.2,0.2,5.6l2.9,2.7c1.6,1.5,4.2,1.4,5.6-0.2"/>
			</g>
			<path class="st4" d="M108.5,77.8c0,0-15.3,12.1-5.3,15.7c7.7,2.9,10.6-3.1,10.6-3.1"/>
		</g>
		<path class="st4" d="M169.2,52.1c0,0,9.5-6.2-3.4-8.4"/>
		<g>
			<path class="st5" d="M144.7,81.3c-0.4,6.9-6.4,10.9-13.5,8.9s-12.3-9-11.9-15.9s6.4-10.9,13.5-8.9
				C139.9,67.4,145.1,74.5,144.7,81.3z"/>
			<path class="st6" d="M138.2,68.2l0.4-7.2c0.2-3-2.1-6.2-5.3-7.1c-3.1-0.9-5.7,0.9-6,3.9l-0.4,6.9"/>
			<g>
				<path class="st7" d="M134.7,77.2c-0.1,1.4-1.3,2.2-2.7,1.8c-1.4-0.4-2.5-1.9-2.4-3.2c0.1-1.3,1.3-2.2,2.7-1.8
					C133.7,74.4,134.8,75.8,134.7,77.2z"/>
				<line class="st8" x1="131.8" y1="81.7" x2="132.1" y2="77.1"/>
			</g>
		</g>
		<line class="st9" x1="87" y1="108.7" x2="87" y2="116.9"/>
		<line class="st9" x1="181" y1="49.3" x2="181" y2="38"/>
		<line class="st9" x1="181" y1="55.5" x2="181" y2="57"/>
		<path class="st9" d="M141.5,101.8c0,0,21.7,18.4,41.6,13.6c19.9-4.8,15.4-16.3,15.4-16.3"/>
		<path class="st9" d="M85.5,43.7c-1.2-6.2,0.9-12.9,14.5-14.5"/>
		<line class="st9" x1="119.8" y1="166.5" x2="119.8" y2="136"/>
		<line class="st9" x1="178.2" y1="148" x2="178.2" y2="135.2"/>
		<line class="st10" x1="208.5" y1="126.3" x2="208.5" y2="90"/>
		<line class="st9" x1="210.4" y1="126.3" x2="210.4" y2="112.7"/>
		<line class="st9" x1="210.4" y1="106.4" x2="210.4" y2="107.9"/>
		<line class="st10" x1="119.8" y1="38" x2="119.8" y2="11.3"/>
	</g>
</g>
</svg>
