<?xml version="1.0" encoding="utf-8"?>
<!-- Generator: Adobe Illustrator 21.0.0, SVG Export Plug-In . SVG Version: 6.00 Build 0)  -->
<svg version="1.1" id="Calque_1" xmlns="http://www.w3.org/2000/svg" xmlns:xlink="http://www.w3.org/1999/xlink" x="0px" y="0px"
	 width="1000px" height="187px" viewBox="0 0 1000 187" style="enable-background:new 0 0 1000 187;" xml:space="preserve">
<style type="text/css">
	.st0{opacity:0.2;fill:#DFE2EC;enable-background:new    ;}
</style>
<g id="Calque_8">
	<path class="st0" d="M-1,66.5c0,0,84-70.9,168-52.7s-35,62.1-11,85.1s573.7,30,338.8,88H-1V66.5z"/>
	<path class="st0" d="M467.3,126c0,0,167-7.2,132.4,26.8c-34.7,34,87.9,16.3,138.3-31.6c65-61.9,111-61.9,108-37.6
		c-5.3,42.7-104,103.2-37,103.2s192,0,192,0V69.5c0,0,20.7-70.1-181-25.5S306.1,99.6,467.3,126z"/>
</g>
</svg>
