<?xml version="1.0" encoding="utf-8"?>
<!-- Generator: Adobe Illustrator 21.0.0, SVG Export Plug-In . SVG Version: 6.00 Build 0)  -->
<svg version="1.1" xmlns="http://www.w3.org/2000/svg" xmlns:xlink="http://www.w3.org/1999/xlink" x="0px" y="0px" width="1000px"
	 height="282px" viewBox="0 0 1000 282" style="enable-background:new 0 0 1000 282;" xml:space="preserve">
<style type="text/css">
	.st0{opacity:0.2;fill:#DFE2EC;***REMOVED***
	.st1{fill:none;stroke:#DFE2EC;stroke-width:2.7326;stroke-linecap:round;stroke-linejoin:round;stroke-miterlimit:10;***REMOVED***
	.st2{fill:none;stroke:#DFE2EC;stroke-width:2.733;stroke-linecap:round;stroke-linejoin:round;stroke-miterlimit:10;***REMOVED***
	.st3{fill:#FFFFFF;stroke:#DFE2EC;stroke-width:2.733;stroke-linecap:round;stroke-linejoin:round;stroke-miterlimit:10;***REMOVED***
	.st4{fill:#FFFFFF;stroke:#DFE2EC;stroke-width:2.7326;stroke-linecap:round;stroke-linejoin:round;stroke-miterlimit:10;***REMOVED***
	.st5{fill:none;stroke:#DFE2EC;stroke-width:3;stroke-linecap:round;stroke-linejoin:round;stroke-miterlimit:10;***REMOVED***
	.st6{fill:#FFFFFF;stroke:#7C308C;stroke-width:2.7326;stroke-linecap:round;stroke-linejoin:round;stroke-miterlimit:10;***REMOVED***
	.st7{fill:none;stroke:#7C308C;stroke-width:2.7326;stroke-linecap:round;stroke-linejoin:round;stroke-miterlimit:10;***REMOVED***
	.st8{fill:#7C308C;***REMOVED***
	.st9{fill:none;stroke:#7C308C;stroke-width:3.4029;stroke-linecap:round;stroke-linejoin:round;stroke-miterlimit:10;***REMOVED***
	.st10{fill:none;stroke:#7C308C;stroke-width:2;stroke-linecap:round;stroke-linejoin:round;stroke-miterlimit:10;***REMOVED***
	
		.st11{opacity:0.6;fill:none;stroke:#DFE2EC;stroke-width:2.7326;stroke-linecap:round;stroke-linejoin:round;stroke-miterlimit:10;***REMOVED***
</style>
<g id="Calque_8">
	<path class="st0" d="M-1,161.5c0,0,84-70.9,168-52.7s-35,62.1-11,85.1s573.7,30,338.8,88H-1V161.5z"/>
	<path class="st0" d="M467.3,221c0,0,167-7.2,132.4,26.8c-34.7,34,87.9,16.3,138.3-31.6c65-61.9,111-61.9,108-37.6
		c-5.3,42.7-104,103.2-37,103.2s192,0,192,0V164.5c0,0,20.7-70.1-181-25.5S306.1,194.6,467.3,221z"/>
</g>
<g id="Calque_6">
	<path class="st1" d="M608.1,243.8H373.9c-19.8,0-35.9-16.1-35.9-35.9v0c0-19.8,16.1-35.9,35.9-35.9h234.2
		c19.8,0,35.9,16.1,35.9,35.9v0C644,227.8,627.9,243.8,608.1,243.8z"/>
	<path class="st1" d="M584.9,178.9c8.9,6.5,14.7,17.1,14.7,29v0c0,19.8-16.1,35.9-35.9,35.9"/>
	<path class="st1" d="M430.5,243.8c-19.8,0-35.9-16.1-35.9-35.9v0c0-11.1,5-21,12.9-27.6"/>
	<path class="st1" d="M618.3,173.5c-34.7,6.5-78.3,10.3-125.7,10.3c-48.3,0-92.6-4-127.6-10.7"/>
	<rect x="485.5" y="198.3" class="st1" width="28.2" height="28.2"/>
	<line class="st1" x1="494.8" y1="198.3" x2="494.8" y2="226.6"/>
	<line class="st1" x1="504.2" y1="198.3" x2="504.2" y2="226.6"/>
	<line class="st2" x1="485.5" y1="207.9" x2="513.7" y2="207.9"/>
	<line class="st1" x1="485.5" y1="216.5" x2="513.7" y2="216.5"/>
	<rect x="504.7" y="196.9" class="st3" width="10.6" height="10.6"/>
	<rect x="484.3" y="216.5" class="st3" width="10.6" height="10.6"/>
	<line class="st3" x1="534" y1="207.9" x2="534" y2="219.5"/>
	<line class="st3" x1="539.7" y1="207.9" x2="539.7" y2="219.5"/>
	<line class="st3" x1="545.8" y1="207.9" x2="545.8" y2="219.5"/>
	<line class="st3" x1="551.5" y1="207.9" x2="551.5" y2="219.5"/>
	<line class="st3" x1="433.2" y1="202.1" x2="458" y2="202.1"/>
	<circle class="st3" cx="440.4" cy="202.3" r="3.9"/>
	<line class="st3" x1="433.2" y1="214.8" x2="458" y2="214.8"/>
	<circle class="st3" cx="440.4" cy="214.9" r="3.9"/>
	<line class="st3" x1="458" y1="227.2" x2="433.2" y2="227.2"/>
	<circle class="st3" cx="450.8" cy="227.1" r="3.9"/>
	<path class="st4" d="M528.9,51c0-0.3-0.1-0.7-0.4-0.9l-31.1-36.4c0,0,0,0,0,0c0,0,0,0,0-0.1c-0.1-0.1-0.2-0.2-0.3-0.2
		c0,0,0,0-0.1,0c-0.1-0.1-0.2-0.1-0.3-0.1c0,0-0.1,0-0.1,0c-0.1,0-0.3-0.1-0.4,0c0,0,0,0,0,0c0,0,0,0,0,0l-35.8,1.5
		c-0.4,0-0.8,0.2-1,0.5l0,0l-2.4,2.4l1.7,0c-1,7.7-5.4,43.9,0.2,63.6c7.7,27.1,27.9,52.5,28.1,52.8c0,0,0.1,0.1,0.1,0.1
		c0,0,0.1,0.1,0.1,0.1c0,0,0,0,0,0c0.1,0.1,0.3,0.2,0.4,0.3c0,0,0.1,0,0.1,0c0.2,0.1,0.3,0.1,0.5,0.1c0.1,0,0.2,0,0.3,0
		c1.3-0.3,30.8-6.3,36.8-21.5C531.1,98.1,529,52.9,528.9,51z"/>
	<path class="st4" d="M526.6,53.2c0-0.3-0.1-0.7-0.4-0.9l-31.1-36.4c0,0,0,0,0,0c0,0,0,0,0-0.1c-0.1-0.1-0.2-0.2-0.3-0.2
		c0,0,0,0-0.1,0c-0.1-0.1-0.2-0.1-0.3-0.1c0,0-0.1,0-0.1,0c-0.1,0-0.3-0.1-0.4,0c0,0,0,0,0,0c0,0,0,0,0,0l-35.8,1.5
		c-0.8,0-1.4,0.6-1.5,1.3c-0.3,1.8-6.1,43.4,0,65.1c7.7,27.1,27.9,52.5,28.1,52.8c0,0,0.1,0.1,0.1,0.1c0,0,0.1,0.1,0.1,0.1
		c0,0,0,0,0,0c0.1,0.1,0.3,0.2,0.4,0.3c0,0,0.1,0,0.1,0c0.2,0.1,0.3,0.1,0.5,0.1c0.1,0,0.2,0,0.3,0c1.3-0.3,30.8-6.3,36.8-21.5
		C528.8,100.3,526.7,55.2,526.6,53.2z"/>
</g>
<g id="Calque_7">
	<g>
		<g>
			<path class="st5" d="M451.5,58.3c-1.5,1.2-3.8,1.3-5.4,0l-6.6-4.9c-2-1.5-2.4-4.3-0.9-6.3l2.6-3.5c1.5-2,4.3-2.4,6.3-0.9l6.6,4.9
				c2,1.5,2.4,4.3,0.9,6.3"/>
			<line class="st5" x1="448" y1="52.7" x2="460.1" y2="60.6"/>
		</g>
		<g>
			<path class="st5" d="M453.5,41l-2.8,0c-2.5,0-4.5-1.9-4.6-4.4l-0.1-4.3c0-2.5,1.9-4.5,4.4-4.6l4.1-0.1"/>
		</g>
		<g>
			<path class="st5" d="M469.7,73.1c-1.5,1.2-3.8,1.3-5.4,0l-6.6-4.9c-2-1.5-2.4-4.3-0.9-6.3l2.6-3.5c1.5-2,4.3-2.4,6.3-0.9l6.6,4.9
				c2,1.5,2.4,4.3,0.9,6.3"/>
			<line class="st5" x1="466.2" y1="67.5" x2="478.3" y2="75.4"/>
		</g>
		<g>
			<path class="st5" d="M486.7,86.4c-1.5,1.2-3.8,1.3-5.4,0l-6.6-4.9c-2-1.5-2.4-4.3-0.9-6.3l2.6-3.5c1.5-2,4.3-2.4,6.3-0.9l6.6,4.9
				c2,1.5,2.4,4.3,0.9,6.3"/>
			<line class="st5" x1="483.3" y1="80.8" x2="495.3" y2="88.7"/>
		</g>
		<g>
			<path class="st5" d="M507.3,99c-1.5,1.3-3.7,1.5-5.4,0.4L495,95c-2.1-1.3-2.7-4.1-1.3-6.2l2.4-3.6c1.3-2.1,4.1-2.7,6.2-1.3
				l6.9,4.5c2.1,1.3,2.7,4.1,1.3,6.2"/>
			<line class="st5" x1="503.5" y1="93.7" x2="516.1" y2="100.8"/>
		</g>
		<g>
			<path class="st5" d="M527.9,111.3c-1.5,1.3-3.7,1.5-5.4,0.4l-6.9-4.5c-2.1-1.3-2.7-4.1-1.3-6.2l2.4-3.6c1.3-2.1,4.1-2.7,6.2-1.3
				l6.9,4.5c2.1,1.3,2.7,4.1,1.3,6.2"/>
		</g>
		<g>
			<path class="st5" d="M528.9,81.4c0.9,0.2,1.8,0.6,2.5,1.4l5.6,6c1.7,1.8,1.6,4.7-0.2,6.3l-3.2,3c-1.8,1.7-4.7,1.6-6.3-0.2"/>
		</g>
		<path class="st5" d="M438.6,47.1c0,0-4.8-13.8,15.5-12.8"/>
		<path class="st5" d="M528.7,90.3c0,0,17.1,13.5,5.9,17.6c-8.6,3.2-11.9-3.5-11.9-3.5"/>
	</g>
	<g>
		<g>
			<path class="st5" d="M513.7,59.7c1.5,1.2,3.8,1.3,5.4,0l6.6-4.9c2-1.5,2.4-4.3,0.9-6.3l-2.6-3.5c-1.5-2-4.3-2.4-6.3-0.9l-6.6,4.9
				c-2,1.5-2.4,4.3-0.9,6.3"/>
			<line class="st5" x1="517.2" y1="54.2" x2="505.1" y2="62.1"/>
		</g>
		<g>
			<path class="st5" d="M496.7,73c1.5,1.2,3.8,1.3,5.4,0l6.6-4.9c2-1.5,2.4-4.3,0.9-6.3l-2.6-3.5c-1.5-2-4.3-2.4-6.3-0.9l-6.6,4.9
				c-2,1.5-2.4,4.3-0.9,6.3"/>
			<line class="st5" x1="500.1" y1="67.4" x2="488.1" y2="75.3"/>
		</g>
		<g>
			<path class="st5" d="M476,85.7c1.5,1.3,3.7,1.5,5.4,0.4l6.9-4.5c2.1-1.3,2.7-4.1,1.3-6.2l-2.4-3.6c-1.3-2.1-4.1-2.7-6.2-1.3
				l-6.9,4.5c-2.1,1.3-2.7,4.1-1.3,6.2"/>
			<line class="st5" x1="479.9" y1="80.3" x2="467.3" y2="87.4"/>
		</g>
		<g>
			<path class="st5" d="M455.5,97.9c1.5,1.3,3.7,1.5,5.4,0.4l6.9-4.5c2.1-1.3,2.7-4.1,1.3-6.2l-2.4-3.6c-1.3-2.1-4.1-2.7-6.2-1.3
				l-6.9,4.5c-2.1,1.3-2.7,4.1-1.3,6.2"/>
		</g>
		<g>
			<path class="st5" d="M454.5,68c-0.9,0.2-1.8,0.6-2.5,1.4l-5.6,6c-1.7,1.8-1.6,4.7,0.2,6.3l3.2,3c1.8,1.7,4.7,1.6,6.3-0.2"/>
		</g>
		<path class="st5" d="M454.6,77c0,0-17.1,13.5-5.9,17.6c8.6,3.2,11.9-3.5,11.9-3.5"/>
	</g>
	<path class="st5" d="M522.7,48.2c0,0,10.6-6.9-3.8-9.4"/>
	<g>
		<path class="st6" d="M495.2,81c-0.5,7.7-7.2,12.2-15.1,10s-13.8-10.1-13.3-17.8s7.2-12.2,15.1-10S495.6,73.3,495.2,81z"/>
		<path class="st7" d="M488,66.3l0.5-8.1c0.2-3.4-2.4-6.9-5.9-7.9c-3.5-1-6.4,1-6.7,4.4l-0.5,7.7"/>
		<g>
			<path class="st8" d="M483.9,76.4c-0.1,1.6-1.5,2.5-3,2c-1.6-0.4-2.8-2.1-2.7-3.6s1.5-2.5,3-2C482.8,73.2,484,74.8,483.9,76.4z"/>
			<line class="st9" x1="480.7" y1="81.4" x2="481" y2="76.3"/>
		</g>
	</g>
	<line class="st10" x1="430.5" y1="111.6" x2="430.5" y2="120.8"/>
	<line class="st10" x1="535.8" y1="45.1" x2="535.8" y2="32.5"/>
	<line class="st10" x1="535.8" y1="52" x2="535.8" y2="53.7"/>
	<path class="st10" d="M491.6,103.9c0,0,24.3,20.6,46.6,15.2c22.3-5.4,17.3-18.3,17.3-18.3"/>
	<path class="st10" d="M428.8,38.8c-1.4-7,1-14.4,16.2-16.2"/>
	<line class="st10" x1="467.3" y1="176.4" x2="467.3" y2="142.2"/>
	<line class="st10" x1="532.8" y1="155.7" x2="532.8" y2="141.3"/>
	<line class="st11" x1="566.6" y1="131.4" x2="566.6" y2="90.7"/>
	<line class="st10" x1="568.7" y1="131.4" x2="568.7" y2="116.1"/>
	<line class="st10" x1="568.7" y1="109.1" x2="568.7" y2="110.8"/>
	<line class="st11" x1="467.3" y1="32.5" x2="467.3" y2="2.5"/>
</g>
</svg>
